<?xml version="1.0" encoding="UTF-8" standalone="no"?>
<!-- Generator: Adobe Illustrator 23.0.1, SVG Export Plug-In . SVG Version: 6.00 Build 0)  -->

<svg
   xmlns:dc="http://purl.org/dc/elements/1.1/"
   xmlns:cc="http://creativecommons.org/ns#"
   xmlns:rdf="http://www.w3.org/1999/02/22-rdf-syntax-ns#"
   xmlns:svg="http://www.w3.org/2000/svg"
   xmlns="http://www.w3.org/2000/svg"
   xmlns:sodipodi="http://sodipodi.sourceforge.net/DTD/sodipodi-0.dtd"
   xmlns:inkscape="http://www.inkscape.org/namespaces/inkscape"
   version="1.1"
   id="Layer_1"
   x="0px"
   y="0px"
   viewBox="0 0 595.28 595.28"
   style="enable-background:new 0 0 595.28 595.28;"
   xml:space="preserve"
   sodipodi:docname="botafogo-sp-logo.svg"
   inkscape:version="0.92.2 (5c3e80d, 2017-08-06)"><metadata
     id="metadata25"><rdf:RDF><cc:Work
         rdf:about=""><dc:format>image/svg+xml</dc:format><dc:type
           rdf:resource="http://purl.org/dc/dcmitype/StillImage" /></cc:Work></rdf:RDF></metadata><defs
     id="defs23" /><sodipodi:namedview
     pagecolor="#ffffff"
     bordercolor="#666666"
     borderopacity="1"
     objecttolerance="10"
     gridtolerance="10"
     guidetolerance="10"
     inkscape:pageopacity="0"
     inkscape:pageshadow="2"
     inkscape:window-width="1600"
     inkscape:window-height="837"
     id="namedview21"
     showgrid="false"
     inkscape:zoom="0.39645207"
     inkscape:cx="201.27032"
     inkscape:cy="318.03266"
     inkscape:window-x="-8"
     inkscape:window-y="-8"
     inkscape:window-maximized="1"
     inkscape:current-layer="Layer_1" /><style
     type="text/css"
     id="style2">
	.st0{fill:#FFFFFF;}
	.st1{fill:#EE3124;}
</style><path
     d="M502.22,12.72c-74.16,38.46-142.17,38.53-202.15,0.2l-2.43-1.55l-2.43,1.55c-59.98,38.32-127.99,38.25-202.15-0.2l-6.6-3.42  v338.31c0,50.5,22.71,105.46,62.31,150.78c40.59,46.46,93.18,77.51,148.07,87.44l0.8,0.15l0.8-0.15  c54.89-9.93,107.47-40.98,148.06-87.44c39.6-45.32,62.31-100.28,62.31-150.78V9.3L502.22,12.72z"
     id="path4"
     inkscape:export-filename="G:\Users\suitedoalex\sites\botafogo-sp-logo-escudo-7.png"
     inkscape:export-xdpi="11.37306"
     inkscape:export-ydpi="11.37306" /><path
     class="st0"
     d="M499.78,203.63c0-82.99,0-172.38,0-179.67c-73.69,36.19-141.65,35.56-202.14-1.98  c-60.49,37.54-128.45,38.17-202.14,1.98c0,7.29,0,96.68,0,179.67H499.78z"
     id="path6"
     inkscape:export-filename="G:\Users\suitedoalex\sites\botafogo-sp-logo-escudo-7.png"
     inkscape:export-xdpi="11.37306"
     inkscape:export-ydpi="11.37306" /><path
     class="st0"
     d="M434.57,212.67h-66.51v337.56c24.25-13.75,47.5-31.59,66.51-52.11V212.67z"
     id="path8"
     inkscape:export-filename="G:\Users\suitedoalex\sites\botafogo-sp-logo-escudo-7.png"
     inkscape:export-xdpi="11.37306"
     inkscape:export-ydpi="11.37306" /><path
     class="st0"
     d="M226.77,212.67h-67.5v286.06c19.03,20.41,43.27,38.15,67.5,51.8V212.67z"
     id="path10"
     inkscape:export-filename="G:\Users\suitedoalex\sites\botafogo-sp-logo-escudo-7.png"
     inkscape:export-xdpi="11.37306"
     inkscape:export-ydpi="11.37306" /><path
     d="M295.37,35.03c-58.8,38.61-132.93,25.73-184.76,8.13l-5.8-1.94v151.98h384.53V41.55l-6.26,1.56c0,0-14.76,5.11-14.79,5.13  c-26.76,9.11-57.75,13.19-87.26,11.48c-32.24-1.86-60.69-10.4-82.25-24.69l-1.71-1.13L295.37,35.03z M297.1,41.27  c22.26,14.23,51.07,22.78,83.58,24.65c30.29,1.75,62.12-2.44,89.62-11.8c0,0,10-3.47,12.83-4.45c0,7.65,0,131.53,0,137.31  c-6.06,0-366.05,0-372.11,0c0-5.77,0-129.27,0-137.16C163.54,67.28,237.38,79.36,297.1,41.27z"
     id="path12"
     inkscape:export-filename="G:\Users\suitedoalex\sites\botafogo-sp-logo-escudo-7.png"
     inkscape:export-xdpi="11.37306"
     inkscape:export-ydpi="11.37306" /><path
     d="m 151.95,88.45 h 33.32 v 0 c 18.07,0 27.67,5.64 27.67,18.07 0,2.83 -1.13,6.78 -2.83,9.6 -1.69,2.26 -3.39,5.09 -6.77,6.78 3.95,0.57 6.77,3.39 9.03,6.78 1.69,2.26 2.83,6.77 2.83,10.73 0,5.08 -1.69,9.6 -3.39,12.98 -2.83,3.52119 -5.43999,5.72882 -10.73,6.78 -3.95,1.12177 -8.89058,2.41765 -15.25,2.26 v 0 h -33.88 z m 22.59,17.5 v 11.86 h 9.04 v 0 c 2.26,0 5.09,-0.56 5.64,-1.69 1.13,-1.13 1.40441,-2.07117 1.40441,-3.77117 0,-2.25 -0.0985,-3.43764 -1.13,-4.51 -0.87737,-0.91215 -1.92028,-2.03648 -5.91441,-1.87883 v 0 h -9.04 z m 0,24.84 v 14.11 h 10.17 v 0 c 6.21,0 8.2994,-1.3747 9.6,-6.21 0,-2.26 -0.57,-3.95 -1.13,-4.51 -0.56,-1.7 -2.25,-2.26 -3.95,-2.83 -2.17118,-0.39412 -4.51,-0.57 -7.9,-0.57 v 0 h -6.79 z m 48.56,10.16 h 19.77 v 21.46 H 223.1 Z m 45.74,-52.5 h 53.07 v 17.5 h -29.92 v 12.42 h 23.71 v 17.51 h -23.71 v 26.54 h -23.15 z m 48,52.5 h 19.77 v 21.46 h -19.77 z m 88.65,-24.28 c -0.57,-3.39 -1.68,-5.64 -2.82,-7.9 -1.7,-1.69 -2.55131,-2.71853 -4.93672,-3.64082 C 395.9218,104.26393 394.19,104.25 393.06,104.25 c -4.52,0 -9.58474,4.15506 -10.71474,8.10506 -1.68,4.52 -2.27526,7.70494 -2.27526,13.91494 0,13.56 4.52,19.77 12.99,19.77 7.34,0 10.74,-3.95 12.42,-11.86 v 0 h 21.46 v 0 c -0.57,5.64 -2.27,11.29 -5.09,15.24 -2.25,4.52 -6.2,8.47 -10.72,10.73 -4.52,2.83 -10.17,3.95 -16.94,3.95 -5.65,0 -10.74,-0.57 -15.24,-2.26 -4.52,-1.69 -8.47,-4.52 -11.3,-7.9 -3.39,-2.83 -6.2,-7.34 -7.34,-11.86 -1.7,-5.09 -2.82,-10.73 -2.82,-15.82 0,-6.77 1.12,-12.98 2.82,-18.07 2.25,-5.09 5.09,-9.6 7.9,-11.86 3.95,-3.39 7.34,-6.21 11.29,-7.34 3.95,-1.69 8.47,-2.26 12.42,-2.26 11.87,0 20.89,3.39 25.41,8.47 5.09,6.21 7.9,12.99 9.04,21.46 v 0 h -20.88 z m 28.23,24.28 h 19.77 v 21.46 h -19.77 z"
     id="path14"
     inkscape:connector-curvature="0"
     sodipodi:nodetypes="cccscccsccccccccccccscccccccccsccccccccccccccccccccccccccccccscssccccccscccscccsccccccccc"
     inkscape:export-filename="G:\Users\suitedoalex\sites\botafogo-sp-logo-escudo-7.png"
     inkscape:export-xdpi="11.37306"
     inkscape:export-ydpi="11.37306" /><path
     class="st1"
     d="M95.49,348.8c0,52.16,25.48,107.5,63.78,150.09c0-37.22,0-257.29,0-286.22H95.49  C95.49,284.34,95.49,348.8,95.49,348.8z"
     id="path16"
     style="fill:#e61e2a;fill-opacity:1"
     inkscape:export-filename="G:\Users\suitedoalex\sites\botafogo-sp-logo-escudo-7.png"
     inkscape:export-xdpi="11.37306"
     inkscape:export-ydpi="11.37306" /><path
     class="st1"
     d="M368.06,550.42c0-28.66,0-305.07,0-337.76h-67.88c0,33.85,0,329.83,0,361.6  C323.01,569.81,347.24,561.59,368.06,550.42z"
     id="path18"
     style="fill:#e61e2a;fill-opacity:1"
     inkscape:export-filename="G:\Users\suitedoalex\sites\botafogo-sp-logo-escudo-7.png"
     inkscape:export-xdpi="11.37306"
     inkscape:export-ydpi="11.37306" /></svg>