<?xml version="1.0" encoding="UTF-8" standalone="no"?>
<svg
   xmlns:dc="http://purl.org/dc/elements/1.1/"
   xmlns:cc="http://creativecommons.org/ns#"
   xmlns:rdf="http://www.w3.org/1999/02/22-rdf-syntax-ns#"
   xmlns:svg="http://www.w3.org/2000/svg"
   xmlns="http://www.w3.org/2000/svg"
   xmlns:sodipodi="http://sodipodi.sourceforge.net/DTD/sodipodi-0.dtd"
   xmlns:inkscape="http://www.inkscape.org/namespaces/inkscape"
   id="Layer_1"
   data-name="Layer 1"
   viewBox="0 0 700 700"
   version="1.1"
   sodipodi:docname="e-c-agua-santa-logo.svg"
   width="700"
   height="700"
   inkscape:version="0.92.0 r15299"
   inkscape:export-filename="C:\Users\suitedoalex\sites\agua-santa-logo-0.png"
   inkscape:export-xdpi="561.73712"
   inkscape:export-ydpi="561.73712">
  <metadata
     id="metadata111">
    <rdf:RDF>
      <cc:Work
         rdf:about="">
        <dc:format>image/svg+xml</dc:format>
        <dc:type
           rdf:resource="http://purl.org/dc/dcmitype/StillImage" />
        <dc:title>Artboard 1</dc:title>
      </cc:Work>
    </rdf:RDF>
  </metadata>
  <sodipodi:namedview
     pagecolor="#ffffff"
     bordercolor="#666666"
     borderopacity="1"
     objecttolerance="10"
     gridtolerance="10"
     guidetolerance="10"
     inkscape:pageopacity="0"
     inkscape:pageshadow="2"
     inkscape:window-width="1920"
     inkscape:window-height="1017"
     id="namedview109"
     showgrid="false"
     inkscape:zoom="0.55625733"
     inkscape:cx="304.52616"
     inkscape:cy="214.40143"
     inkscape:window-x="-8"
     inkscape:window-y="-8"
     inkscape:window-maximized="1"
     inkscape:current-layer="Layer_1" />
  <defs
     id="defs4">
    <style
       id="style2">.cls-1{fill:#f9af1b;}.cls-2{fill:#f9f8f7;}.cls-3{fill:#19151f;}</style>
  </defs>
  <title
     id="title6">Artboard 1</title>
  <path
     class="cls-1"
     d="m 141.13282,197.57117 q 18.42935,-20.15892 36.74285,-40.1606 c 14.01856,-15.27642 28.13642,-30.50319 42.06395,-45.83754 1.72957,-1.89507 2.74744,-2.20126 5.01491,-0.56273 22.34362,16.13707 45.79616,30.46181 71.86373,39.97027 a 154.55171,154.55171 0 0 0 50.24006,9.68224 c 26.7627,0.49652 51.78756,-6.47965 75.7449,-17.98249 18.64451,-8.954 36.01462,-19.96858 52.73096,-32.06724 1.76266,-1.27441 2.48263,-1.16683 3.9391,0.39722 q 27.21785,29.85771 54.61776,59.58301 c 7.65476,8.34162 15.26814,16.71634 22.99738,24.99176 1.36545,1.46475 1.76267,2.15989 0.0579,3.79842 -16.4598,15.89708 -22.48431,35.85738 -24.12284,58.20101 -1.53095,20.75475 5.18869,39.18411 13.08343,57.4314 8.73885,20.19202 19.26518,39.59788 27.30888,60.12919 6.90998,17.68457 12.41313,35.70843 13.62134,54.84947 1.65509,27.01924 -7.5389,49.37942 -27.81368,67.42811 -13.10826,11.67661 -28.60812,18.71071 -44.77001,24.65247 -27.61507,10.15393 -55.92527,18.20591 -83.58172,28.13642 -13.55513,4.86594 -26.98614,10.0629 -40.45852,15.16884 -13.89442,5.27144 -25.72827,13.89442 -37.09042,23.22082 -2.16816,1.78749 -3.74049,2.48263 -6.22312,0.28964 C 330.91295,574.4006 311.51537,565.90175 291.41438,558.32147 259.06577,546.1566 225.931,536.39988 193.40033,524.8474 c -14.35785,-5.09766 -28.79846,-10.10429 -41.48467,-18.8845 -19.32311,-13.3648 -33.44924,-30.38734 -37.75246,-54.21227 -2.9295,-16.16189 -0.89375,-32.00931 3.00398,-47.76571 4.6094,-18.89278 12.38002,-36.65182 20.42373,-54.31157 8.4823,-18.59486 18.37143,-36.56907 24.57799,-56.16526 q 12.49591,-39.48202 -5.85897,-76.55589 c -3.67428,-7.4065 -9.33467,-13.48066 -15.17711,-19.38103 z m -10.31945,237.99275 c -0.38894,21.85537 9.38432,38.62137 25.74483,52.28409 11.22974,9.37604 24.53661,14.53163 38.06692,19.29827 34.58297,12.23107 69.86935,22.40983 104.10476,35.69188 17.48595,6.78584 35.07122,13.18274 49.71043,25.39726 1.65509,1.37372 2.48263,0.47997 3.57498,-0.41377 10.20359,-8.27542 21.63195,-14.3413 33.80509,-19.03347 q 16.16189,-6.25621 32.42308,-12.25589 c 28.1778,-10.38565 57.04246,-18.719 85.35266,-28.73225 12.56209,-4.4439 25.14072,-8.93745 36.03945,-17.03081 20.77957,-15.44193 31.6783,-35.48499 29.22877,-61.86703 -1.15855,-12.52898 -4.1377,-24.65247 -8.20094,-36.53597 -7.32374,-21.59884 -17.12183,-42.13842 -27.03579,-62.61181 -12.15658,-25.12417 -20.82095,-50.80279 -17.86662,-79.44401 1.88679,-18.33833 6.62033,-35.31121 17.99076,-50.04145 1.59715,-2.06886 1.41509,-3.12811 -0.27309,-4.96525 q -28.03712,-30.35424 -55.86735,-60.89053 c -1.83714,-2.0192 -2.97915,-2.06885 -5.18041,-0.58755 a 320.36625,320.36625 0 0 1 -50.48005,28.18607 c -42.13015,18.42936 -84.90579,21.35885 -128.55034,5.9914 -23.6677,-8.33334 -45.37412,-20.432 -66.13714,-34.32643 -1.59716,-1.06753 -2.62331,-1.82887 -4.40252,0.12413 q -28.27711,31.09902 -56.81075,61.96633 c -1.47302,1.60543 -1.34062,2.48263 -0.091,4.13771 7.14996,9.26019 12.41313,19.52171 15.06126,30.94179 6.76929,29.42738 4.13771,57.92792 -8.59816,85.48506 -9.9305,21.40024 -20.35753,42.56875 -28.96396,64.54826 -6.8686,17.58527 -12.34693,35.5512 -12.64484,54.68397 z"
     id="path8"
     style="fill:#e8ab26;fill-opacity:0.98823529;stroke-width:0.82754177"
     inkscape:connector-curvature="0"
     inkscape:export-filename="C:\Users\suitedoalex\sites\agua-santa-logo-4.png"
     inkscape:export-xdpi="80.935349"
     inkscape:export-ydpi="80.935349" />
  <path
     class="cls-2"
     d="m 130.81337,435.56392 c 0.29792,-19.13277 5.79279,-37.0987 12.65311,-54.70879 8.59816,-21.97951 19.03347,-43.14803 28.96397,-64.54826 12.74414,-27.59025 15.36745,-56.05768 8.59816,-85.48507 -2.65641,-11.40352 -7.91958,-21.68159 -15.06954,-30.94179 -1.24959,-1.65508 -1.38199,-2.48262 0.091,-4.13771 q 28.50054,-30.88386 56.81075,-61.96632 c 1.77921,-1.953 2.80536,-1.19167 4.40252,-0.12414 20.76302,13.91926 42.46944,26.01792 66.13714,34.35126 43.65283,15.36745 86.42846,12.41313 128.50069,-6.00795 a 320.36625,320.36625 0 0 0 50.48005,-28.18607 c 2.20126,-1.4813 3.31016,-1.43165 5.18041,0.58755 q 27.8054,30.56112 55.86734,60.89053 c 1.65509,1.82886 1.87025,2.88812 0.27309,4.96525 -11.36215,14.73024 -16.10396,31.70312 -17.99076,50.04145 -2.95432,28.64122 5.71004,54.31984 17.86663,79.44401 9.9305,20.47339 19.71205,41.01297 27.03579,62.61181 4.03013,11.8835 7.04238,23.99872 8.20094,36.53597 2.48263,26.38204 -8.4492,46.4251 -29.22877,61.86703 -10.89873,8.09336 -23.47737,12.58691 -36.03945,17.03081 -28.3102,10.01325 -57.17486,18.3466 -85.35266,28.73225 q -16.2612,5.99968 -32.42309,12.25589 c -12.17314,4.71699 -23.60149,10.81597 -33.80508,19.03346 -1.10063,0.89375 -1.9199,1.78749 -3.57498,0.41378 -14.63921,-12.21452 -32.22448,-18.61142 -49.71044,-25.39726 -34.2354,-13.28205 -69.51351,-23.46081 -104.10475,-35.69188 -13.48894,-4.76664 -26.79581,-9.9305 -38.02555,-19.29827 -16.35223,-13.64617 -26.12549,-30.41217 -25.73655,-52.26754 z m 25.2152,-46.91335 c 1.03443,-0.46342 1.36544,-0.571 1.65508,-0.73651 L 352.75181,277.94203 q 76.21659,-42.97424 152.4994,-85.83263 c 3.11155,-1.74612 3.01225,-2.69779 0.72823,-5.13076 q -15.68191,-16.71635 -30.98316,-33.76371 c -1.57233,-1.74611 -2.58193,-1.96127 -4.64251,-0.64548 a 316.28647,316.28647 0 0 1 -42.78391,22.88153 c -45.24171,19.861 -91.26131,22.94773 -138.19948,6.62033 -21.14369,-7.34029 -40.87229,-17.51906 -59.76507,-29.39428 -1.40682,-0.88547 -2.44125,-1.94472 -4.13771,-0.0496 q -20.28305,22.4181 -40.81436,44.61278 c -1.17511,1.27441 -1.17511,2.1185 -0.31447,3.61635 15.63227,27.30888 17.59354,56.74454 12.66139,86.93327 -2.92122,17.8749 -10.8739,34.16092 -18.49556,50.48005 -7.72096,16.41843 -15.39227,32.86996 -22.47603,50.38074 z m -7.62166,47.93122 c -0.38067,10.94838 3.69084,21.92158 12.41313,31.1735 1.19166,1.26614 2.0192,1.5144 3.58325,0.57101 4.28667,-2.58193 8.69747,-4.96526 13.05861,-7.4065 L 385.49763,343.68195 q 55.11429,-31.07419 110.26995,-62.06563 c 2.04403,-1.15029 2.70606,-2.29229 2.48262,-4.70872 a 180.2386,180.2386 0 0 1 0.90202,-36.80078 103.70754,103.70754 0 0 1 12.90138,-39.10963 c 0.37239,-0.64548 1.32407,-1.34889 0.42205,-2.16815 -0.90202,-0.81927 -1.54751,0 -2.25919,0.39722 -0.42205,0.22343 -0.82754,0.47997 -1.23304,0.71996 Q 389.23812,267.4157 269.49283,334.89346 214.36199,365.9511 159.23116,397.00874 c -1.80405,1.01788 -3.67429,1.78749 -4.42735,4.26184 -3.32672,10.96493 -6.12381,22.04572 -6.3638,35.31121 z m 29.71702,34.02025 c 9.10296,4.96525 17.66802,9.5581 26.24963,14.14268 1.77922,0.95168 3.42602,0.20689 5.08938,-0.59583 6.06588,-2.92949 11.3456,-6.97617 16.42671,-11.32077 4.27839,-3.65773 5.62728,-3.75704 10.49323,-1.10063 7.62993,4.13771 15.30125,8.27542 22.90635,12.45451 a 5.9914026,5.9914026 0 0 0 6.05761,0.0745 77.449636,77.449636 0 0 0 15.90535,-10.83253 c 5.33765,-4.5101 6.04106,-4.52665 12.28072,-1.11718 7.10031,3.88945 14.26682,7.66304 21.32576,11.62696 a 6.7279148,6.7279148 0 0 0 7.02583,0.10758 c 6.03278,-3.02052 11.28767,-7.09203 16.3936,-11.39525 4.0384,-3.39292 5.32937,-3.55843 9.88912,-1.10063 7.54718,4.07151 15.13574,8.06026 22.60845,12.27245 a 6.9348002,6.9348002 0 0 0 7.32374,0.14068 82.307307,82.307307 0 0 0 15.81432,-10.98148 c 4.61769,-3.93082 5.64384,-3.98048 11.08906,-1.01788 7.31547,3.99703 14.70542,7.86165 21.97124,11.93316 a 6.7361902,6.7361902 0 0 0 7.00928,0.14895 c 6.06588,-2.97915 11.27112,-7.1003 16.3936,-11.39525 4.13771,-3.45085 5.41212,-3.55015 10.21187,-0.94339 7.44787,4.03012 14.89575,7.9444 22.27742,12.12348 2.72261,1.54751 4.9156,1.37372 7.64649,0 5.90865,-3.00397 11.03113,-7.04238 16.06258,-11.24629 3.91428,-3.31017 5.3873,-3.4343 9.9305,-0.96822 4.07151,2.21781 8.15957,4.41907 12.20625,6.70309 1.21648,0.69513 2.11023,1.06752 3.47567,0 7.52236,-5.71832 13.81995,-12.41313 17.80043,-21.1106 0.82754,-1.75438 1.93644,-3.47567 1.82059,-5.64383 -6.62034,2.88812 -12.01591,7.15824 -17.32045,11.58558 -4.71699,3.95565 -5.53626,4.03013 -11.10561,1.01788 -7.22444,-3.906 -14.51509,-7.69614 -21.64022,-11.77592 -2.83847,-1.65508 -5.11421,-1.48957 -7.95268,0 -5.79279,3.00398 -10.79942,6.95963 -15.72329,11.08079 -4.13771,3.48395 -5.3873,3.60808 -10.22014,0.98477 -7.53063,-4.08806 -15.11092,-8.10991 -22.58362,-12.29727 -2.48262,-1.37372 -4.5101,-1.29097 -7.001,0 -6.02451,3.03708 -11.22974,7.16651 -16.36878,11.42008 -4.13771,3.39292 -5.26316,3.5336 -9.9305,1.02615 -7.65476,-4.13771 -15.30952,-8.27542 -22.89808,-12.47106 a 6.4134489,6.4134489 0 0 0 -6.68654,-0.091 c -6.00795,3.05363 -11.27939,7.09204 -16.37705,11.40353 -4.20391,3.55015 -5.40385,3.69084 -10.22014,1.09235 -7.44788,-4.0053 -14.89575,-7.93612 -22.27743,-12.10693 a 7.1251348,7.1251348 0 0 0 -7.62993,-0.17379 c -5.87555,3.05363 -11.01458,7.06721 -16.05431,11.25457 -4.20392,3.49223 -5.39558,3.59153 -10.22014,0.9765 -7.63822,-4.13771 -15.30953,-8.22576 -22.90636,-12.41313 a 6.1320847,6.1320847 0 0 0 -6.3638,0 c -6.13208,3.07018 -11.478,7.19962 -16.68324,11.58559 -3.99703,3.36809 -5.27144,3.5005 -9.9305,0.99305 -7.64649,-4.13771 -15.30125,-8.27542 -22.88981,-12.47933 -2.32539,-1.29924 -4.29494,-1.20821 -6.69481,-0.0579 -6.43828,3.09501 -11.86695,7.55546 -17.22942,12.13176 -1.79577,1.54751 -3.74049,2.88813 -6.12381,1.72129 -2.25919,-1.11718 -3.98048,-0.42204 -5.85072,0.82754 -1.87025,1.24959 -4.07151,2.26747 -6.8024,3.8067 z m 56.84385,-31.98449 25.45519,13.74546 c 1.65508,0.90202 3.16121,0.36412 4.73354,-0.39722 6.17346,-2.97087 11.58558,-7.0672 16.74944,-11.46972 4.36942,-3.71567 5.65211,-3.78187 10.82425,-0.9765 7.44787,4.0384 14.93713,7.91957 22.29397,12.08211 2.48263,1.40682 4.47701,1.22476 6.95963,0 6.04106,-3.01226 11.23802,-7.14997 16.37705,-11.40353 3.9391,-3.26051 5.33765,-3.40947 9.9305,-0.93512 7.65477,4.13771 15.33435,8.19266 22.91464,12.41312 2.35022,1.3158 4.26184,1.19994 6.62033,0 6.03278,-3.01225 11.28767,-7.05893 16.38533,-11.38697 4.0384,-3.42602 5.58591,-3.55015 10.25324,-1.0096 7.62994,4.13771 15.30952,8.22576 22.89808,12.46278 a 6.098983,6.098983 0 0 0 6.34725,0.0497 c 6.12381,-3.07018 11.49455,-7.17479 16.67497,-11.58558 3.88944,-3.31017 5.47832,-3.44258 9.9305,-1.03443 7.74579,4.19564 15.51641,8.34162 23.21254,12.62001 a 5.9251992,5.9251992 0 0 0 6.03278,0.0993 c 6.28105,-3.05363 11.68489,-7.32375 16.98944,-11.75937 3.92255,-3.31017 5.35419,-3.35982 9.9305,-0.88547 6.29759,3.38464 12.90965,6.29759 18.77692,10.30289 5.66039,3.86462 10.35255,3.31017 15.51641,-0.43032 1.65508,-1.19994 2.71434,-2.35849 3.02053,-4.42735 1.19993,-8.0106 0.41377,-15.9219 -0.82754,-23.8332 -0.29792,-1.87852 -0.8772,-1.953 -2.54056,-1.14201 -6.18173,2.9957 -11.46145,7.23272 -16.67496,11.58559 -3.76532,3.15293 -5.21352,3.31016 -9.64087,0.89374 -7.86164,-4.22874 -15.72329,-8.42437 -23.55184,-12.74414 a 5.4700512,5.4700512 0 0 0 -5.66866,-0.0414 c -6.25621,3.08673 -11.73454,7.23272 -17.00598,11.72627 -3.91427,3.31016 -5.3542,3.48395 -9.9305,1.01787 -7.65476,-4.13771 -15.33435,-8.18438 -22.91463,-12.41312 a 6.2727668,6.2727668 0 0 0 -6.62034,-0.11586 c -6.03278,3.02053 -11.29594,7.05893 -16.40188,11.36215 -4.27011,3.58326 -5.49487,3.69911 -10.52633,0.98477 -7.64648,-4.1377 -15.3178,-8.20921 -22.91463,-12.41312 -2.11023,-1.18339 -3.82324,-1.08408 -5.98313,0 -6.16518,3.02053 -11.5111,7.14996 -16.70807,11.53593 -4.13771,3.48395 -5.51143,3.60808 -10.23669,1.05098 -7.44787,-4.02185 -14.89575,-7.93613 -22.26087,-12.14832 -2.83847,-1.65508 -5.11421,-1.40682 -7.9113,0.0662 a 91.029597,91.029597 0 0 0 -15.7233,11.08078 c -4.08805,3.42603 -5.35419,3.55016 -10.22014,0.92685 -7.44787,-4.01358 -14.89575,-7.91958 -22.26915,-12.11521 -2.73089,-1.56406 -4.90732,-1.39027 -7.61338,0 a 78.401309,78.401309 0 0 0 -15.47503,10.83252 c -2.54056,2.21781 -5.02318,4.13771 -8.58161,2.35849 -0.67859,-0.34756 -1.13373,0 -1.65509,0.28137 -2.79709,1.6137 -5.64383,3.26879 -8.97055,5.18869 z m 275.70383,51.1007 c -3.58326,-1.94472 -6.84378,-3.63291 -10.02981,-5.47005 -1.96128,-1.13373 -3.68256,-1.0096 -5.71004,0 -6.28932,3.04535 -11.70144,7.29064 -16.98943,11.75109 -3.92255,3.31017 -5.40385,3.48395 -9.9305,1.02615 -7.63821,-4.1377 -15.2847,-8.27541 -22.86498,-12.50415 a 6.4299997,6.4299997 0 0 0 -6.69482,-0.091 c -6.12381,3.08673 -11.42007,7.28237 -16.64186,11.63524 -3.95565,3.31016 -5.3211,3.39292 -9.9305,0.89374 -7.63821,-4.13771 -15.30953,-8.20921 -22.88153,-12.47105 -2.3585,-1.32407 -4.30322,-1.18339 -6.66999,0 -6.04933,2.98742 -11.22974,7.15823 -16.36878,11.4118 -4.13771,3.40947 -5.5197,3.59153 -10.24497,1.03443 -7.63821,-4.13771 -15.28469,-8.27542 -22.86498,-12.49589 a 6.1734618,6.1734618 0 0 0 -6.38034,-0.0745 c -5.99968,3.03707 -11.26285,7.1003 -16.38533,11.3787 -4.49355,3.74876 -5.55281,3.81496 -10.8408,0.95167 -7.21616,-3.91427 -14.5068,-7.70442 -21.62366,-11.79247 -2.7971,-1.60543 -5.04801,-1.65509 -7.95268,-0.14896 -5.86727,3.0619 -10.97321,7.10858 -16.00466,11.30422 -3.9391,3.31017 -5.3873,3.41775 -9.9305,0.93512 -7.63821,-4.13771 -15.30952,-8.22576 -22.88153,-12.47933 a 6.3306947,6.3306947 0 0 0 -6.67826,-0.0414 90.516521,90.516521 0 0 0 -12.84345,8.34162 c -0.36412,0.28136 -0.9434,0.33101 -0.82754,0.93512 a 1.4399227,1.4399227 0 0 0 1.19166,1.11718 c 8.55678,1.65508 16.55083,5.22179 24.82625,7.65476 0.91857,0.26482 1.77094,0.72824 2.73089,0.22344 2.07713,-1.08408 4.04668,-0.3724 5.74314,0.71168 9.28502,5.94175 20.08444,7.91958 30.18045,11.73455 a 3.9556498,3.9556498 0 0 0 3.63291,-0.30619 c 5.00662,-2.63986 9.19398,-6.38863 13.5303,-9.9305 4.08806,-3.31017 5.20524,-3.48396 9.88085,-0.95168 7.74579,4.19564 15.51641,8.34162 23.22083,12.61174 a 5.8920976,5.8920976 0 0 0 6.01622,0.0579 c 6.19829,-2.97915 11.58559,-7.10859 16.72462,-11.52766 4.19564,-3.59153 5.30455,-3.74049 10.16222,-1.11718 7.5389,4.07978 15.11919,8.09336 22.57534,12.31382 2.5902,1.46475 4.70871,1.29924 7.31547,0 5.91692,-2.98743 11.06423,-6.98445 16.06258,-11.25457 4.17909,-3.5667 5.30455,-3.64118 10.17877,-1.00132 7.44787,4.02185 14.89575,7.96922 22.26915,12.11521 1.5475,0.86892 2.73916,0.67858 4.31149,0.33101 7.51408,-1.65508 13.24067,-6.22311 18.89278,-11.06423 4.75009,-4.07978 5.85072,-4.22046 11.32077,-0.92685 a 5.2962675,5.2962675 0 0 0 4.96525,0.41378 c 10.16221,-3.38465 20.34925,-6.62034 30.50319,-10.06291 4.53493,-1.55578 9.21882,-2.87985 13.93581,-5.17214 z M 291.74542,406.59168 c 8.48231,4.60113 16.44326,8.8878 24.36283,13.24067 1.79577,0.98477 3.31017,0.64548 5.04801,-0.19034 6.38035,-3.10328 11.9166,-7.44787 17.3039,-11.94143 3.80669,-3.20258 5.19696,-3.31016 9.62431,-0.91857 7.86165,4.22874 15.72329,8.4161 23.56011,12.74415 a 5.5031529,5.5031529 0 0 0 5.68522,0.0662 c 6.23966,-3.09501 11.72626,-7.24927 16.98943,-11.75109 3.92255,-3.35155 5.34592,-3.50051 9.9305,-1.03443 7.55546,4.06323 15.11919,8.09336 22.59189,12.28899 a 6.8437706,6.8437706 0 0 0 7.28237,0.14069 c 6.00795,-3.07018 11.21319,-7.19134 16.35223,-11.44491 3.9722,-3.31016 5.29626,-3.42602 9.9305,-0.92684 7.75406,4.17908 15.53296,8.31679 23.22909,12.60346 a 5.7183138,5.7183138 0 0 0 5.99968,0.0496 84.616148,84.616148 0 0 0 16.44326,-11.33732 c 4.49355,-3.79842 5.70176,-3.906 10.82425,-1.12546 7.74579,4.19564 15.47503,8.42438 23.23737,12.59519 2.25919,1.22476 10.84907,-1.65509 11.64351,-3.89772 a 3.2605147,3.2605147 0 0 0 -0.14896,-1.73784 c -1.75438,-7.17479 -3.87289,-14.242 -6.29759,-21.22645 -0.58755,-1.65508 -1.20821,-2.12678 -2.71434,-0.87719 -2.93777,2.43297 -6.13208,4.58458 -8.89607,7.19133 -3.04535,2.8633 -5.94175,2.77227 -9.37605,0.82755 -7.70441,-4.27839 -15.54123,-8.3168 -23.2291,-12.62002 -2.35849,-1.31579 -4.28666,-1.20821 -6.66998,0 -6.04933,2.99571 -11.3125,7.04238 -16.38533,11.39525 -4.0053,3.42603 -5.50315,3.56671 -10.22842,1.01788 -7.64648,-4.13771 -15.33435,-8.20094 -22.92291,-12.41313 -2.23436,-1.24958 -4.05495,-1.17511 -6.33069,-0.0662 -6.17346,3.02053 -11.51938,7.15824 -16.69979,11.58559 -3.89773,3.31016 -5.36247,3.45912 -9.93051,1.01787 -7.66303,-4.13771 -15.3509,-8.18439 -22.93118,-12.41312 a 6.355521,6.355521 0 0 0 -6.62033,-0.10759 c -6.06588,2.97916 -11.29595,7.05894 -16.41843,11.36215 -4.22046,3.54188 -5.56108,3.64119 -10.51806,0.95168 q -11.31249,-6.13209 -22.61672,-12.24762 c -1.72128,-0.93512 -3.36809,-1.76267 -5.36247,-0.70341 a 87.901489,87.901489 0 0 0 -12.95102,8.07681 c -3.82325,2.9957 -6.78585,8.14301 -13.01724,6.43 -0.26481,-0.0662 -0.64548,0.25653 -0.95995,0.43032 z m 57.00936,-32.32378 a 9.7070652,9.7070652 0 0 0 1.32407,1.16683 c 7.20788,3.91427 14.45715,7.76234 21.63194,11.74282 2.01092,1.11718 3.66601,0.95995 5.68521,0 6.06588,-2.93778 11.32905,-6.99273 16.43498,-11.29595 4.72526,-3.98047 5.55281,-4.07978 11.09734,-1.09235 7.5389,4.06323 15.09436,8.10163 22.57534,12.26417 a 5.7927925,5.7927925 0 0 0 5.99967,0.11585 c 6.17346,-3.01225 11.47801,-7.19134 16.6998,-11.53593 4.40252,-3.66601 5.4535,-3.74876 10.51805,-1.0096 7.63821,4.13771 15.29298,8.27542 22.87326,12.46278 a 5.7927925,5.7927925 0 0 0 6.00795,0.0828 73.105042,73.105042 0 0 0 16.90668,-11.84212 c 3.15293,-2.83847 6.09898,-3.08673 9.69879,-1.06753 7.57201,4.25356 15.23504,8.3499 22.88153,12.47105 1.24959,0.67031 2.48263,1.8206 4.33632,1.10891 -2.73916,-7.4065 -5.79279,-14.47371 -9.20227,-21.87193 -3.52532,4.65079 -7.22444,3.19431 -11.18008,0.96823 -7.35685,-4.13771 -14.89576,-8.03544 -22.2526,-12.12349 a 5.9417501,5.9417501 0 0 0 -6.04106,0 c -6.16519,3.01225 -11.58558,7.09203 -16.69979,11.58558 -4.02186,3.49223 -5.53626,3.61636 -10.21187,1.06753 -7.62993,-4.13771 -15.27642,-8.27542 -22.86498,-12.4876 a 6.2479405,6.2479405 0 0 0 -6.38034,-0.10758 c -6.18174,3.00397 -11.50284,7.18306 -16.69152,11.58558 -4.09633,3.4674 -5.41213,3.55843 -10.18704,0.95995 q -11.58559,-6.30587 -23.22082,-12.60346 c -1.382,-0.74479 -2.55711,-1.31579 -4.25357,-0.33929 -6.62033,3.79841 -13.48893,7.13341 -19.03346,12.5207 -0.9434,0.9103 -1.96128,2.12679 -3.26879,2.01093 -5.30454,-0.54618 -8.55678,3.50878 -13.18274,5.26317 z m 56.27284,-31.85209 c 8.27542,4.49355 15.60744,8.42438 22.88153,12.41313 2.02748,1.12546 3.76532,0.77789 5.73487,-0.15723 6.19828,-2.94605 11.45317,-7.22444 16.65841,-11.58559 4.18736,-3.5005 5.39557,-3.62463 10.23669,-1.0096 7.44788,4.0053 14.89576,7.95268 22.22778,12.13176 a 7.1499611,7.1499611 0 0 0 7.63821,0.14068 c 6.11553,-3.11983 11.42835,-7.30719 16.55083,-11.78419 2.85502,-2.48263 5.61901,-2.74744 8.79677,-0.98478 2.84675,1.58061 5.72659,3.10329 8.98711,4.86595 a 9.2601927,9.2601927 0 0 0 -0.20689,-1.87024 c -3.14466,-8.13474 -7.18306,-15.39228 -16.2943,-18.32178 -2.48262,-0.78616 -4.70043,-2.30057 -6.92652,-3.66601 -2.41642,-1.4813 -4.55976,-1.23304 -7.03411,0 -5.79279,2.8964 -10.88217,6.81067 -15.7895,10.98976 -4.70871,4.01357 -5.70176,4.0384 -11.06423,1.1089 -7.4065,-4.04668 -14.85437,-8.03543 -22.2526,-12.09866 -1.43164,-0.78616 -2.62331,-1.20821 -4.23701,-0.19033 -6.81895,4.31149 -14.52336,7.19133 -20.50649,12.86 a 4.5101028,4.5101028 0 0 1 -2.48262,1.32406 c -4.82457,0.34757 -7.93613,3.9722 -12.92621,5.83417 z m -97.5589,187.95957 c 7.09203,2.91295 13.9358,5.14731 20.20029,8.49058 4.55976,2.4247 7.66304,2.06058 10.89045,-1.65509 2.68951,-3.11983 5.87555,-3.07018 9.31812,-1.08408 4.01358,2.3254 8.15129,4.42735 12.16487,6.76102 a 3.1694851,3.1694851 0 0 0 3.5667,0 c 10.85735,-5.79279 22.39328,-9.9305 33.87956,-14.20062 2.3916,-0.89374 4.75837,-1.82886 7.73752,-2.97915 -6.26449,-3.39292 -11.90005,-6.43 -17.51078,-9.4919 -1.65509,-0.91857 -3.13639,-0.4717 -4.73354,0.27309 -6.32242,2.97915 -11.70144,7.29892 -17.01426,11.73454 -4.20391,3.5005 -5.4866,3.62463 -10.22842,1.05925 q -11.46973,-6.19828 -22.89808,-12.4545 c -1.72129,-0.9434 -3.31017,-1.55578 -5.36247,-0.60411 -7.45615,3.45913 -13.65444,8.55679 -20.00996,14.15097 z M 462.05352,310.572 c 7.76235,4.19564 14.97851,8.05199 22.1533,12.00764 1.9199,1.06752 3.55015,0.65375 5.3873,-0.20689 6.66171,-3.11156 12.18141,-7.81199 17.77559,-12.41313 1.08408,-0.90202 1.36545,-1.6137 0.82755,-2.98742 a 117.7261,117.7261 0 0 1 -5.05629,-17.37838 c -0.29791,-1.4813 -0.75306,-1.76266 -2.11023,-0.98478 C 488.24522,295.81693 475.4597,303 462.03697,310.572 Z M 285.30715,522.23237 c -4.60941,-2.21781 -8.17611,-7.36512 -13.99373,-6.14864 l -0.34757,0.96823 z"
     id="path10"
     inkscape:connector-curvature="0"
     style="fill:#f9f8f7;stroke-width:0.82754177"
     inkscape:export-filename="C:\Users\suitedoalex\sites\agua-santa-logo-4.png"
     inkscape:export-xdpi="80.935349"
     inkscape:export-ydpi="80.935349" />
  <path
     class="cls-3"
     d="m 156.02857,388.65057 c 7.05065,-17.51078 14.72197,-33.92921 22.41811,-50.41384 7.62166,-16.28603 15.57433,-32.57205 18.49555,-50.48005 4.96526,-30.18873 2.97088,-59.63267 -12.66138,-86.89189 -0.82755,-1.49785 -0.82755,-2.34195 0.31446,-3.61636 q 20.48994,-22.22777 40.81436,-44.61278 c 1.72129,-1.89507 2.75572,-0.82754 4.13771,0.0497 18.95071,11.86694 38.67931,22.04571 59.80645,29.41911 46.95472,16.31084 92.97432,13.19101 138.19948,-6.62034 a 316.28647,316.28647 0 0 0 42.78391,-22.88153 c 2.06058,-1.31579 3.07018,-1.10063 4.64251,0.64548 q 15.37572,16.96461 30.98316,33.71406 c 2.28402,2.43297 2.38332,3.38464 -0.72823,5.13076 Q 428.92703,234.9099 352.75181,277.94207 L 157.68365,387.91406 c -0.25654,0.16551 -0.58755,0.27309 -1.65508,0.73651 z M 270.4776,210.79529 a 38.406215,38.406215 0 1 0 38.6462,38.32346 38.52207,38.52207 0 0 0 -38.6131,-38.32346 z"
     id="path12"
     style="fill:#001742;fill-opacity:1;stroke-width:0.82754177"
     inkscape:connector-curvature="0"
     inkscape:export-filename="C:\Users\suitedoalex\sites\agua-santa-logo-4.png"
     inkscape:export-xdpi="80.935349"
     inkscape:export-ydpi="80.935349" />
  <path
     class="cls-1"
     d="m 148.44001,436.58179 c 0.23999,-13.24067 3.03708,-24.32973 6.3638,-35.31121 0.75306,-2.48262 2.6233,-3.24396 4.42735,-4.26184 36.75388,-20.74371 73.50778,-41.44881 110.26167,-62.11528 79.8302,-44.96862 159.66039,-89.93173 239.49059,-134.88932 0.41377,-0.23998 0.82754,-0.49652 1.23304,-0.71996 0.71168,-0.38894 1.47302,-1.1089 2.25919,-0.39722 0.78616,0.71169 -0.0497,1.52268 -0.42205,2.16816 -6.86436,12.02543 -11.25107,25.30372 -12.90138,39.0517 -1.54532,12.19392 -1.83925,24.51394 -0.87719,36.76768 0.19861,2.41642 -0.46342,3.55843 -2.48263,4.70871 -106.40803,59.81046 -207.71385,116.99315 -318.31395,179.33659 -4.36114,2.48262 -8.77194,4.82457 -13.05861,7.4065 -1.56405,0.94339 -2.39159,0.69513 -3.58325,-0.57101 -8.70574,-9.25192 -12.77725,-20.22512 -12.39658,-31.1735 z m 32.41488,-29.206 c -52.96272,126.81939 -26.48136,63.40969 0,0 z"
     id="path14"
     style="fill:#e8ab26;fill-opacity:1;stroke-width:0.82754177"
     inkscape:connector-curvature="0"
     sodipodi:nodetypes="ccccccscccccccccc"
     inkscape:export-filename="C:\Users\suitedoalex\sites\agua-santa-logo-4.png"
     inkscape:export-xdpi="80.935349"
     inkscape:export-ydpi="80.935349" />
  <path
     class="cls-3"
     d="m 178.12393,470.60204 c 2.69779,-1.53923 4.8163,-2.63159 6.8024,-3.92255 1.9861,-1.29097 3.59153,-1.90335 5.85072,-0.82754 2.38332,1.16683 4.32804,-0.17379 6.12381,-1.72129 5.36247,-4.57631 10.75804,-9.03676 17.22942,-12.13176 2.39987,-1.15029 4.36942,-1.24132 6.69481,0.0579 7.58856,4.23702 15.24332,8.3499 22.88981,12.47933 4.64251,2.48263 5.91692,2.37505 9.9305,-0.99305 5.20524,-4.38597 10.55116,-8.5154 16.68324,-11.58558 a 6.1320847,6.1320847 0 0 1 6.3638,0 c 7.59683,4.22046 15.26814,8.27542 22.90636,12.41313 4.82456,2.61503 6.01622,2.48262 10.22014,-0.9765 5.03973,-4.18736 10.17876,-8.20094 16.05431,-11.25457 a 7.1251348,7.1251348 0 0 1 7.62993,0.17378 c 7.34857,4.13771 14.83783,8.10164 22.27743,12.10694 4.81629,2.59848 6.01623,2.48262 10.22014,-1.09236 5.09766,-4.31149 10.3691,-8.34989 16.37705,-11.40352 a 6.4134489,6.4134489 0 0 1 6.68654,0.091 c 7.58856,4.22874 15.24332,8.34989 22.89808,12.47105 4.64251,2.48263 5.79279,2.36677 9.9305,-1.02615 5.13904,-4.25356 10.34427,-8.383 16.36878,-11.42008 2.48262,-1.24959 4.55148,-1.33234 7.001,0 7.44788,4.18736 15.05299,8.20922 22.58362,12.29727 4.83284,2.62331 6.04933,2.48263 10.22014,-0.98477 4.96525,-4.13771 9.98015,-8.07681 15.72329,-11.08079 2.83847,-1.48957 5.11421,-1.65508 7.95268,0 7.12513,4.07979 14.41578,7.86993 21.64022,11.77592 5.56935,3.01226 6.38862,2.93778 11.10561,-1.01787 5.30454,-4.4439 10.75804,-8.71402 17.32045,-11.58559 0.11585,2.16816 -1.01788,3.88945 -1.82059,5.64384 -3.98048,8.67264 -10.27807,15.39228 -17.80043,21.11059 -1.36544,1.0427 -2.25919,0.67031 -3.47567,0 -4.04668,-2.28402 -8.13474,-4.48528 -12.20625,-6.70309 -4.52665,-2.48262 -5.99967,-2.30884 -9.9305,0.96822 -5.03145,4.20392 -10.15393,8.27542 -16.06258,11.2463 -2.73089,1.39027 -4.92388,1.56405 -7.64649,0 -7.34857,-4.17909 -14.8461,-8.09336 -22.27742,-12.12349 -4.79975,-2.60676 -6.08244,-2.48263 -10.21187,0.9434 -5.12248,4.29494 -10.32772,8.4161 -16.3936,11.39525 a 6.7361902,6.7361902 0 0 1 -7.00928,-0.14896 c -7.26582,-4.0715 -14.65577,-7.93612 -21.97124,-11.93315 -5.44522,-2.9626 -6.47137,-2.91295 -11.08906,1.01787 a 82.307307,82.307307 0 0 1 -15.81432,10.98148 6.9348002,6.9348002 0 0 1 -7.32374,-0.14068 c -7.44788,-4.21219 -15.06127,-8.20094 -22.60845,-12.27244 -4.55975,-2.48263 -5.85072,-2.29229 -9.88912,1.10063 -5.10593,4.30322 -10.36082,8.37472 -16.3936,11.39525 a 6.7279148,6.7279148 0 0 1 -7.02583,-0.10758 c -7.05894,-3.96393 -14.22545,-7.73752 -21.32576,-11.62696 -6.23966,-3.40948 -6.94307,-3.39293 -12.28072,1.11718 a 77.449636,77.449636 0 0 1 -15.90535,10.92355 5.9914026,5.9914026 0 0 1 -6.05761,-0.0745 c -7.6051,-4.20391 -15.27642,-8.27542 -22.90635,-12.4545 -4.86595,-2.65641 -6.21484,-2.55711 -10.49323,1.10063 -5.08111,4.34459 -10.36083,8.39127 -16.42671,11.32077 -1.65508,0.82754 -3.31016,1.5475 -5.08938,0.59583 -8.58161,-4.55976 -17.13012,-9.19399 -26.24963,-14.11786 z"
     id="path16"
     style="fill:#001742;fill-opacity:1;stroke-width:0.82754177"
     inkscape:connector-curvature="0"
     inkscape:export-filename="C:\Users\suitedoalex\sites\agua-santa-logo-4.png"
     inkscape:export-xdpi="80.935349"
     inkscape:export-ydpi="80.935349" />
  <path
     class="cls-3"
     d="m 234.96778,438.61755 c 3.31017,-1.9199 6.17346,-3.57499 9.03676,-5.21352 0.48825,-0.27309 0.9434,-0.62893 1.65508,-0.28136 3.55843,1.80404 6.04106,-0.14068 8.58161,-2.3585 a 78.401309,78.401309 0 0 1 15.47503,-10.83252 c 2.70606,-1.39854 4.8825,-1.57233 7.61339,0 7.33202,4.19564 14.82954,8.10164 22.26915,12.11521 4.86594,2.62331 6.13208,2.48263 10.22014,-0.92684 a 91.029597,91.029597 0 0 1 15.72329,-11.08079 c 2.79709,-1.47302 5.07283,-1.69646 7.9113,-0.0662 7.33202,4.21219 14.82955,8.12646 22.26087,12.14831 4.72527,2.55711 6.10726,2.43298 10.2367,-1.05098 5.19696,-4.38597 10.54288,-8.5154 16.70807,-11.53593 2.15988,-1.05925 3.87289,-1.15856 5.98312,0 7.59684,4.22874 15.26815,8.27542 22.91463,12.41313 5.03146,2.71434 6.25622,2.59848 10.52634,-0.98478 5.10593,-4.30321 10.3691,-8.34162 16.40187,-11.36215 a 6.2727668,6.2727668 0 0 1 6.62034,0.11586 c 7.58028,4.24529 15.25987,8.3168 22.91463,12.41313 4.56803,2.48262 6.00795,2.31711 9.9305,-1.01788 5.27144,-4.49355 10.75805,-8.63954 17.00599,-11.72627 a 5.4700512,5.4700512 0 0 1 5.66866,0.0414 c 7.81199,4.31977 15.72329,8.51541 23.55184,12.74414 4.42735,2.38333 5.87554,2.25919 9.64086,-0.89374 5.21351,-4.36942 10.49323,-8.60644 16.67497,-11.58559 1.65508,-0.82754 2.24263,-0.73651 2.54055,1.14201 1.24131,7.9113 2.02748,15.8226 0.82754,23.83321 -0.30619,2.06885 -1.35717,3.22741 -3.02053,4.42734 -5.16386,3.71567 -9.85602,4.29495 -15.5164,0.43033 -5.86728,-4.00531 -12.47933,-6.91825 -18.77693,-10.3029 -4.59285,-2.48262 -6.0245,-2.38332 -9.9305,0.88547 -5.30454,4.43562 -10.70839,8.70574 -16.98943,11.75937 a 5.9251992,5.9251992 0 0 1 -6.03278,-0.0993 c -7.69614,-4.27839 -15.46676,-8.42437 -23.21255,-12.62001 -4.46045,-2.40814 -6.04933,-2.25919 -9.9305,1.03443 -5.18041,4.40252 -10.55116,8.50713 -16.67497,11.58558 a 6.098983,6.098983 0 0 1 -6.34724,-0.0497 c -7.58856,-4.23701 -15.26815,-8.31679 -22.89809,-12.46278 -4.66733,-2.54055 -6.21483,-2.41642 -10.25324,1.0096 -5.09766,4.32805 -10.35255,8.37473 -16.38533,11.38698 -2.39159,1.19166 -4.30321,1.30751 -6.62033,0 -7.58028,-4.23702 -15.25987,-8.27542 -22.91463,-12.41313 -4.59286,-2.48262 -5.9914,-2.32539 -9.9305,0.93512 -5.13904,4.25357 -10.336,8.39128 -16.37706,11.40353 -2.48262,1.24131 -4.46045,1.42337 -6.95962,0 -7.35685,-4.13771 -14.89575,-8.04371 -22.29398,-12.08211 -5.17213,-2.80537 -6.45482,-2.73916 -10.82424,0.9765 -5.18869,4.40252 -10.57599,8.49885 -16.74945,11.46973 -1.57233,0.76134 -3.07018,1.29924 -4.73354,0.39722 z"
     id="path18"
     style="fill:#001742;fill-opacity:1;stroke-width:0.82754177"
     inkscape:connector-curvature="0"
     inkscape:export-filename="C:\Users\suitedoalex\sites\agua-santa-logo-4.png"
     inkscape:export-xdpi="80.935349"
     inkscape:export-ydpi="80.935349" />
  <path
     class="cls-3"
     d="m 510.67161,489.71825 c -4.71699,2.29229 -9.40088,3.59153 -13.98546,5.13076 -10.15394,3.45085 -20.34098,6.67826 -30.50319,10.07118 a 5.2962675,5.2962675 0 0 1 -4.96525,-0.41377 c -5.47005,-3.31016 -6.57068,-3.15293 -11.32077,0.92685 -5.63556,4.84112 -11.3787,9.40087 -18.89278,11.06423 -1.57233,0.34757 -2.76399,0.53791 -4.3115,-0.33101 -7.36512,-4.13771 -14.83782,-8.09336 -22.26915,-12.11522 -4.87422,-2.63985 -5.99967,-2.56537 -10.17876,1.00133 -4.96525,4.27012 -10.14566,8.27542 -16.06259,11.25457 -2.60675,1.31579 -4.72526,1.4813 -7.31547,0 -7.44787,-4.22046 -15.03643,-8.23404 -22.57534,-12.31382 -4.85767,-2.62331 -5.96657,-2.48263 -10.16221,1.11718 -5.17213,4.41907 -10.52633,8.5485 -16.72462,11.52766 a 5.8920976,5.8920976 0 0 1 -6.01623,-0.0579 c -7.70441,-4.27012 -15.47503,-8.4161 -23.22082,-12.61174 -4.67561,-2.53228 -5.79279,-2.37504 -9.88085,0.95167 -4.33632,3.52533 -8.52368,7.2741 -13.53031,9.93051 a 3.9556498,3.9556498 0 0 1 -3.63291,0.30619 c -10.09601,-3.81497 -20.89543,-5.7928 -30.18044,-11.73455 -1.65509,-1.08408 -3.66601,-1.79576 -5.74314,-0.71168 -0.95995,0.5048 -1.81232,0.0414 -2.73089,-0.22344 -8.3168,-2.43297 -16.27775,-6.01623 -24.82626,-7.65476 a 1.4399227,1.4399227 0 0 1 -1.19166,-1.11718 c -0.14895,-0.60411 0.43033,-0.65376 0.82755,-0.93512 a 90.516521,90.516521 0 0 1 12.84344,-8.34163 6.3306947,6.3306947 0 0 1 6.67827,0.0414 c 7.572,4.25357 15.24332,8.34162 22.88153,12.47933 4.56803,2.48263 6.01623,2.35022 9.9305,-0.93512 5.03145,-4.19564 10.13739,-8.27542 16.00466,-11.30422 2.90467,-1.5144 5.15558,-1.45648 7.95267,0.14896 7.11686,4.08805 14.40751,7.87819 21.62367,11.79247 5.28799,2.86329 6.34725,2.79709 10.8408,-0.95168 5.12248,-4.27839 10.38565,-8.34162 16.38533,-11.3787 a 6.1734618,6.1734618 0 0 1 6.38034,0.0745 c 7.58029,4.22874 15.22677,8.35817 22.86498,12.49588 4.72527,2.55711 6.12381,2.37505 10.24497,-1.03442 5.13903,-4.25357 10.31945,-8.42438 16.36878,-11.4118 2.36677,-1.17511 4.31149,-1.3158 6.66998,0 7.57201,4.26184 15.24332,8.33334 22.88153,12.47105 4.62596,2.48263 5.99141,2.40815 9.93051,-0.89375 5.22178,-4.35287 10.51805,-8.5485 16.64186,-11.63523 a 6.4299997,6.4299997 0 0 1 6.69481,0.091 c 7.58029,4.23701 15.22677,8.37472 22.86498,12.50415 4.55148,2.48263 6.03278,2.27574 9.9305,-1.02615 5.288,-4.46045 10.70012,-8.70574 16.98944,-11.75109 2.02748,-0.9765 3.74876,-1.10063 5.71004,0 3.23568,1.87024 6.4962,3.55843 10.07946,5.50315 z"
     id="path20"
     style="fill:#001742;fill-opacity:1;stroke-width:0.82754177"
     inkscape:connector-curvature="0"
     inkscape:export-filename="C:\Users\suitedoalex\sites\agua-santa-logo-4.png"
     inkscape:export-xdpi="80.935349"
     inkscape:export-ydpi="80.935349" />
  <path
     class="cls-3"
     d="m 291.74542,406.59168 8.79677,-5.00663 c 0.31447,-0.17378 0.69514,-0.49653 0.95995,-0.43032 6.23139,1.71301 9.19399,-3.4343 13.01723,-6.43 a 87.901489,87.901489 0 0 1 12.95103,-8.07681 c 1.99438,-1.05925 3.64119,-0.23171 5.36247,0.70341 q 11.29595,6.14864 22.61672,12.24762 c 4.96525,2.68951 6.29759,2.59021 10.51806,-0.95167 5.12248,-4.30322 10.35255,-8.383 16.41843,-11.36215 a 6.355521,6.355521 0 0 1 6.62033,0.10758 c 7.58028,4.24529 15.26815,8.27542 22.93118,12.41313 4.54321,2.44124 6.00796,2.30884 9.93051,-1.01788 5.18041,-4.41907 10.52633,-8.55678 16.69979,-11.58559 2.27574,-1.1089 4.09633,-1.18338 6.33069,0.0662 7.58856,4.23701 15.27643,8.27541 22.92291,12.41312 4.72526,2.54883 6.22312,2.40815 10.22842,-1.01787 5.07283,-4.35287 10.33599,-8.39955 16.38533,-11.39525 2.38332,-1.18339 4.31149,-1.29097 6.66998,0 7.68787,4.30321 15.52469,8.34162 23.2291,12.62001 3.4343,1.91162 6.3307,2.00265 9.37605,-0.82754 2.76399,-2.60676 5.9583,-4.75837 8.89607,-7.19134 1.50613,-1.24959 2.12679,-0.78617 2.71434,0.87719 2.4247,6.98446 4.5432,14.06821 6.29759,21.22645 a 3.2605147,3.2605147 0 0 1 0.14896,1.73784 c -0.82754,2.24264 -9.38432,5.12248 -11.64351,3.89772 -7.76234,-4.13771 -15.49158,-8.39955 -23.23738,-12.59519 -5.12248,-2.78054 -6.33069,-2.67296 -10.82424,1.12546 a 84.616148,84.616148 0 0 1 -16.42671,11.33732 5.7183138,5.7183138 0 0 1 -5.99968,-0.0496 c -7.69613,-4.28667 -15.47503,-8.42437 -23.22909,-12.60346 -4.63424,-2.48263 -5.9583,-2.35849 -9.9305,0.92685 -5.13904,4.25356 -10.34428,8.37472 -16.35223,11.4449 a 6.8437706,6.8437706 0 0 1 -7.28237,-0.14068 c -7.44787,-4.19564 -15.03643,-8.22577 -22.59189,-12.289 -4.58458,-2.48262 -6.00795,-2.31712 -9.9305,1.03443 -5.26317,4.50183 -10.75804,8.65609 -16.98943,11.75109 a 5.5031529,5.5031529 0 0 1 -5.68522,-0.0662 c -7.80371,-4.32804 -15.72329,-8.51541 -23.56011,-12.74414 -4.42735,-2.38333 -5.79279,-2.28402 -9.62431,0.91857 -5.3873,4.52665 -10.92355,8.83814 -17.3039,11.94142 -1.72129,0.82755 -3.25224,1.17511 -5.04801,0.19034 -7.91957,-4.31149 -15.88052,-8.59816 -24.36283,-13.19929 z"
     id="path22"
     style="fill:#001742;fill-opacity:1;stroke-width:0.82754177"
     inkscape:connector-curvature="0"
     inkscape:export-filename="C:\Users\suitedoalex\sites\agua-santa-logo-4.png"
     inkscape:export-xdpi="80.935349"
     inkscape:export-ydpi="80.935349" />
  <path
     class="cls-3"
     d="m 348.75478,374.2679 c 4.62596,-1.76267 7.8782,-5.7928 13.17446,-5.34592 1.30752,0.11585 2.3254,-1.10064 3.26879,-2.01093 5.55281,-5.3873 12.41313,-8.72229 19.03346,-12.52071 1.69647,-0.9765 2.87157,-0.40549 4.25357,0.33929 q 11.58558,6.32242 23.22082,12.60347 c 4.77492,2.59848 6.09071,2.48262 10.18704,-0.95995 5.18869,-4.39425 10.50978,-8.57334 16.69152,-11.58559 a 6.2479405,6.2479405 0 0 1 6.38035,0.10758 c 7.58856,4.22047 15.23504,8.34162 22.86498,12.48761 4.67561,2.54883 6.19001,2.4247 10.21186,-1.06753 5.14731,-4.46045 10.53461,-8.54023 16.6998,-11.58559 a 5.9417501,5.9417501 0 0 1 6.04105,0 c 7.38995,4.08806 14.89575,7.97751 22.2526,12.12349 3.95565,2.22609 7.65476,3.68256 11.18009,-0.96822 3.4343,7.39822 6.4631,14.46543 9.20226,21.87193 -1.88679,0.71168 -3.08673,-0.4386 -4.33631,-1.10891 -7.64649,-4.13771 -15.30953,-8.21749 -22.88154,-12.47105 -3.5998,-2.01921 -6.54585,-1.77094 -9.69879,1.06752 a 73.105042,73.105042 0 0 1 -16.90667,11.84213 5.7927925,5.7927925 0 0 1 -6.00796,-0.0828 c -7.58028,-4.22873 -15.23504,-8.34162 -22.87325,-12.46278 -5.06456,-2.73916 -6.11554,-2.6564 -10.51806,1.00961 -5.22179,4.34459 -10.52633,8.52368 -16.69979,11.53593 a 5.7927925,5.7927925 0 0 1 -5.99968,-0.11586 c -7.44788,-4.13771 -15.03643,-8.20094 -22.57534,-12.26417 -5.54453,-2.98742 -6.37207,-2.88812 -11.09734,1.09236 -5.10593,4.30322 -10.36909,8.35817 -16.43498,11.29594 -2.0192,0.9765 -3.67428,1.13374 -5.68521,0 -7.17479,-3.98047 -14.42405,-7.82854 -21.63194,-11.74281 a 9.7070652,9.7070652 0 0 1 -1.31579,-1.08408 z"
     id="path24"
     style="fill:#001742;fill-opacity:1;stroke-width:0.82754177"
     inkscape:connector-curvature="0"
     inkscape:export-filename="C:\Users\suitedoalex\sites\agua-santa-logo-4.png"
     inkscape:export-xdpi="80.935349"
     inkscape:export-ydpi="80.935349" />
  <path
     class="cls-3"
     d="m 405.01934,342.41581 c 4.96526,-1.86197 8.10164,-5.49488 12.90138,-5.79279 a 4.5101028,4.5101028 0 0 0 2.48263,-1.32407 c 5.98312,-5.66866 13.68754,-8.5485 20.50648,-12.86 1.61371,-1.01787 2.80537,-0.59583 4.23702,0.19034 7.39822,4.06323 14.8461,8.05198 22.25259,12.09866 5.36248,2.9295 6.35553,2.90467 11.06424,-1.10891 4.90732,-4.17908 9.9305,-8.09336 15.7895,-10.98975 2.48262,-1.23304 4.61768,-1.4813 7.0341,0 2.22609,1.36544 4.477,2.87984 6.92653,3.66601 9.10296,2.9295 13.14964,10.18704 16.29429,18.32177 a 9.2601927,9.2601927 0 0 1 0.20689,1.87025 c -3.26052,-1.76267 -6.14036,-3.31017 -8.9871,-4.86595 -3.17776,-1.76266 -5.94175,-1.53095 -8.79677,0.98478 -5.08939,4.477 -10.4022,8.66436 -16.55084,11.78419 a 7.1499611,7.1499611 0 0 1 -7.63821,-0.14068 c -7.33202,-4.17909 -14.79645,-8.12646 -22.22777,-12.13176 -4.84112,-2.61504 -6.04933,-2.48263 -10.23669,1.0096 -5.20524,4.36114 -10.46013,8.63953 -16.65842,11.58558 -1.96955,0.93513 -3.70739,1.28269 -5.73487,0.15724 -7.25754,-4.03013 -14.58956,-7.96096 -22.86498,-12.45451 z"
     id="path26"
     style="fill:#001742;fill-opacity:1;stroke-width:0.82754177"
     inkscape:connector-curvature="0"
     inkscape:export-filename="C:\Users\suitedoalex\sites\agua-santa-logo-4.png"
     inkscape:export-xdpi="80.935349"
     inkscape:export-ydpi="80.935349" />
  <path
     class="cls-3"
     d="m 307.46872,530.37538 c 6.37207,-5.56108 12.57036,-10.69184 20.00996,-14.13441 2.0523,-0.95168 3.64118,-0.3393 5.36247,0.6041 q 11.43663,6.25622 22.89808,12.4545 c 4.74182,2.56538 6.02451,2.44125 10.22842,-1.05925 5.31282,-4.43562 10.69184,-8.75539 17.01426,-11.73454 1.59715,-0.74479 3.0619,-1.19166 4.73354,-0.27309 5.61073,3.0619 11.24629,6.09898 17.51078,9.4919 -2.97915,1.15029 -5.34592,2.08541 -7.73752,2.97915 -11.48628,4.2784 -23.02221,8.44093 -33.87956,14.20062 a 3.1694851,3.1694851 0 0 1 -3.5667,0 c -4.01358,-2.33367 -8.15129,-4.43562 -12.16487,-6.76101 -3.44257,-1.9861 -6.62033,-2.03576 -9.31812,1.08408 -3.22741,3.74048 -6.33069,4.1377 -10.89045,1.65508 -6.28104,-3.34327 -13.12481,-5.59418 -20.20029,-8.50713 z"
     id="path28"
     style="fill:#001742;fill-opacity:1;stroke-width:0.82754177"
     inkscape:connector-curvature="0"
     inkscape:export-filename="C:\Users\suitedoalex\sites\agua-santa-logo-4.png"
     inkscape:export-xdpi="80.935349"
     inkscape:export-ydpi="80.935349" />
  <path
     class="cls-3"
     d="m 462.03697,310.572 c 13.38963,-7.54718 26.20825,-14.75507 39.00205,-22.01261 1.35717,-0.77789 1.81232,-0.49652 2.11023,0.98478 a 117.7261,117.7261 0 0 0 5.05628,17.37837 c 0.51308,1.37372 0.23171,2.08541 -0.82754,2.98743 -5.59418,4.61768 -11.11389,9.31812 -17.7756,12.41313 -1.83714,0.82754 -3.4674,1.27441 -5.3873,0.20688 -7.19961,-3.90599 -14.41577,-7.76234 -22.17812,-11.95798 z"
     id="path30"
     style="fill:#001742;fill-opacity:1;stroke-width:0.82754177"
     inkscape:connector-curvature="0"
     inkscape:export-filename="C:\Users\suitedoalex\sites\agua-santa-logo-4.png"
     inkscape:export-xdpi="80.935349"
     inkscape:export-ydpi="80.935349" />
  <path
     class="cls-3"
     d="m 285.30715,522.23237 -14.3413,-5.18041 0.34757,-0.96823 c 5.81762,-1.23303 9.38432,3.93083 13.99373,6.14864 z"
     id="path32"
     inkscape:connector-curvature="0"
     style="fill:#19151f;stroke-width:0.82754177"
     inkscape:export-filename="C:\Users\suitedoalex\sites\agua-santa-logo-4.png"
     inkscape:export-xdpi="80.935349"
     inkscape:export-ydpi="80.935349" />
  <path
     class="cls-1"
     d="m 270.5107,210.79529 a 38.406215,38.406215 0 1 1 -38.39794,38.51379 38.464143,38.464143 0 0 1 38.39794,-38.51379 z m -21.44988,16.55084 c -0.82754,-0.31447 -1.26614,-1.42338 -2.48263,-1.10064 -3.14466,0.82755 -6.21484,1.80405 -7.9444,4.90733 a 36.279432,36.279432 0 0 0 -4.51838,14.19234 c -0.52135,5.34592 4.31977,9.69879 9.21882,8.40782 -0.82754,1.26614 -2.68951,1.32407 -3.01225,3.23569 -0.95995,5.56108 1.82059,12.22279 6.54585,15.26815 1.47303,0.95167 2.88812,2.00265 4.33632,3.01225 -3.74049,-0.19861 -5.79279,-4.27839 -9.79809,-4.48528 3.62463,6.42173 13.95235,13.30688 19.861,13.44756 -2.79709,-3.61636 -7.10858,-5.58591 -10.12911,-9.02021 2.78881,1.90335 5.56108,2.91295 8.54851,0.26482 a 37.239381,37.239381 0 0 1 3.80669,-2.61504 c 0.92684,-0.62893 1.65508,-1.37372 1.40682,-2.63158 -1.29097,-6.62033 -1.13373,-13.61306 -9.03676,-17.37838 -4.13771,-2.01092 -7.08376,-3.43429 -10.68356,0.10758 a 6.5127539,6.5127539 0 0 1 -1.90335,0.89375 c 0.55445,-1.96127 2.64813,-2.06886 3.88945,-3.21086 1.09235,-1.01788 2.88812,-1.36545 3.21086,-3.08673 0.92685,-4.85767 2.48263,-9.58294 2.90467,-14.53164 6.91825,-1.52267 15.30952,1.59716 20.19202,-6.3969 0.0579,-0.10758 0.42205,0 0.63721,0 -3.13638,3.4674 -3.71566,6.71137 -2.12678,11.68489 2.25091,7.05894 6.62033,9.54156 13.09171,11.2132 3.90599,1.00132 6.19829,0.26481 8.72229,-2.35022 4.84939,-5.02318 5.22179,-6.62034 2.5902,-13.24067 -0.38067,-0.95995 -1.19166,-1.82887 -0.87719,-3.00398 a 6.0327797,6.0327797 0 0 1 2.20126,4.28667 c 0.56273,4.51838 3.06191,7.68786 6.38035,10.45185 0.61238,0.5048 0.95167,1.48958 1.9861,1.03443 1.03443,-0.45515 1.00132,-1.21649 0.88547,-2.10196 a 36.105648,36.105648 0 0 0 -11.58559,-22.34363 12.802072,12.802072 0 0 0 -1.99437,5.859 17.154941,17.154941 0 0 0 -6.3307,-3.71566 c -3.62463,-1.08408 -7.29892,-3.04536 -10.88217,0.1324 1.73784,-2.23436 0.71168,-3.95565 -0.67031,-6.00795 -1.97783,-2.90467 -4.27012,-4.22874 -7.77889,-3.40947 a 15.15229,15.15229 0 0 1 -4.96525,0.52962 c -6.13209,-0.65375 -9.67397,2.93778 -12.95931,7.29892 a 4.4770011,4.4770011 0 0 0 -0.73651,4.41908 z m 40.74816,41.50949 c 0.10758,-1.86197 2.34194,-2.35849 2.48262,-4.46872 0.59583,-8.71402 -2.15988,-12.58691 -10.4353,-15.22677 -4.39425,-1.40682 -7.33202,-0.54618 -11.21319,2.19298 -6.3307,4.477 -7.77889,9.44225 -5.37902,16.31085 0.49652,1.42337 0.23998,3.26052 1.6137,4.19564 a 27.135095,27.135095 0 0 0 11.33733,4.06323 c 2.54055,0.38067 3.6329,-1.96955 5.46177,-2.9295 0.59583,-0.31447 1.06753,-0.98477 1.89507,-0.61238 -5.42867,2.524 -5.74314,8.66436 -8.54023,12.71104 10.41875,-0.58755 21.45816,-9.9305 25.74483,-18.20592 0.82754,-1.58888 0.19033,-2.40814 -1.47303,-2.01092 -3.9391,0.95167 -8.32507,0.75306 -11.49455,3.99702 z m -17.09702,-55.89217 c -4.80801,-0.62066 -9.45052,-0.22344 -13.78684,2.00265 4.68388,-0.4386 9.36777,-0.15723 13.78684,-2.00265 z"
     id="path34"
     style="fill:#e8ab26;fill-opacity:1;stroke-width:0.82754177"
     inkscape:connector-curvature="0"
     inkscape:export-filename="C:\Users\suitedoalex\sites\agua-santa-logo-4.png"
     inkscape:export-xdpi="80.935349"
     inkscape:export-ydpi="80.935349" />
  <path
     class="cls-2"
     d="m 285.59679,272.38095 c -0.82754,-0.37239 -1.29924,0.29791 -1.89507,0.61238 -1.82887,0.95995 -2.92122,3.31017 -5.46178,2.9295 a 27.135095,27.135095 0 0 1 -11.33732,-4.06323 c -1.37372,-0.93512 -1.11718,-2.77227 -1.61371,-4.19564 -2.42469,-6.87687 -0.9765,-11.83385 5.36247,-16.2943 3.88117,-2.73916 6.81895,-3.5998 11.2132,-2.19298 8.27541,2.63986 11.03113,6.51275 10.4353,15.22677 -0.14896,2.11023 -2.38332,2.60675 -2.48263,4.46872 l 0.0662,-0.0745 c -0.58756,-0.0579 -0.95995,0.0828 -0.77789,0.82755 l 0.0662,-0.0579 a 3.9142727,3.9142727 0 0 0 -3.64946,2.92122 z"
     id="path62"
     inkscape:connector-curvature="0"
     style="fill:#f9f8f7;stroke-width:0.82754177"
     inkscape:export-filename="C:\Users\suitedoalex\sites\agua-santa-logo-4.png"
     inkscape:export-xdpi="80.935349"
     inkscape:export-ydpi="80.935349" />
  <path
     class="cls-2"
     d="m 295.52729,230.84663 c -0.31447,1.17511 0.49653,2.04403 0.87719,3.00397 2.63159,6.62034 2.25919,8.27542 -2.5902,13.24067 -2.524,2.61503 -4.81629,3.35155 -8.72229,2.35022 -6.51276,-1.65508 -10.8408,-4.13771 -13.09171,-11.21319 -1.58888,-4.96525 -1.0096,-8.21749 2.12678,-11.68489 l -0.0662,0.0662 0.82754,-0.78616 -0.0662,0.0662 0.77789,-0.77789 -0.0662,0.0662 0.78617,-0.78617 -0.0579,0.0662 c 3.58325,-3.17776 7.25754,-1.21648 10.88217,-0.1324 a 17.154941,17.154941 0 0 1 6.3307,3.71566 l -0.0579,-0.0662 a 3.426023,3.426023 0 0 0 1.48957,2.21781 l -0.0579,-0.0745 c 0.0745,0.44687 0.1324,0.91857 0.82754,0.76961 z"
     id="path64"
     inkscape:connector-curvature="0"
     style="fill:#f9f8f7;stroke-width:0.82754177"
     inkscape:export-filename="C:\Users\suitedoalex\sites\agua-santa-logo-4.png"
     inkscape:export-xdpi="80.935349"
     inkscape:export-ydpi="80.935349" />
  <path
     class="cls-2"
     d="m 251.19588,275.28562 c -1.4482,-1.0096 -2.8633,-2.06058 -4.33632,-3.01225 -4.72527,-3.04535 -7.50581,-9.70707 -6.54586,-15.26815 0.32274,-1.91162 2.21781,-1.96955 3.01225,-3.23569 l -0.0579,0.0662 a 6.5127539,6.5127539 0 0 0 1.90334,-0.89375 c 3.59981,-3.54188 6.50448,-2.1185 10.68357,-0.10758 7.90302,3.79842 7.74579,10.75805 9.03675,17.37838 0.24827,1.25786 -0.47997,2.00265 -1.40682,2.63158 a 37.239381,37.239381 0 0 0 -3.80669,2.61504 c -2.98743,2.64813 -5.79279,1.65508 -8.54851,-0.26482 z"
     id="path66"
     inkscape:connector-curvature="0"
     style="fill:#f9f8f7;stroke-width:0.82754177"
     inkscape:export-filename="C:\Users\suitedoalex\sites\agua-santa-logo-4.png"
     inkscape:export-xdpi="80.935349"
     inkscape:export-ydpi="80.935349" />
  <path
     class="cls-2"
     d="m 253.29783,233.00651 c -0.42204,4.96525 -1.97782,9.67396 -2.90467,14.53164 -0.32274,1.72128 -2.11851,2.06885 -3.21086,3.08673 -1.24131,1.142 -3.31017,1.24958 -3.88945,3.21086 l 0.0579,-0.0662 c -4.89905,1.29097 -9.74017,-3.0619 -9.21882,-8.40782 a 36.279432,36.279432 0 0 1 4.51838,-14.19234 c 1.72956,-3.10328 4.79975,-4.04668 7.9444,-4.90732 1.19994,-0.32275 1.65509,0.78616 2.48263,1.10063 l -0.0579,-0.0745 c 0.19034,0.82754 0.31447,1.65508 1.50613,1.4813 l -0.0579,-0.0662 c -0.24826,1.23304 0.13241,2.05231 1.48957,2.21782 l -0.0579,-0.0662 a 1.762664,1.762664 0 0 0 1.4813,2.21781 z"
     id="path68"
     inkscape:connector-curvature="0"
     style="fill:#f9f8f7;stroke-width:0.82754177"
     inkscape:export-filename="C:\Users\suitedoalex\sites\agua-santa-logo-4.png"
     inkscape:export-xdpi="80.935349"
     inkscape:export-ydpi="80.935349" />
  <path
     class="cls-2"
     d="m 274.12706,226.57651 c -0.21516,0 -0.57928,-0.0745 -0.63721,0 -4.88249,7.99406 -13.24067,4.87422 -20.19202,6.3969 l 0.0662,0.0662 a 2.8136421,2.8136421 0 0 0 -1.4813,-2.21781 l 0.0579,0.0662 a 3.3763705,3.3763705 0 0 0 -1.48957,-2.21781 l 0.0579,0.0662 c -0.28964,-0.71169 -0.38895,-1.65509 -1.50613,-1.4813 l 0.0579,0.0745 a 4.4770011,4.4770011 0 0 1 0.82754,-4.46045 c 3.31017,-4.36114 6.82722,-7.95267 12.9593,-7.29891 a 15.15229,15.15229 0 0 0 4.96526,-0.52963 c 3.50877,-0.82754 5.79279,0.5048 7.77889,3.40947 1.38199,2.0523 2.40814,3.77359 0.67031,6.00795 l 0.0579,-0.0662 c -0.68686,-0.15723 -0.95995,0.0828 -0.78617,0.78617 l 0.0662,-0.0662 c -0.70341,-0.18206 -0.95994,0.0745 -0.77789,0.77789 l 0.0662,-0.0662 c -0.72824,-0.19861 -0.88547,0.16551 -0.82754,0.78616 z"
     id="path70"
     inkscape:connector-curvature="0"
     style="fill:#f9f8f7;stroke-width:0.82754177"
     inkscape:export-filename="C:\Users\suitedoalex\sites\agua-santa-logo-4.png"
     inkscape:export-xdpi="80.935349"
     inkscape:export-ydpi="80.935349" />
  <path
     class="cls-2"
     d="m 289.80898,268.87217 c 3.16948,-3.24396 7.55545,-3.04535 11.51938,-3.99702 1.65508,-0.39722 2.30056,0.42204 1.47302,2.01092 -4.28666,8.27542 -15.32607,17.61837 -25.74482,18.20592 2.79709,-4.04668 3.11155,-10.18704 8.54023,-12.71104 l -0.0828,0.0662 a 10.029807,10.029807 0 0 0 3.64946,-2.92122 l -0.0662,0.0579 0.77789,-0.82754 z"
     id="path72"
     inkscape:connector-curvature="0"
     style="fill:#f9f8f7;stroke-width:0.82754177"
     inkscape:export-filename="C:\Users\suitedoalex\sites\agua-santa-logo-4.png"
     inkscape:export-xdpi="80.935349"
     inkscape:export-ydpi="80.935349" />
  <path
     class="cls-2"
     d="m 293.40051,228.07436 a 12.802072,12.802072 0 0 1 1.99437,-5.85899 36.105648,36.105648 0 0 1 11.58559,22.34362 c 0.11585,0.88547 0,1.71302 -0.88547,2.10196 -0.88547,0.38895 -1.37372,-0.52963 -1.9861,-1.03443 -3.31017,-2.76399 -5.79279,-5.93347 -6.38035,-10.45185 a 6.0327797,6.0327797 0 0 0 -2.20126,-4.28667 l 0.0662,0.0745 c -0.0496,-0.4717 -0.0496,-0.99305 -0.82754,-0.76961 l 0.0579,0.0745 c 0.13241,-1.16684 -0.0828,-2.09368 -1.48958,-2.21781 z"
     id="path74"
     inkscape:connector-curvature="0"
     style="fill:#f9f8f7;stroke-width:0.82754177"
     inkscape:export-filename="C:\Users\suitedoalex\sites\agua-santa-logo-4.png"
     inkscape:export-xdpi="80.935349"
     inkscape:export-ydpi="80.935349" />
  <path
     class="cls-2"
     d="m 251.19588,275.22769 c 3.02052,3.4343 7.33202,5.40385 10.12911,9.02021 -5.90865,-0.14068 -16.23637,-7.02583 -19.86101,-13.44755 4.00531,0.20688 6.05761,4.28666 9.7981,4.48527 z"
     id="path76"
     inkscape:connector-curvature="0"
     style="fill:#f9f8f7;stroke-width:0.82754177"
     inkscape:export-filename="C:\Users\suitedoalex\sites\agua-santa-logo-4.png"
     inkscape:export-xdpi="80.935349"
     inkscape:export-ydpi="80.935349" />
  <path
     class="cls-2"
     d="m 272.71196,212.96345 c -4.42735,1.84542 -9.15261,1.56405 -13.78684,2.00265 4.34459,-2.22609 8.9871,-2.62331 13.78684,-2.00265 z"
     id="path78"
     inkscape:connector-curvature="0"
     style="fill:#f9f8f7;stroke-width:0.82754177"
     inkscape:export-filename="C:\Users\suitedoalex\sites\agua-santa-logo-4.png"
     inkscape:export-xdpi="80.935349"
     inkscape:export-ydpi="80.935349" />
  <path
     class="cls-1"
     d="m 387.8644,298.25818 a 52.706137,52.706137 0 0 0 4.62596,4.27012 c 2.73917,1.953 1.93645,3.00397 -0.59583,4.28666 -1.60543,0.82755 -2.06058,0.38895 -2.37504,-1.10063 -0.45515,-2.18471 -0.95168,-4.36942 -1.65509,-7.45615 z"
     id="path80"
     inkscape:connector-curvature="0"
     style="fill:#f9af1b;stroke-width:0.82754177"
     inkscape:export-filename="C:\Users\suitedoalex\sites\agua-santa-logo-4.png"
     inkscape:export-xdpi="80.935349"
     inkscape:export-ydpi="80.935349" />
  <path
     class="cls-1"
     d="m 329.40685,341.81171 c -0.70341,-2.95433 -1.35717,-5.67694 -2.04403,-8.57334 1.72129,0.3393 2.41642,1.65509 3.4012,2.57366 3.81497,3.49222 3.79014,3.51705 -1.35717,5.99968 z"
     id="path84"
     inkscape:connector-curvature="0"
     style="fill:#f9af1b;stroke-width:0.82754177"
     inkscape:export-filename="C:\Users\suitedoalex\sites\agua-santa-logo-4.png"
     inkscape:export-xdpi="80.935349"
     inkscape:export-ydpi="80.935349" />
  <path
     class="cls-1"
     d="m 462.93072,256.0039 6.98445,6.55413 c -4.70044,3.44257 -4.70044,3.44257 -5.91692,-1.65508 -0.29792,-1.26614 -0.55445,-2.54056 -1.06753,-4.89905 z"
     id="path86"
     inkscape:connector-curvature="0"
     style="fill:#f9af1b;stroke-width:0.82754177"
     inkscape:export-filename="C:\Users\suitedoalex\sites\agua-santa-logo-4.png"
     inkscape:export-xdpi="80.935349"
     inkscape:export-ydpi="80.935349" />
  <path
     class="cls-1"
     d="m 289.16349,269.52593 a 10.029807,10.029807 0 0 1 -3.64946,2.92122 3.9142727,3.9142727 0 0 1 3.64946,-2.92122 z"
     id="path88"
     inkscape:connector-curvature="0"
     style="fill:#f9af1b;stroke-width:0.82754177"
     inkscape:export-filename="C:\Users\suitedoalex\sites\agua-santa-logo-4.png"
     inkscape:export-xdpi="80.935349"
     inkscape:export-ydpi="80.935349" />
  <path
     class="cls-1"
     d="m 289.87518,268.79769 -0.77789,0.82755 c -0.18206,-0.74479 0.16551,-0.88547 0.77789,-0.82755 z"
     id="path90"
     inkscape:connector-curvature="0"
     style="fill:#f9af1b;stroke-width:0.82754177"
     inkscape:export-filename="C:\Users\suitedoalex\sites\agua-santa-logo-4.png"
     inkscape:export-xdpi="80.935349"
     inkscape:export-ydpi="80.935349" />
  <path
     class="cls-1"
     d="m 293.40051,228.00816 c 1.40682,0.12413 1.65508,1.05098 1.48957,2.21781 a 3.426023,3.426023 0 0 1 -1.48957,-2.21781 z"
     id="path92"
     inkscape:connector-curvature="0"
     style="fill:#f9af1b;stroke-width:0.82754177"
     inkscape:export-filename="C:\Users\suitedoalex\sites\agua-santa-logo-4.png"
     inkscape:export-xdpi="80.935349"
     inkscape:export-ydpi="80.935349" />
  <path
     class="cls-1"
     d="m 275.4925,225.21107 c -0.17378,-0.70341 0.0993,-0.9434 0.78617,-0.78617 z"
     id="path94"
     inkscape:connector-curvature="0"
     style="fill:#f9af1b;stroke-width:0.82754177"
     inkscape:export-filename="C:\Users\suitedoalex\sites\agua-santa-logo-4.png"
     inkscape:export-xdpi="80.935349"
     inkscape:export-ydpi="80.935349" />
  <path
     class="cls-1"
     d="m 274.06086,226.64272 c -0.0993,-0.62066 0.0579,-0.98478 0.82754,-0.78617 z"
     id="path96"
     inkscape:connector-curvature="0"
     style="fill:#f9af1b;stroke-width:0.82754177"
     inkscape:export-filename="C:\Users\suitedoalex\sites\agua-santa-logo-4.png"
     inkscape:export-xdpi="80.935349"
     inkscape:export-ydpi="80.935349" />
  <path
     class="cls-1"
     d="m 274.78082,225.92275 c -0.18206,-0.70341 0.0745,-0.95994 0.77789,-0.77789 z"
     id="path98"
     inkscape:connector-curvature="0"
     style="fill:#f9af1b;stroke-width:0.82754177"
     inkscape:export-filename="C:\Users\suitedoalex\sites\agua-santa-logo-4.png"
     inkscape:export-xdpi="80.935349"
     inkscape:export-ydpi="80.935349" />
  <path
     class="cls-1"
     d="m 294.80733,230.17632 c 0.73651,-0.22344 0.73651,0.29791 0.82754,0.76961 -0.69513,0.12413 -0.75306,-0.34757 -0.82754,-0.76961 z"
     id="path100"
     inkscape:connector-curvature="0"
     style="fill:#f9af1b;stroke-width:0.82754177"
     inkscape:export-filename="C:\Users\suitedoalex\sites\agua-santa-logo-4.png"
     inkscape:export-xdpi="80.935349"
     inkscape:export-ydpi="80.935349" />
  <path
     class="cls-1"
     d="m 250.45109,228.70329 a 3.3763705,3.3763705 0 0 1 1.48957,2.21782 c -1.35716,-0.16551 -1.73783,-0.98478 -1.48957,-2.21782 z"
     id="path102"
     inkscape:connector-curvature="0"
     style="fill:#f9af1b;stroke-width:0.82754177"
     inkscape:export-filename="C:\Users\suitedoalex\sites\agua-santa-logo-4.png"
     inkscape:export-xdpi="80.935349"
     inkscape:export-ydpi="80.935349" />
  <path
     class="cls-1"
     d="m 251.88274,230.8549 a 2.8136421,2.8136421 0 0 1 1.4813,2.21781 1.762664,1.762664 0 0 1 -1.4813,-2.21781 z"
     id="path104"
     inkscape:connector-curvature="0"
     style="fill:#f9af1b;stroke-width:0.82754177"
     inkscape:export-filename="C:\Users\suitedoalex\sites\agua-santa-logo-4.png"
     inkscape:export-xdpi="80.935349"
     inkscape:export-ydpi="80.935349" />
  <path
     class="cls-1"
     d="m 249.00289,227.2882 c 1.11718,-0.13241 1.21649,0.76961 1.50613,1.4813 -1.19166,0.20688 -1.31579,-0.67031 -1.50613,-1.4813 z"
     id="path106"
     inkscape:connector-curvature="0"
     style="fill:#f9af1b;stroke-width:0.82754177"
     inkscape:export-filename="C:\Users\suitedoalex\sites\agua-santa-logo-4.png"
     inkscape:export-xdpi="80.935349"
     inkscape:export-ydpi="80.935349" />
  <g
     aria-label="E.C GUA SANTA"
     transform="matrix(0.72364015,-0.40146027,0.40146027,0.72364015,101.41081,101.0798)"
     style="font-style:normal;font-variant:normal;font-weight:bold;font-stretch:normal;font-size:45.70126343px;line-height:11.90137196px;font-family:Arial;-inkscape-font-specification:'Arial Bold';letter-spacing:0px;word-spacing:0px;fill:#0d132d;fill-opacity:1;stroke:none;stroke-width:0.47605479"
     id="text4612-3"
     inkscape:export-filename="C:\Users\suitedoalex\sites\agua-santa-logo-4.png"
     inkscape:export-xdpi="80.935349"
     inkscape:export-ydpi="80.935349">
    <path
       d="m -120.02643,366.93821 h 27.090499 v 6.98461 h -16.959449 v 5.19942 h 15.73212 v 6.6722 h -15.73212 v 6.44906 H -92.445 v 7.4086 h -27.58143 z"
       style="font-style:normal;font-variant:normal;font-weight:900;font-stretch:normal;font-family:Arial;-inkscape-font-specification:'Arial Heavy';fill:#0d132d;fill-opacity:1;stroke-width:0.47605479"
       id="path4632"
       inkscape:connector-curvature="0" />
    <path
       d="m -87.558001,390.54755 h 9.707056 v 9.10455 h -9.707056 z"
       style="font-style:normal;font-variant:normal;font-weight:900;font-stretch:normal;font-family:Arial;-inkscape-font-specification:'Arial Heavy';fill:#0d132d;fill-opacity:1;stroke-width:0.47605479"
       id="path4634"
       inkscape:connector-curvature="0" />
    <path
       d="m -49.934793,386.28537 8.859083,2.67781 q -0.892603,3.72662 -2.811699,6.22591 -1.919096,2.49928 -4.775425,3.77124 -2.834014,1.27196 -7.230082,1.27196 -5.333302,0 -8.725193,-1.53974 -3.369575,-1.56205 -5.824233,-5.46719 -2.454658,-3.90514 -2.454658,-9.99715 0,-8.12269 4.306809,-12.47413 4.329123,-4.37375 12.228658,-4.37375 6.181275,0 9.707056,2.49929 3.548096,2.49929 5.266356,7.67638 l -8.926028,1.98604 q -0.468616,-1.49511 -0.981863,-2.18687 -0.847973,-1.16039 -2.075302,-1.78521 -1.227328,-0.62482 -2.744753,-0.62482 -3.436521,0 -5.266357,2.76707 -1.383534,2.05298 -1.383534,6.44905 0,5.44488 1.651315,7.47555 1.651315,2.00836 4.641535,2.00836 2.900959,0 4.373753,-1.629 1.49511,-1.629 2.164562,-4.7308 z"
       style="font-style:normal;font-variant:normal;font-weight:900;font-stretch:normal;font-family:Arial;-inkscape-font-specification:'Arial Heavy';fill:#0d132d;fill-opacity:1;stroke-width:0.47605479"
       id="path4636"
       inkscape:connector-curvature="0" />
    <path
       d="M -0.79700726,394.25185 H -12.311583 l -1.58437,5.40025 h -10.331878 l 12.295604,-32.71389 H -0.90858261 L 11.387021,399.6521 H 0.80967778 Z m -2.11993164,-7.07387 -3.6150414,-11.76005 -3.5927267,11.76005 z m -3.7935619,-28.89802 h 7.8102745 l -7.2077676,6.67221 h -4.3514391 z"
       style="font-style:normal;font-variant:normal;font-weight:900;font-stretch:normal;font-family:Arial;-inkscape-font-specification:'Arial Heavy';fill:#0d132d;fill-opacity:1;stroke-width:0.47605479"
       id="path4638"
       inkscape:connector-curvature="0" />
    <path
       d="m 31.046603,387.8028 v -6.8061 h 15.620549 v 13.94692 q -4.485329,3.05716 -7.944165,4.17292 -3.436521,1.09344 -8.167316,1.09344 -5.824233,0 -9.50622,-1.98604 -3.659671,-1.98605 -5.690342,-5.9135 -2.008357,-3.92745 -2.008357,-9.01529 0,-5.35561 2.209192,-9.30538 2.209192,-3.97208 6.471371,-6.02507 3.324945,-1.58437 8.948343,-1.58437 5.422562,0 8.10037,0.98186 2.700123,0.98187 4.463014,3.05717 1.785206,2.05298 2.677808,5.22172 l -9.751685,1.74058 q -0.602507,-1.85215 -2.052987,-2.83401 -1.428164,-0.98187 -3.659671,-0.98187 -3.324946,0 -5.310987,2.32077 -1.963726,2.29845 -1.963726,7.29703 0,5.31098 1.986041,7.58712 2.008357,2.27614 5.578768,2.27614 1.695945,0 3.235685,-0.49093 1.53974,-0.49093 3.525781,-1.67363 v -3.07948 z"
       style="font-style:normal;font-variant:normal;font-weight:900;font-stretch:normal;font-family:Arial;-inkscape-font-specification:'Arial Heavy';fill:#0d132d;fill-opacity:1;stroke-width:0.47605479"
       id="path4640"
       inkscape:connector-curvature="0" />
    <path
       d="M 74.003109,366.93821 H 84.08952 v 19.50337 q 0,2.90096 -0.914917,5.48951 -0.892603,2.56623 -2.834014,4.50764 -1.919096,1.9191 -4.039028,2.70012 -2.945589,1.09344 -7.073877,1.09344 -2.387713,0 -5.221727,-0.33472 -2.811698,-0.33473 -4.708479,-1.31659 -1.896781,-1.00418 -3.481151,-2.83402 -1.562055,-1.82983 -2.142247,-3.77124 -0.937233,-3.12411 -0.937233,-5.53414 v -19.50337 h 10.086412 v 19.97198 q 0,2.67781 1.472794,4.19524 1.49511,1.49511 4.128288,1.49511 2.610863,0 4.083658,-1.4728 1.49511,-1.49511 1.49511,-4.21755 z"
       style="font-style:normal;font-variant:normal;font-weight:900;font-stretch:normal;font-family:Arial;-inkscape-font-specification:'Arial Heavy';fill:#0d132d;fill-opacity:1;stroke-width:0.47605479"
       id="path4642"
       inkscape:connector-curvature="0" />
    <path
       d="M 109.43944,394.25185 H 97.924859 l -1.58437,5.40025 H 86.008612 l 12.295603,-32.71389 h 11.023645 l 12.2956,32.71389 h -10.57734 z m -2.11994,-7.07387 -3.61504,-11.76005 -3.59272,11.76005 z"
       style="font-style:normal;font-variant:normal;font-weight:900;font-stretch:normal;font-family:Arial;-inkscape-font-specification:'Arial Heavy';fill:#0d132d;fill-opacity:1;stroke-width:0.47605479"
       id="path4644"
       inkscape:connector-curvature="0" />
    <path
       d="m 138.33746,388.82929 9.6178,-0.60251 q 0.31241,2.34309 1.27195,3.57041 1.56206,1.98605 4.46302,1.98605 2.16456,0 3.32494,-1.00418 1.1827,-1.0265 1.1827,-2.3654 0,-1.27196 -1.11575,-2.27614 -1.11575,-1.00417 -5.1771,-1.89678 -6.64989,-1.49511 -9.4839,-3.97208 -2.85633,-2.47697 -2.85633,-6.31516 0,-2.52161 1.45048,-4.75311 1.47279,-2.25383 4.39607,-3.52579 2.94559,-1.29427 8.05574,-1.29427 6.27053,0 9.55085,2.34308 3.30263,2.32077 3.92745,7.40861 l -9.52854,0.55787 q -0.37935,-2.20919 -1.60668,-3.21337 -1.20501,-1.00418 -3.34726,-1.00418 -1.76289,0 -2.65549,0.75872 -0.89261,0.73639 -0.89261,1.80752 0,0.78102 0.7364,1.40585 0.71408,0.64713 3.39189,1.20501 6.62758,1.42817 9.48391,2.90096 2.87864,1.45048 4.17291,3.61504 1.31659,2.16456 1.31659,4.84237 0,3.14643 -1.74057,5.80192 -1.74058,2.65549 -4.86469,4.03903 -3.12411,1.36122 -7.87722,1.36122 -8.34583,0 -11.5592,-3.21337 -3.21337,-3.21337 -3.63736,-8.16732 z"
       style="font-style:normal;font-variant:normal;font-weight:900;font-stretch:normal;font-family:Arial;-inkscape-font-specification:'Arial Heavy';fill:#0d132d;fill-opacity:1;stroke-width:0.47605479"
       id="path4646"
       inkscape:connector-curvature="0" />
    <path
       d="m 193.25485,394.25185 h -11.51458 l -1.58437,5.40025 h -10.33187 l 12.2956,-32.71389 h 11.02364 l 12.29561,32.71389 h -10.57735 z m -2.11993,-7.07387 -3.61504,-11.76005 -3.59273,11.76005 z"
       style="font-style:normal;font-variant:normal;font-weight:900;font-stretch:normal;font-family:Arial;-inkscape-font-specification:'Arial Heavy';fill:#0d132d;fill-opacity:1;stroke-width:0.47605479"
       id="path4648"
       inkscape:connector-curvature="0" />
    <path
       d="m 208.71918,366.93821 h 9.43927 l 12.31792,18.09752 v -18.09752 h 9.52853 v 32.71389 h -9.52853 L 218.2254,381.68847 v 17.96363 h -9.50622 z"
       style="font-style:normal;font-variant:normal;font-weight:900;font-stretch:normal;font-family:Arial;-inkscape-font-specification:'Arial Heavy';fill:#0d132d;fill-opacity:1;stroke-width:0.47605479"
       id="path4650"
       inkscape:connector-curvature="0" />
    <path
       d="m 244.46794,366.93821 h 30.72786 v 8.07805 h -10.30957 v 24.63584 h -10.10872 v -24.63584 h -10.30957 z"
       style="font-style:normal;font-variant:normal;font-weight:900;font-stretch:normal;font-family:Arial;-inkscape-font-specification:'Arial Heavy';fill:#0d132d;fill-opacity:1;stroke-width:0.47605479"
       id="path4652"
       inkscape:connector-curvature="0" />
    <path
       d="M 296.79678,394.25185 H 285.2822 l -1.58437,5.40025 h -10.33187 l 12.2956,-32.71389 h 11.02365 l 12.2956,32.71389 h -10.57734 z m -2.11993,-7.07387 -3.61504,-11.76005 -3.59273,11.76005 z"
       style="font-style:normal;font-variant:normal;font-weight:900;font-stretch:normal;font-family:Arial;-inkscape-font-specification:'Arial Heavy';fill:#0d132d;fill-opacity:1;stroke-width:0.47605479"
       id="path4654"
       inkscape:connector-curvature="0" />
  </g>
</svg>
