<?xml version="1.0" encoding="UTF-8" standalone="no"?>
<!-- Generator: Adobe Illustrator 23.0.2, SVG Export Plug-In . SVG Version: 6.00 Build 0)  -->

<svg
   xmlns:dc="http://purl.org/dc/elements/1.1/"
   xmlns:cc="http://creativecommons.org/ns#"
   xmlns:rdf="http://www.w3.org/1999/02/22-rdf-syntax-ns#"
   xmlns:svg="http://www.w3.org/2000/svg"
   xmlns="http://www.w3.org/2000/svg"
   xmlns:sodipodi="http://sodipodi.sourceforge.net/DTD/sodipodi-0.dtd"
   xmlns:inkscape="http://www.inkscape.org/namespaces/inkscape"
   version="1.1"
   id="Layer_1"
   x="0px"
   y="0px"
   viewBox="0 0 700 700"
   style="enable-background:new 0 0 700 700;"
   xml:space="preserve"
   sodipodi:docname="ec-santo-andre-logo.svg"
   inkscape:version="0.92.4 (5da689c313, 2019-01-14)"
   inkscape:export-filename="G:\Users\suitedoalex\sites\ec-santo-andre-logo-0.png"
   inkscape:export-xdpi="561.73999"
   inkscape:export-ydpi="561.73999"><metadata
   id="metadata77"><rdf:RDF><cc:Work
       rdf:about=""><dc:format>image/svg+xml</dc:format><dc:type
         rdf:resource="http://purl.org/dc/dcmitype/StillImage" /><dc:title></dc:title></cc:Work></rdf:RDF></metadata><defs
   id="defs75" /><sodipodi:namedview
   pagecolor="#ffffff"
   bordercolor="#666666"
   borderopacity="1"
   objecttolerance="10"
   gridtolerance="10"
   guidetolerance="10"
   inkscape:pageopacity="0"
   inkscape:pageshadow="2"
   inkscape:window-width="1600"
   inkscape:window-height="837"
   id="namedview73"
   showgrid="false"
   inkscape:zoom="0.476792"
   inkscape:cx="556.83562"
   inkscape:cy="314.0227"
   inkscape:window-x="-8"
   inkscape:window-y="-8"
   inkscape:window-maximized="1"
   inkscape:current-layer="Layer_1" />
<style
   type="text/css"
   id="style2">
	.st0{fill-rule:evenodd;clip-rule:evenodd;fill:#F9C620;}
	.st1{fill-rule:evenodd;clip-rule:evenodd;fill:#231F20;}
	.st2{fill-rule:evenodd;clip-rule:evenodd;fill:#267946;}
	.st3{fill-rule:evenodd;clip-rule:evenodd;fill:#2D3492;}
	.st4{fill-rule:evenodd;clip-rule:evenodd;fill:#FFFFFF;}
</style>

<g
   id="g70"
   transform="matrix(0.65724174,0,0,0.65724174,119.94274,120.06391)"
   inkscape:export-xdpi="108.62505"
   inkscape:export-ydpi="108.62505"><path
     class="st0"
     d="m 189.3,203.8 h 321.3 v 339 c 0,31.1 -25.7,56.5 -57.3,56.5 H 357 l -7,9.1 -6.2,-9.1 h -97.2 c -31.6,0 -57.3,-25.4 -57.3,-56.5 z"
     id="path4"
     inkscape:connector-curvature="0"
     style="clip-rule:evenodd;fill:#f7c522;fill-opacity:1;fill-rule:evenodd" /><path
     class="st1"
     d="m 189.3,198.4 h 46.3 l 8.6,10.4 h -49.8 v 64.8 L 184,261.1 v -57.3 -5.4 z m 280.4,0 h 41 5.4 v 5.4 63.7 l -10.4,12.9 V 208.9 H 461.2 Z M 516,540.7 v 2.1 c 0,16.9 -7.2,32.4 -18.5,43.6 -8.8,8.6 -20.4,14.7 -32.9,16.9 l -8,-9.4 c 13.1,-0.8 24.9,-6.4 33.7,-15 9.4,-9.4 15.3,-22.2 15.3,-36.1 v -15 z m -275.8,63.4 c -14.5,-1.3 -27.9,-8 -37.8,-17.7 C 192,576 185.3,562.3 184.2,547 l 10.2,-12.6 v 8.3 c 0,13.9 5.9,26.8 15.3,36.1 9.6,9.1 22.5,15 37,15 h 2.1 z"
     id="path6"
     inkscape:connector-curvature="0"
     style="clip-rule:evenodd;fill:#231f20;fill-rule:evenodd" /><path
     class="st2"
     d="m 465.4,203.8 h 45.3 V 274 L 404.1,404.1 510.7,534.2 v 8.6 c 0,28.7 -22,52.5 -50.1,56 L 352.7,466.8 244.5,599 C 214,597.9 189.3,573 189.3,542.8 v -1.9 L 301.5,404.1 189.3,267.5 v -63.7 h 50.6 l 112.7,137.6 z"
     id="path8"
     inkscape:connector-curvature="0"
     style="clip-rule:evenodd;fill:#277946;fill-opacity:1;fill-rule:evenodd" /><path
     class="st3"
     d="m 189.3,198.4 h 321.3 5.4 v 5.4 339 c 0,16.9 -7.2,32.4 -18.5,43.6 -11.2,11 -27,17.9 -44.2,17.9 h -91.6 l -5.1,9.1 -6.7,12 -7.2,-12 -5.1,-9.1 h -91 c -17.1,0 -32.9,-7 -44.2,-17.9 -11.2,-11.2 -18.5,-26.8 -18.5,-43.6 v -339 -5.4 z m 316.3,10.5 H 194.4 v 333.9 c 0,13.9 5.9,26.8 15.3,36.1 9.6,9.1 22.5,15 37,15 h 98 l 2.1,3.7 3.2,6.2 3.5,-6.2 2.1,-3.7 h 97.7 c 14.5,0 27.3,-5.9 37,-15 9.4,-9.4 15.3,-22.2 15.3,-36.1 z"
     id="path10"
     inkscape:connector-curvature="0"
     style="clip-rule:evenodd;fill:#2d3492;fill-rule:evenodd" /><path
     class="st4"
     d="m 508.3,170.8 -3.7,11.2 c 2.7,1.6 4.3,4 4.8,6.2 0.3,1.1 0,2.1 -0.3,3.2 v 0 c -0.3,0.8 -1.1,1.9 -1.9,2.4 -2.1,1.6 -5.4,1.9 -9.9,0.3 v 0 c -50.1,-19.3 -100.2,-29.2 -150,-29.5 -50.3,-0.5 -100.4,8.6 -150.5,26.8 v 0 c -4.3,1.6 -7.8,1.3 -9.6,-0.3 -1.1,-0.5 -1.6,-1.6 -2.1,-2.7 -0.3,-0.8 -0.3,-1.9 0,-3.2 0.5,-2.4 2.7,-5.4 6.7,-7 v 0 c 0.3,0 0.3,0 0.5,0 l -3.7,-11 c 0,0 0,0 -0.3,0 v 0 c -4.6,1.9 -8,1.3 -10.2,-0.3 -1.1,-0.5 -1.6,-1.6 -2.1,-2.7 v 0 c -0.3,-1.1 -0.3,-2.1 0,-3.2 0.5,-2.9 2.9,-5.9 7.2,-7.5 v 0 0 L 134.5,90.6 c -0.3,0 -0.5,0 -0.8,0 -1.6,-0.3 -2.7,-0.8 -3.5,-2.1 v 0 l -0.3,-0.3 c -0.5,-1.3 -0.3,-2.9 0.5,-4.6 0.3,0 0.3,0 0.3,0 L 121,72 110.8,59.7 l -1.3,-1.6 1.9,-1.1 10.4,-4.6 2.4,-1.1 v 2.7 3.2 l 5.1,-2.4 V 50.2 49 l 1.1,-0.3 13.7,-5.9 2.4,-1.1 v 2.7 2.7 l 4.6,-1.9 V 38.5 37 h 1.9 10.7 1.6 v 1.6 14.2 1.1 l -1.1,0.5 -1.1,0.3 v 14.2 c 0.3,0 0.5,0 0.8,0 1.6,0.3 2.9,1.1 3.7,2.7 v 0 0 0.3 0 c 0.5,1.3 0.3,2.7 -0.8,4 -0.3,0.8 -1.1,1.3 -1.9,2.1 l 3.2,3.2 v 0 l 14.7,-2.1 1.9,-0.3 v 1.9 6.2 l 9.4,-2.4 v -8.3 -1.3 l 1.3,-0.3 13.1,-3.5 2.4,-0.8 v 2.4 7 l 9.6,-2.4 v -8 -1.3 l 1.3,-0.3 13.7,-3.7 2.1,-0.5 v 2.4 8.3 l 10.2,-2.7 V 64 62.7 l 1.1,-0.3 12.1,-3.2 0.3,-4.8 H 261 c -1.6,0.3 -3.2,-0.3 -4.6,-1.1 -1.1,-1.1 -2.1,-2.7 -2.1,-4.3 v 0 0 c -0.3,-1.9 0.3,-3.2 1.3,-4.6 0.8,-1.1 2.4,-2.1 4,-2.1 v 0 L 256.4,32.4 238.5,17.1 235,14.2 h 4.8 11.8 1.9 l -0.3,1.6 v 1.9 l 5.9,-1.3 V 12.1 9.9 h 1.9 10.4 1.6 v 1.9 2.7 l 8.8,-2.1 v -4 -1.7 h 1.6 9.9 2.1 l -0.5,2.1 -0.5,2.4 h 6.4 V 5.4 3.8 h 1.9 11.8 2.7 l -1.1,2.4 -14.2,31.1 c 1.1,0.3 2.4,0.5 3.2,1.3 1.3,1.1 2.1,2.4 2.4,4.3 v 0 0 0 0 c 0.3,1.6 -0.3,3.2 -1.3,4.6 -0.5,0.8 -1.3,1.3 -2.4,1.6 l 2.4,7 h 1.3 0.3 10.2 1.9 v 1.6 8 h 9.4 v -8.3 -1.6 h 1.9 11.8 1.6 v 1.6 8 h 3.5 2.9 v -8 -1.6 h 1.6 11.8 1.9 v 1.6 8.3 h 9.4 v -8 -1.7 h 1.9 10.4 v 0 h 2.7 l 2.4,-7 c -1.1,-0.3 -1.9,-0.8 -2.4,-1.6 -1.1,-1.3 -1.6,-2.9 -1.3,-4.6 v 0 0 0 0 c 0.3,-1.9 1.1,-3.2 2.4,-4.3 0.8,-0.8 2.1,-1.1 3.5,-1.3 l -14.5,-31 -1.1,-2.4 h 2.7 11.8 1.9 v 1.6 5.9 h 6.4 L 402,8.8 401.5,6.7 h 2.1 9.9 1.6 v 1.6 4 l 8.8,2.1 V 11.7 9.9 h 1.6 10.5 1.9 v 1.9 4.3 l 5.9,1.3 v -1.9 -1.6 h 1.6 11.8 4.8 l -3.5,2.9 -17.9,15.3 -3.2,9.9 v 0 c 1.6,0 3.2,1.1 4,2.1 1.1,1.3 1.6,2.7 1.3,4.6 v 0 0 c 0,1.6 -1.1,3.2 -2.1,4.3 -1.3,0.8 -2.9,1.3 -4.6,1.1 h -0.3 l 0.3,5.1 10.7,2.9 1.3,0.3 v 1.3 7.5 l 9.9,2.7 v -8.3 -2.4 l 2.1,0.5 13.9,3.7 1.3,0.3 v 1.3 8 l 9.6,2.4 v -7 -2.4 l 2.1,0.8 13.1,3.5 1.3,0.3 v 1.3 8.3 l 9.4,2.4 v -6.2 -1.9 l 1.9,0.3 22,2.1 0.3,-0.3 c -0.8,-0.5 -1.6,-1.3 -1.9,-1.9 -1.1,-1.3 -1.3,-2.9 -0.8,-4.3 v 0 -0.3 0 0 c 0.8,-1.3 2.1,-2.1 3.8,-2.4 0.3,0 0.5,0 0.8,-0.3 V 57.8 l -1.1,-0.5 -1.1,-0.5 V 55.7 41.8 39.9 h 1.6 10.7 1.9 v 1.9 6.4 l 4.6,2.1 v -2.9 -2.7 l 2.4,1.1 13.7,5.9 1.1,0.5 v 1.1 4.6 l 5.1,2.4 v -2.9 -2.9 l 2.4,1.3 10.4,4.6 1.9,0.8 -1.3,1.9 -10.1,12.1 -9.6,11.5 c 0,0 0,0.3 0.3,0.3 0.8,1.3 1.1,2.9 0.5,4.3 l -0.3,0.5 v 0 c -0.8,1.1 -1.9,1.9 -3.5,2.1 -0.3,0 -0.5,0 -0.8,0 L 515,158.8 c 1.9,1.6 2.9,3.5 3.5,5.1 v 0 c 0.3,1.3 0.3,2.4 -0.3,3.5 -0.3,1.1 -1.1,1.9 -1.9,2.7 -1.9,1.3 -4.6,1.8 -8,0.7 z"
     id="path12"
     inkscape:connector-curvature="0"
     style="clip-rule:evenodd;fill:#ffffff;fill-rule:evenodd" /><path
     class="st3"
     d="m 159.3,120.2 26.2,34 18.2,-6.7 c -6.1,-14.7 -13.3,-28.9 -44.4,-27.3 z"
     id="path14"
     inkscape:connector-curvature="0"
     style="clip-rule:evenodd;fill:#2d3492;fill-rule:evenodd" /><path
     class="st3"
     d="m 540.7,123.2 -26.2,34 -18.2,-6.7 c 6.1,-14.7 13.3,-28.9 44.4,-27.3 z"
     id="path16"
     inkscape:connector-curvature="0"
     style="clip-rule:evenodd;fill:#2d3492;fill-rule:evenodd" /><path
     class="st3"
     d="m 311.4,126.7 c -18.2,-54.4 -29.7,-53 -34,4.3 z"
     id="path18"
     inkscape:connector-curvature="0"
     style="clip-rule:evenodd;fill:#2d3492;fill-rule:evenodd" /><path
     class="st3"
     d="m 385.6,126.7 c 18.2,-54.4 29.7,-53 34,4.3 z"
     id="path20"
     inkscape:connector-curvature="0"
     style="clip-rule:evenodd;fill:#2d3492;fill-rule:evenodd" /><path
     class="st3"
     d="m 563.2,65.9 13.9,6.2 7.8,-9.6 -5.6,-2.4 v 2.9 2.7 l -2.4,-1.1 -8.8,-4 -0.8,-0.3 V 59 54.4 L 557,50.1 v 2.9 2.7 l -2.4,-1.1 -8,-3.7 -1.1,-0.3 v -1.3 -5.9 h -7.2 v 11.2 l 1.1,0.5 z M 244.5,17.4 249.9,22 v -2.1 -2.4 h -5.4 z M 305,22 312,7.3 h -7.5 v 5.6 1.9 h -1.6 -10.7 -2.2 l 0.5,-2.1 0.5,-2.4 h -5.6 v 3.5 1.2 l -1.3,0.3 -12.1,3.2 -2.4,0.5 v -2.1 -3.2 h -7 v 3.7 1.3 l -1.3,0.3 -9.1,2.4 -2.1,0.5 8,7 z M 134.2,80.9 159.1,69.7 c 0.3,0 0.3,0 0.5,-0.3 V 56.2 l -20.6,9.4 -13.9,6.2 8,9.6 0.5,-0.3 c 0.3,0 0.6,-0.2 0.6,-0.2 z m 25.4,12 -6.2,-9.6 8.3,-3.7 8.3,8.8 z m -14.5,5.9 11.2,-4.6 -6.4,-9.4 -11.8,5.4 z m 21.2,10.2 c -3.5,1.3 -7,2.4 -10.7,3.7 l 8.8,11.2 c 3.2,-1.1 6.4,-2.1 9.6,-3.2 z m 13.9,-4.3 8.3,11.8 c -3.7,1.1 -7.2,2.1 -11,3.2 l -7.8,-11.8 c 3.6,-1.1 7,-2.1 10.5,-3.2 z m 4,-1.3 c -0.3,0 -0.3,0.3 -0.5,0.3 l 8.3,11.8 c 0.8,-0.3 1.9,-0.5 2.7,-0.8 z m -10.4,-0.6 c 2.7,-0.8 5.1,-1.6 7.8,-2.1 l -8.8,-9.6 -5.4,2.4 z m -10.7,3.5 c 2.4,-0.8 4.8,-1.6 7.2,-2.1 l -6.4,-9.4 -7,2.9 z m -9.7,3.5 -6.2,-8 6.4,-2.7 5.9,8.6 c -1.8,0.5 -3.9,1.3 -6.1,2.1 z m 56.8,34.5 -7.8,-10.7 c -8.3,2.1 -16.6,4.6 -24.9,7 l 9.1,11.8 c 7.8,-2.7 15.8,-5.4 23.6,-8.1 z m 0.3,-12.8 9.4,9.9 c -1.9,0.8 -4,1.3 -6.2,1.9 l -7.5,-10.7 c 1.3,-0.3 2.9,-0.8 4.3,-1.1 z m -35.4,6.1 -8.3,-10.7 c 10.2,-3.5 20.4,-6.4 30.5,-9.4 l 10.4,11 c -10.9,2.7 -21.6,5.9 -32.6,9.1 z m 40.5,-28.3 -3.2,-13.7 c -8,2.1 -16.3,4.3 -24.4,6.7 l 10.7,11.2 c 5.6,-1.3 11.2,-2.9 16.9,-4.2 z m 12.3,29.9 -2.7,-11.2 c -3.7,0.8 -7.2,1.6 -10.7,2.4 l 9.1,9.9 c 1.6,-0.2 2.9,-0.5 4.3,-1.1 z m 0.5,-12 2.9,11.2 c 5.4,-1.6 11,-2.9 16.6,-4 l -2.1,-10.7 c -5.6,1.1 -11.5,2.4 -17.4,3.5 z m 6.5,-4.8 -2.7,-13.1 c -10.2,2.1 -20.6,4.6 -30.8,7.2 l 10.2,11 c 7.7,-1.9 15.5,-3.5 23.3,-5.1 z m 19.8,-3.8 -1.1,-13.4 c -5.9,1.1 -12.1,2.1 -17.9,3.2 l 2.7,13.4 c 5.3,-1.3 10.9,-2.1 16.3,-3.2 z m -12.6,-15 c -7.8,1.6 -15.5,3.2 -23.3,4.8 l -2.9,-13.7 c 7.8,-1.9 15.8,-3.5 23.6,-5.1 z m 57.6,-7.5 -1.1,-14.7 c -6.7,0.5 -13.7,1.3 -20.4,2.1 l 1.6,14.5 c 6.7,-0.8 13.4,-1.6 19.9,-1.9 z M 260.8,82.5 c -25.2,3.7 -50.3,9.6 -75.5,16.9 l -14.5,-15.3 10.4,-1.3 v 6.4 2.1 l 2.1,-0.5 12.9,-3.5 1.3,-0.3 v -1.3 -8.3 l 9.9,-2.7 v 7.2 2.1 l 2.1,-0.5 13.1,-3.5 1.3,-0.3 v -1.3 -8 l 10.2,-2.7 v 8.3 2.4 l 2.1,-0.5 13.7,-3.7 1.3,-0.3 v -1.3 -7.5 l 9.6,-2.7 z m -0.2,18.2 0.3,-14.7 c -5.9,0.8 -12,1.9 -17.9,3.2 l 2.4,13.9 c 5,-0.8 10.1,-1.9 15.2,-2.4 z m -0.3,17.1 0.3,-13.7 c -1.1,0 -2.4,0.3 -3.5,0.5 l 1.1,13.4 c 0.8,0.1 1.3,0.1 2.1,-0.2 z m -0.3,14 c -2.9,0.5 -5.9,1.3 -8.6,1.9 l -2.1,-10.4 c 3.8,-0.5 7.2,-1.1 11,-1.9 z m 4.3,-46.4 -0.3,14.7 c 4.3,-0.8 8.3,-1.3 12.3,-1.9 l -1.6,-14.5 c -3.4,0.7 -6.9,1.2 -10.4,1.7 z m 3,-16 -2.7,0.3 -0.3,12.3 c 1.3,-0.3 2.9,-0.5 4.3,-0.8 z m 10.1,-1.4 -6.7,0.8 1.3,12.1 c 2.1,-0.3 4.3,-0.8 6.4,-1.1 z m 7.5,-0.8 -4,0.5 1.1,11.8 c 1.3,-0.3 2.9,-0.3 4.3,-0.5 z m 7.3,-0.8 -3.7,0.5 1.3,11.8 c 1.1,-0.3 2.4,-0.3 3.7,-0.5 z m 8.3,-0.8 -4.8,0.5 1.3,11.8 c 1.6,0 3.5,-0.3 5.1,-0.3 z m 9.3,11.3 -4,-12 -1.9,0.3 1.6,12.3 c 1.4,-0.4 3,-0.4 4.3,-0.6 z m 6.2,18.2 -4.8,-14.7 c -3.2,0.3 -6.2,0.5 -9.1,0.8 l 1.1,14.7 c 4.2,-0.6 8.5,-0.8 12.8,-0.8 z m 10.2,28.9 -2.9,-8.6 c -19.8,0.8 -39.6,2.7 -59.4,5.4 l -0.3,10.4 c 20.8,-4 41.7,-6.4 62.6,-7.2 z m -11.5,-25.5 1.1,13.7 c 2.1,0 4,-0.3 6.2,-0.3 l -4.6,-13.7 c -1.1,0.3 -1.9,0.3 -2.7,0.3 z m -46.4,18.3 c -1.6,0.3 -2.9,0.3 -4.6,0.5 l 0.3,-13.7 c 1.1,-0.3 2.1,-0.3 3.2,-0.5 z m 2.4,-14.2 c 13.4,-1.9 26.8,-2.9 40.4,-3.8 l 1.1,13.7 c -13.4,0.8 -27,1.9 -40.4,3.7 z m 66.4,21.1 v -8.6 c -3.5,0 -7,0 -10.4,0.3 l 2.9,8.6 c 2.5,-0.3 5.1,-0.3 7.5,-0.3 z m -9.9,-11.8 c -0.5,0 -1.1,0 -1.6,0 l -4.8,-13.7 c 2.1,0 4.3,-0.3 6.4,-0.3 z m 30,12.1 v -8.6 c -2.7,-0.3 -5.4,-0.3 -8,-0.3 -2.7,0 -5.6,0 -8.6,0 v 8.6 c 2.1,0 4.6,0 6.7,0 3.2,0 6.7,0 9.9,0.3 z m -11.5,-12.3 v -14 c -4.8,0 -9.9,0 -15,0.3 v 13.7 c 5.1,0 10.2,0 15,0 z m 3.8,-14 v 13.9 c 5.4,0 11.2,0.3 17.1,0.5 V 98.3 C 360.7,98 354.8,98 349.5,97.7 Z m -14.2,-3.4 c -5.1,0.3 -10.4,0.3 -15.5,0.5 l -5.1,-14.7 c 7,-0.3 13.9,-0.5 20.6,-0.5 z m 3.7,-15 v 15 c 3.2,0 6.7,0 10.2,0 2.9,0.3 5.9,0.3 9.1,0.3 v -15 c -2.9,0 -5.6,0 -8.3,0 -3.5,-0.3 -7.2,-0.3 -11,-0.3 z M 447.2,22 l 5.4,-4.6 h -5.4 v 2.4 z m -8.3,6.9 8,-7 -1.9,-0.5 -9.4,-2.4 -1.3,-0.3 v -1.3 -3.7 h -7 v 3.2 2.1 l -2.4,-0.5 -12,-3.2 -1.3,-0.3 V 13.7 10.2 H 406 l 0.5,2.4 0.5,2.1 h -2.1 -10.7 -1.6 V 12.8 7.2 h -7.2 L 392,22 Z m -6.4,33 h -0.3 z m -34,20.3 -1.1,15 c 6.4,0.5 12.9,1.3 19.6,2.4 l 1.9,-15 c -6.8,-0.8 -13.7,-1.9 -20.4,-2.4 z m -15.3,-4.8 c -11,-0.8 -22.2,-1.3 -33.2,-1.6 -12.1,0 -24.4,0.3 -36.4,1.1 l -5.9,-17.4 h 0.3 8.6 v 8 1.9 h 1.6 13.1 1.6 v -1.9 -8.3 h 8.3 v 8 1.6 h 1.9 5.1 4.6 1.9 v -1.6 -8 h 8.3 v 8.3 1.9 h 1.6 13.1 1.6 v -1.9 -8 h 8.6 1.6 z m -6.2,18.2 5.1,-14.7 c -6.7,-0.5 -13.7,-1.1 -20.4,-1.1 v 15 c 5.2,0 10.3,0.3 15.3,0.8 z m -5.6,16.9 4.6,-13.7 c -1.9,0 -3.7,-0.3 -5.9,-0.3 v 13.9 c 0.5,0.1 0.8,0.1 1.3,0.1 z m -4.3,11.8 2.9,-8.3 c -2.9,-0.3 -6.2,-0.5 -9.1,-0.5 v 8.6 c 2,-0.1 4.1,0.2 6.2,0.2 z m 18.8,-43.2 c 2.9,0 6.2,0.3 9.1,0.8 l -1.1,15 c -4.5,-0.5 -8.8,-0.8 -13.1,-1.3 z m 5.6,-3.2 1.6,-12.9 -1.9,-0.3 -4.2,13 c 1.6,0 2.9,0.2 4.5,0.2 z m 8.6,0.8 1.3,-12.6 -5.1,-0.5 -1.3,12.6 c 1.6,0.3 3.5,0.5 5.1,0.5 z m 7.2,0.8 1.3,-12.6 -3.7,-0.5 -1.3,12.9 c 1.3,0 2.6,0.2 3.7,0.2 z m 7.8,1.1 1.1,-12.9 -4,-0.5 -1.3,12.9 c 1.5,0.2 2.8,0.2 4.2,0.5 z m 9.6,1.3 1.6,-13.1 -6.7,-0.8 -1.1,13.1 c 1.9,0.3 4.1,0.6 6.2,0.8 z m 8,1.4 -0.3,-13.7 -2.7,-0.3 -1.6,13.1 c 1.4,0.3 3,0.6 4.6,0.9 z M 433,102 432.7,86.7 c -3.5,-0.5 -7,-1.1 -10.4,-1.6 l -1.9,15 c 4,0.6 8.3,1.1 12.6,1.9 z m 0.5,31.1 -0.3,-10.2 c -19.8,-3.5 -39.6,-5.6 -59.4,-7 l -2.9,8.6 c 20.9,1.4 41.8,4.3 62.6,8.6 z M 381.3,113 c -2.1,0 -4.3,-0.3 -6.4,-0.3 L 379.5,99 c 1.1,0.3 2.1,0.3 2.9,0.3 z m 43.9,5.1 c -13.4,-2.1 -27,-3.7 -40.4,-4.8 l 1.1,-13.7 c 13.4,1.1 26.8,2.7 40.4,4.8 z m 4.6,-13.1 c 1.1,0.3 2.1,0.5 3.2,0.5 l 0.3,13.9 c -1.6,-0.3 -2.9,-0.5 -4.6,-0.8 z m 21.2,0.5 4,-14.5 c -6.2,-1.3 -12.6,-2.4 -18.7,-3.7 l 0.3,15.3 c 4.7,1 9.5,1.8 14.4,2.9 z m 7.5,-13.6 c 8,1.6 16.1,3.5 24.4,5.6 l -4,14.5 c -8,-2.1 -16.1,-4 -24.4,-5.9 z m -21.7,26.2 2.9,-11.2 c -1.1,-0.3 -2.1,-0.5 -3.2,-0.5 z m 7.5,17.4 2.7,-10.2 c -3.5,-0.5 -6.7,-1.1 -10.2,-1.9 l 0.3,10.4 c 2.3,0.6 4.8,1.2 7.2,1.7 z m 20,5.4 2.9,-11 c -5.6,-1.3 -11.2,-2.7 -16.9,-3.7 l -2.9,10.2 c 5.7,1.5 11.3,2.8 16.9,4.5 z m -5.8,-16.6 3.5,-12.9 c -6.2,-1.3 -12.6,-2.7 -18.7,-4 l -3.5,13.1 c 6.1,1.1 12.5,2.4 18.7,3.8 z m 55.7,-21.2 c -26,-8.3 -52,-14.7 -77.9,-19.3 l -0.3,-21.1 8.3,2.4 v 7.5 1.3 l 1.3,0.3 13.7,3.7 2.1,0.5 V 76 67.7 l 10.2,2.7 v 8 1.3 l 1.3,0.3 13.1,3.5 2.4,0.5 v -2.1 -7.2 l 9.6,2.7 v 8.3 1.3 l 1.3,0.3 12.9,3.5 2.1,0.5 v -2.1 -6.4 l 17.4,1.6 z m -13.7,14.7 11,-11.8 c -8.3,-2.7 -16.9,-5.4 -25.4,-7.5 l -3.7,14.2 c 6,1.6 11.9,3.3 18.1,5.1 z m -12.9,13.7 c -8.6,-2.4 -17.1,-4.6 -25.7,-6.4 l 3.5,-12.9 c 10.7,2.4 21.4,5.4 32.4,8.3 z m -12,12.8 9.4,-10.2 c -4.8,-1.1 -9.6,-2.4 -14.5,-3.5 l -2.9,11.2 c 2.6,0.7 5.3,1.5 8,2.5 z m 26,-22.5 -10.2,10.7 c 10.7,2.9 21.4,6.2 32.1,9.9 l 8.3,-10.7 c -10.1,-3.7 -20.1,-6.9 -30.2,-9.9 z m -16.1,25.8 c -1.9,-0.8 -4,-1.6 -6.2,-2.1 l 9.4,-10.2 c 1.6,0.5 2.9,0.8 4.6,1.3 z m 11.2,-10 c 8.3,2.4 16.3,4.8 24.6,7.5 l -9.4,12.1 c -0.3,-0.3 -0.5,-0.3 -0.8,-0.5 v 0 c -7.5,-2.9 -15,-5.6 -22.2,-8 z m 4.6,43.2 c -51.4,-20.1 -102.8,-30.3 -154,-30.8 -50.6,-0.5 -101.2,8.6 -151.8,27 l -3.8,-10.7 c 51.7,-18.7 103.6,-27.8 155.6,-27.3 52.2,0.5 105,10.7 157.5,30.8 z m 7,-10 -3.7,11.2 c 2.7,1.6 4.3,4 4.8,6.2 0.3,1.1 0,2.1 -0.3,3.2 v 0 c -0.3,0.8 -1.1,1.9 -1.9,2.4 -2.1,1.6 -5.4,1.9 -9.9,0.3 v 0 c -50.1,-19.3 -100.2,-29.2 -150,-29.5 -50.3,-0.5 -100.4,8.6 -150.5,26.8 v 0 c -4.3,1.6 -7.8,1.3 -9.6,-0.3 -1.1,-0.5 -1.6,-1.6 -2.1,-2.7 -0.3,-0.8 -0.3,-1.9 0,-3.2 0.5,-2.4 2.7,-5.4 6.7,-7 v 0 c 0.3,0 0.3,0 0.5,0 l -3.7,-11 c 0,0 0,0 -0.3,0 v 0 c -4.6,1.9 -8,1.3 -10.2,-0.3 -1.1,-0.5 -1.6,-1.6 -2.1,-2.7 v 0 c -0.3,-1.1 -0.3,-2.1 0,-3.2 0.5,-2.9 2.9,-5.9 7.2,-7.5 v 0 0 L 134.5,90.6 c -0.3,0 -0.5,0 -0.8,0 -1.6,-0.3 -2.7,-0.8 -3.5,-2.1 v 0 l -0.3,-0.3 c -0.5,-1.3 -0.3,-2.9 0.5,-4.6 0.3,0 0.3,0 0.3,0 L 121,72 110.8,59.7 l -1.3,-1.6 1.9,-1.1 10.4,-4.6 2.4,-1.1 v 2.7 3.2 l 5.1,-2.4 V 50.2 49 l 1.1,-0.3 13.7,-5.9 2.4,-1.1 v 2.7 2.7 l 4.6,-1.9 V 38.5 37 h 1.9 10.7 1.6 v 1.6 14.2 1.1 l -1.1,0.5 -1.1,0.3 v 14.2 c 0.3,0 0.5,0 0.8,0 1.6,0.3 2.9,1.1 3.7,2.7 v 0 0 0.3 0 c 0.5,1.3 0.3,2.7 -0.8,4 -0.3,0.8 -1.1,1.3 -1.9,2.1 l 3.2,3.2 v 0 l 14.7,-2.1 1.9,-0.3 v 1.9 6.2 l 9.4,-2.4 v -8.3 -1.3 l 1.3,-0.3 13.1,-3.5 2.4,-0.8 v 2.4 7 l 9.6,-2.4 v -8 -1.3 l 1.3,-0.3 13.7,-3.7 2.1,-0.5 v 2.4 8.3 l 10.2,-2.7 V 64 62.7 l 1.1,-0.3 12.1,-3.2 0.3,-4.8 H 261 c -1.6,0.3 -3.2,-0.3 -4.6,-1.1 -1.1,-1.1 -2.1,-2.7 -2.1,-4.3 v 0 0 c -0.3,-1.9 0.3,-3.2 1.3,-4.6 0.8,-1.1 2.4,-2.1 4,-2.1 v 0 L 256.4,32.4 238.5,17.1 235,14.2 h 4.8 11.8 1.9 l -0.3,1.6 v 1.9 l 5.9,-1.3 V 12.1 9.9 h 1.9 10.4 1.6 v 1.9 2.7 l 8.8,-2.1 v -4 -1.7 h 1.6 9.9 2.1 l -0.5,2.1 -0.5,2.4 h 6.4 V 5.4 3.8 h 1.9 11.8 2.7 l -1.1,2.4 -14.2,31.1 c 1.1,0.3 2.4,0.5 3.2,1.3 1.3,1.1 2.1,2.4 2.4,4.3 v 0 0 0 0 c 0.3,1.6 -0.3,3.2 -1.3,4.6 -0.5,0.8 -1.3,1.3 -2.4,1.6 l 2.4,7 h 1.3 0.3 10.2 1.9 v 1.6 8 h 9.4 v -8.3 -1.6 h 1.9 11.8 1.6 v 1.6 8 h 3.5 2.9 v -8 -1.6 h 1.6 11.8 1.9 v 1.6 8.3 h 9.4 v -8 -1.7 h 1.9 10.4 v 0 h 2.7 l 2.4,-7 c -1.1,-0.3 -1.9,-0.8 -2.4,-1.6 -1.1,-1.3 -1.6,-2.9 -1.3,-4.6 v 0 0 0 0 c 0.3,-1.9 1.1,-3.2 2.4,-4.3 0.8,-0.8 2.1,-1.1 3.5,-1.3 l -14.5,-31 -1.1,-2.4 h 2.7 11.8 1.9 v 1.6 5.9 h 6.4 L 402,8.8 401.5,6.7 h 2.1 9.9 1.6 v 1.6 4 l 8.8,2.1 V 11.7 9.9 h 1.6 10.5 1.9 v 1.9 4.3 l 5.9,1.3 v -1.9 -1.6 h 1.6 11.8 4.8 l -3.5,2.9 -17.9,15.3 -3.2,9.9 v 0 c 1.6,0 3.2,1.1 4,2.1 1.1,1.3 1.6,2.7 1.3,4.6 v 0 0 c 0,1.6 -1.1,3.2 -2.1,4.3 -1.3,0.8 -2.9,1.3 -4.6,1.1 h -0.3 l 0.3,5.1 10.7,2.9 1.3,0.3 v 1.3 7.5 l 9.9,2.7 v -8.3 -2.4 l 2.1,0.5 13.9,3.7 1.3,0.3 v 1.3 8 l 9.6,2.4 v -7 -2.4 l 2.1,0.8 13.1,3.5 1.3,0.3 v 1.3 8.3 l 9.4,2.4 v -6.2 -1.9 l 1.9,0.3 22,2.1 0.3,-0.3 c -0.8,-0.5 -1.6,-1.3 -1.9,-1.9 -1.1,-1.3 -1.3,-2.9 -0.8,-4.3 v 0 -0.3 0 0 c 0.8,-1.3 2.1,-2.1 3.8,-2.4 0.3,0 0.5,0 0.8,-0.3 V 57.8 l -1.1,-0.5 -1.1,-0.5 V 55.7 41.8 39.9 h 1.6 10.7 1.9 v 1.9 6.4 l 4.6,2.1 v -2.9 -2.7 l 2.4,1.1 13.7,5.9 1.1,0.5 v 1.1 4.6 l 5.1,2.4 v -2.9 -2.9 l 2.4,1.3 10.4,4.6 1.9,0.8 -1.3,1.9 -10.1,12.1 -9.6,11.5 c 0,0 0,0.3 0.3,0.3 0.8,1.3 1.1,2.9 0.5,4.3 l -0.3,0.5 v 0 c -0.8,1.1 -1.9,1.9 -3.5,2.1 -0.3,0 -0.5,0 -0.8,0 L 515,158.8 c 1.9,1.6 2.9,3.5 3.5,5.1 v 0 c 0.3,1.3 0.3,2.4 -0.3,3.5 -0.3,1.1 -1.1,1.9 -1.9,2.7 -1.9,1.3 -4.6,1.8 -8,0.7 z m -1.1,-51.1 c -1.1,-0.3 -2.1,-0.5 -2.9,-0.8 l 11,-11.8 c 0.3,0 0.3,0.3 0.5,0.3 z m 14.2,4.6 c -3.5,-1.1 -7.2,-2.1 -10.7,-3.5 l 8.6,-12.3 c 3.5,1.1 7,2.4 10.4,3.5 z m 11.5,-11 c 3.5,1.1 7,2.4 10.4,3.7 l -9.1,11.8 c -3.2,-1.1 -6.2,-2.1 -9.4,-3.2 z m -396.1,-50.6 -13.9,6.2 -7.8,-9.4 5.6,-2.7 v 3.2 2.7 l 2.4,-1.3 8.8,-3.8 0.8,-0.5 V 56 51.4 l 10.2,-4.3 v 2.9 2.7 l 2.4,-1.3 8,-3.5 1.1,-0.5 v -1.1 -5.9 h 7.2 v 11.2 l -1.1,0.3 z m 406.8,34.5 11.2,4.8 7,-8.8 -11.8,-5.4 v 0 z m -13.6,-5.6 10.4,4.3 6.4,-9.4 -8.6,-4 z m 2.6,4.8 -5.4,-2.1 -9.4,10.2 c 2.4,0.8 5.1,1.6 7.8,2.4 z m 10.5,4.6 -7,-2.9 -7.2,10.2 c 2.4,0.8 4.8,1.6 7.2,2.4 z m 9.6,4 -6.4,-2.7 -7,9.6 c 2.1,0.5 4.3,1.3 6.2,2.1 z M 540.9,72.8 c -0.3,-0.3 -0.3,-0.3 -0.5,-0.3 V 59.4 l 20.6,9.1 13.9,6.2 -8,9.6 -0.5,-0.3 c -0.3,0 -0.5,0 -0.5,-0.3 z M 167.6,71.5 Z M 389.4,42.8 Z m -81.7,0 z M 532.4,74.4 Z M 399,37.8 l -5.4,-12.1 43.1,6.4 -3.2,9.4 z m -135.5,3.7 -3.2,-9.4 43.1,-6.4 -5.4,12.1 z m 169,18.5 -0.3,-6.2 -6.4,-0.8 v 6.7 5.6 l 6.7,0.8 z M 422,59.4 v -6.7 l -17.9,-2.1 v 8 4.3 l 17.9,1.9 z m -21.7,-1 v -8 l -3.7,-0.5 -2.9,8.3 -1.1,3.5 7.8,0.8 v -4.1 z"
     id="path22"
     inkscape:connector-curvature="0"
     style="clip-rule:evenodd;fill:#2d3492;fill-rule:evenodd;stroke:#2d3492;stroke-width:0.99960369;stroke-miterlimit:4;stroke-dasharray:none" /><path
     class="st4"
     d="m 296.7,50.3 3.7,-0.5 4,11.8 -7.8,0.8 V 50.3 Z M 275,52.8 292.9,50.7 V 63 L 275,64.8 Z m -10.2,1 6.4,-0.8 v 12.3 l -6.7,0.8 z"
     id="path24"
     inkscape:connector-curvature="0"
     style="clip-rule:evenodd;fill:#ffffff;fill-rule:evenodd" /><path
     class="st4"
     d="m 135,82.5 24.9,-11.2 c 2.7,-1.1 5.4,-0.8 6.2,0.8 v 0 c 0.5,1.6 -0.8,4 -3.5,5.4 l -24.9,11 c -2.7,1.3 -5.4,0.8 -6.2,-0.8 v 0 c -0.8,-1.7 0.8,-4.1 3.5,-5.2 z"
     id="path26"
     inkscape:connector-curvature="0"
     style="clip-rule:evenodd;fill:#ffffff;fill-rule:evenodd" /><path
     class="st4"
     d="m 260,43.7 41,-4.6 c 2.4,-0.3 4.8,1.3 5.1,3.7 v 0 c 0.3,2.7 -1.6,4.8 -4,5.1 l -41.2,4.6 c -2.4,0.3 -4.6,-1.6 -4.8,-4 v 0 c -0.4,-2.4 1.5,-4.6 3.9,-4.8 z"
     id="path28"
     inkscape:connector-curvature="0"
     style="clip-rule:evenodd;fill:#ffffff;fill-rule:evenodd" /><path
     class="st4"
     d="m 437,43.7 -41,-4.6 c -2.4,-0.3 -4.8,1.3 -5.1,3.7 v 0 c -0.3,2.7 1.6,4.8 4,5.1 l 41.2,4.6 c 2.4,0.3 4.6,-1.6 4.8,-4 v 0 c 0.4,-2.4 -1.5,-4.6 -3.9,-4.8 z"
     id="path30"
     inkscape:connector-curvature="0"
     style="clip-rule:evenodd;fill:#ffffff;fill-rule:evenodd" /><path
     class="st4"
     d="m 565,85.4 -24.9,-11 c -2.7,-1.3 -5.4,-0.8 -6.2,0.8 v 0 c -0.5,1.6 0.8,4 3.5,5.1 l 24.9,11.2 c 2.7,1.1 5.4,0.8 6.2,-0.8 v 0 c 0.8,-1.5 -0.8,-3.9 -3.5,-5.3 z"
     id="path32"
     inkscape:connector-curvature="0"
     style="clip-rule:evenodd;fill:#ffffff;fill-rule:evenodd" /><path
     class="st0"
     d="m 581.6,635.5 4.6,-8 c -1.6,-11 1.6,-18.2 6.7,-22 3.2,-2.4 7.2,-3.2 11,-2.9 3.7,0.5 7.5,2.4 10.2,5.9 4.6,5.1 6.7,13.9 2.9,25.7 v 0 l -0.8,2.7 c -0.5,2.1 -1.1,3.7 -1.3,5.4 -4.8,17.1 -9.6,34 -22.2,47.9 l -0.5,0.8 h -0.8 c -7.8,-0.5 -15.5,-0.5 -23.3,-0.8 -5.9,0 -11.8,0 -17.7,-0.3 -26.8,-1.1 -53.6,-1.6 -80.1,-1.3 -26.5,0.5 -53.3,2.1 -79.8,5.9 -7.2,0.8 -14.2,0.8 -21.2,1.1 -6.4,0 -12.9,0 -19.3,0.8 v 0 0 c -6.4,-0.8 -12.9,-0.8 -19.3,-0.8 -7,-0.3 -13.9,-0.3 -21.2,-1.1 -26.5,-3.8 -53.3,-5.4 -79.8,-5.9 -26.5,-0.3 -53.3,0.3 -80.1,1.3 -5.9,0.3 -11.8,0.3 -17.7,0.3 -7.8,0.3 -15.5,0.3 -23.3,0.8 h -0.8 l -0.5,-0.8 C 94.7,676.3 89.9,659.4 85.1,642.3 c -0.3,-1.6 -0.8,-3.2 -1.3,-5.4 L 83,634.2 v 0 c -3.7,-11.8 -1.6,-20.6 2.9,-25.7 2.7,-3.5 6.4,-5.4 10.2,-5.9 3.7,-0.3 7.8,0.5 11,2.9 5.1,3.7 8.3,11 6.7,22 l 4.6,8 c 5.4,-0.3 11,-0.5 16.1,-0.8 1.1,0 1.9,0 3.2,0 3.2,-0.3 6.7,-0.3 10.4,-0.5 46.9,-2.1 91,-4.3 133.4,1.3 11.2,1.3 22.2,1.9 32.9,2.1 12.1,0.5 23.8,1.1 35.6,2.9 11.8,-1.9 23.6,-2.4 35.6,-2.9 10.7,-0.3 21.7,-0.8 32.9,-2.1 42.3,-5.6 86.5,-3.5 133.4,-1.3 3.7,0.3 7.2,0.3 10.4,0.5 1.3,0 2.1,0 3.2,0 5.2,0.2 10.8,0.5 16.1,0.8 z"
     id="path34"
     inkscape:connector-curvature="0"
     style="clip-rule:evenodd;fill:#f9c620;fill-rule:evenodd" /><polygon
     class="st3"
     points="139.8,663.6 139.8,658 124.3,658 124.3,651.3 141.1,651.3 141.1,645.6 118.1,645.6 118.1,677.2 141.7,677.2 141.7,671.6 124.3,671.6 124.3,663.6 "
     id="polygon36"
     style="clip-rule:evenodd;fill:#2d3492;fill-rule:evenodd" /><polygon
     class="st3"
     points="153.2,677.2 153.2,670.8 146.5,670.8 146.5,677.2 "
     id="polygon38"
     style="clip-rule:evenodd;fill:#2d3492;fill-rule:evenodd" /><path
     class="st3"
     d="m 193.1,652.9 c -0.5,-4.6 -4.3,-11 -13.7,-11 -8,0 -14.5,5.6 -14.5,16.6 0,10.7 6.2,16.3 14.5,16.3 7.8,0 12.3,-4.8 13.7,-11.5 h -6.7 c -0.8,3.7 -3.2,5.9 -7,5.9 -5.4,0 -7.8,-5.1 -7.8,-10.7 0,-8.8 4.8,-11 7.8,-11 5.6,0 6.4,3.5 7,5.4 z"
     id="path40"
     inkscape:connector-curvature="0"
     style="clip-rule:evenodd;fill:#2d3492;fill-rule:evenodd" /><polygon
     class="st3"
     points="204.1,674 204.1,667.6 197.4,667.6 197.4,674 "
     id="polygon42"
     style="clip-rule:evenodd;fill:#2d3492;fill-rule:evenodd" /><path
     class="st3"
     d="m 229.5,667.6 c 0,3.7 1.9,10.4 13.4,10.4 2.7,0 12.3,-0.8 12.3,-10.4 0,-5.6 -3.7,-7.2 -8,-8.3 l -7.8,-1.9 c -1.3,-0.3 -3.2,-0.8 -3.2,-3.2 0,-2.9 2.9,-3.7 5.4,-3.7 5.6,0 6.2,3.2 6.4,4.6 h 6.2 c 0,-3.7 -2.4,-10.2 -12,-10.2 -10.2,0 -12.1,6.2 -12.1,9.6 0,7 4.8,8 9.9,9.4 l 3.5,0.8 c 3.2,0.8 5.6,1.3 5.6,3.7 0,3.5 -3.5,4 -6.7,4 -5.6,0 -6.4,-3.2 -6.7,-4.8 z"
     id="path44"
     inkscape:connector-curvature="0"
     style="clip-rule:evenodd;fill:#2d3492;fill-rule:evenodd" /><path
     class="st3"
     d="m 270.7,672.1 h 11.8 l 1.9,6.4 h 7.2 l -11.2,-31.3 h -7.5 l -11.2,31.3 h 7 z m 5.9,-17.6 v 0 l 4,12.3 h -8 z"
     id="path46"
     inkscape:connector-curvature="0"
     style="clip-rule:evenodd;fill:#2d3492;fill-rule:evenodd" /><path
     class="st3"
     d="m 367.9,668.4 c 0,14.7 11,16.6 15,16.6 4.3,0 15.3,-1.9 15.3,-16.6 0,-14.7 -11,-16.6 -15.3,-16.6 -4,0 -15,1.9 -15,16.6 z m 6.7,0 c 0,-8.8 4.8,-11 8.3,-11 3.7,0 8.6,2.1 8.6,11 0,8.8 -4.8,11 -8.6,11 -3.4,0 -8.3,-2.2 -8.3,-11 z"
     id="path48"
     inkscape:connector-curvature="0"
     style="clip-rule:evenodd;fill:#2d3492;fill-rule:evenodd" /><polygon
     class="st3"
     points="327.2,682.6 327.2,651.3 321.1,651.3 321.1,673 308.5,651.3 301.5,651.3 301.5,682.6 307.7,682.6 307.7,660.1 320.5,682.6 "
     id="polygon50"
     style="clip-rule:evenodd;fill:#2d3492;fill-rule:evenodd" /><polygon
     class="st3"
     points="336.1,652.6 336.1,658.2 345.7,658.2 345.7,683.9 351.9,683.9 351.9,658.2 361.5,658.2 361.5,652.6 "
     id="polygon52"
     style="clip-rule:evenodd;fill:#2d3492;fill-rule:evenodd" /><polygon
     class="st3"
     points="475.6,675.6 482.3,675.6 482.3,644 476.1,644 476.1,666 475.9,666 463.5,644 456.6,644 456.6,675.6 462.7,675.6 462.7,653.1 "
     id="polygon54"
     style="clip-rule:evenodd;fill:#2d3492;fill-rule:evenodd" /><path
     class="st3"
     d="m 426.1,671.9 h 11.5 l 2.1,6.4 h 7 l -11,-31.3 h -7.5 L 417,678.3 h 7 z m 5.8,-18 v 0 l 3.8,12.6 h -7.8 z"
     id="path56"
     inkscape:connector-curvature="0"
     style="clip-rule:evenodd;fill:#2d3492;fill-rule:evenodd" /><path
     class="st3"
     d="m 494.6,676.4 h 13.7 c 10.2,0 12.9,-9.6 12.9,-16.3 0,-5.9 -2.1,-15 -12.6,-15 h -13.9 v 31.3 z m 6.4,-25.7 h 6.4 c 2.7,0 7,0.5 7,9.9 0,5.1 -1.6,10.4 -7,10.4 H 501 Z"
     id="path58"
     inkscape:connector-curvature="0"
     style="clip-rule:evenodd;fill:#2d3492;fill-rule:evenodd" /><path
     class="st3"
     d="m 531,678.3 h 6.4 V 666 h 6.7 c 5.1,0 5.4,1.6 5.4,5.9 0,3.2 0.3,4.8 0.5,6.4 h 7.2 v -0.8 c -1.3,-0.5 -1.3,-1.9 -1.3,-6.4 0,-5.9 -1.3,-6.7 -4,-7.8 3.2,-1.1 4.8,-4 4.8,-7.5 0,-2.7 -1.3,-8.8 -9.9,-8.8 H 531 Z m 6.5,-17.7 v -8.3 h 8.3 c 3.7,0 4.6,2.4 4.6,4 0,3.2 -1.6,4.3 -5.1,4.3 z"
     id="path60"
     inkscape:connector-curvature="0"
     style="clip-rule:evenodd;fill:#2d3492;fill-rule:evenodd" /><path
     class="st3"
     d="m 584.3,641.1 h -6.7 l -4,6.2 h 4.3 z m 3.8,9.4 h -23.3 v 31.3 h 23.8 v -5.4 h -17.4 v -8.3 h 15.5 v -5.4 H 571.2 V 656 h 16.9 z"
     id="path62"
     inkscape:connector-curvature="0"
     style="clip-rule:evenodd;fill:#2d3492;fill-rule:evenodd" /><path
     class="st4"
     d="m 347.3,135.5 c 53,0.5 106.3,11 159.6,31.6 v 0 c 3.5,1.1 5.9,1.1 7.2,0 0.3,-0.3 0.5,-0.5 0.8,-0.8 0,-0.5 0.3,-1.1 0,-1.6 v 0 c -0.3,-1.6 -1.9,-3.5 -5.1,-4.6 v 0 c -54.1,-21.4 -108.5,-32.4 -162.5,-32.9 -54.4,-0.5 -108.7,9.4 -163.1,29.7 v 0.3 c -2.9,1.1 -4.6,2.9 -5.1,4.6 0,0.5 0,1.1 0.3,1.6 v 0 c 0,0.3 0.3,0.8 0.8,1.1 1.1,0.8 3.5,1.1 7,-0.3 v 0 C 240.5,144.6 293.8,135 347.3,135.5 Z"
     id="path64"
     inkscape:connector-curvature="0"
     style="clip-rule:evenodd;fill:#ffffff;fill-rule:evenodd" /><path
     class="st4"
     d="m 347.3,161.2 c 50.1,0.3 100.7,10.2 151,29.7 v 0 c 3.5,1.1 5.6,1.1 6.7,0.3 0.3,-0.3 0.5,-0.5 0.8,-1.1 v 0 c 0,-0.3 0,-0.8 0,-1.3 -0.3,-1.3 -1.9,-3.2 -4.6,-4.3 v 0 C 449.8,164.1 398.4,154 347.2,153.4 295.8,152.9 244.4,162.2 193,181.8 v 0 c -2.7,1.1 -4.3,2.7 -4.8,4.3 0,0.5 0,1.1 0.3,1.3 0,0.3 0.3,0.8 0.5,1.1 1.3,0.8 3.5,0.8 6.7,-0.3 v 0 c 50.4,-18.4 101,-27.5 151.6,-27 z"
     id="path66"
     inkscape:connector-curvature="0"
     style="clip-rule:evenodd;fill:#ffffff;fill-rule:evenodd" /><path
     class="st3"
     d="m 613.2,634.7 c 4,-11.2 2.1,-19.5 -1.6,-24.1 -2.4,-2.7 -5.4,-4 -8.3,-4.6 -2.9,-0.3 -5.9,0.5 -8.3,2.1 -3.7,2.9 -6.4,8.3 -5.6,16.6 h 9.1 c 0.3,-0.5 0.5,-1.1 1.3,-1.6 0.8,-0.8 1.9,-0.8 2.7,-0.8 l 1.1,-1.3 2.7,2.1 -1.3,1.6 v 0.3 0 0 0 0 0 0 0 0 0 0 0 0 c -0.3,0 -0.3,0.3 -0.5,0.3 -0.3,0.3 -0.8,0.5 -1.3,0.5 -0.3,0 -0.3,0 -0.5,0 l -0.3,-0.3 c -0.5,0.5 -0.5,0.8 -0.8,1.3 v 8.6 c 3.9,-0.2 7.6,-0.5 11.6,-0.7 z m -8.3,-9.7 z m 0,0 z m 0,0 z m 0,0 z m 0,0 z m 0,0 z m 0,0 z m -506.4,1.9 c -0.3,-0.5 -0.3,-0.8 -0.8,-1.3 l -0.3,0.3 c -0.3,0 -0.3,0 -0.5,0 -0.5,0 -1.1,-0.3 -1.3,-0.5 -0.3,0 -0.3,-0.3 -0.5,-0.3 v 0 0 0 0 -0.3 l -1.3,-1.6 2.7,-2.1 1.1,1.3 c 0.8,0 1.9,0 2.7,0.8 0.8,0.5 1.1,1.1 1.3,1.6 h 9.1 c 0.8,-8.3 -1.9,-13.7 -5.6,-16.6 -2.4,-1.6 -5.4,-2.4 -8.3,-2.1 -2.9,0.5 -5.9,1.9 -8.3,4.6 -3.7,4.6 -5.6,12.9 -1.6,24.1 4,0.3 7.8,0.5 11.8,0.8 v -8.7 z m 491.2,1.3 h 8.3 v 7.2 c -4,0.3 -8.3,0.3 -12.3,0 l 3.7,-7 z m -8.1,7.3 4.6,-8 c -1.6,-11 1.6,-18.2 6.7,-22 3.2,-2.4 7.2,-3.2 11,-2.9 3.7,0.5 7.5,2.4 10.2,5.9 4.6,5.1 6.7,13.9 2.9,25.7 v 0 l -0.8,2.7 c -0.5,2.1 -1.1,3.7 -1.3,5.4 -4.8,17.1 -9.6,34 -22.2,47.9 l -0.5,0.8 h -0.8 c -7.8,-0.5 -15.5,-0.5 -23.3,-0.8 -5.9,0 -11.8,0 -17.7,-0.3 -26.8,-1.1 -53.6,-1.6 -80.1,-1.3 -26.5,0.5 -53.3,2.1 -79.8,5.9 -7.2,0.8 -14.2,0.8 -21.2,1.1 -6.4,0 -12.9,0 -19.3,0.8 v 0 0 c -6.4,-0.8 -12.9,-0.8 -19.3,-0.8 -7,-0.3 -13.9,-0.3 -21.2,-1.1 -26.5,-3.8 -53.3,-5.4 -79.8,-5.9 -26.5,-0.3 -53.3,0.3 -80.1,1.3 -5.9,0.3 -11.8,0.3 -17.7,0.3 -7.8,0.3 -15.5,0.3 -23.3,0.8 h -0.8 l -0.5,-0.8 C 94.7,676.3 89.9,659.4 85.1,642.3 c -0.3,-1.6 -0.8,-3.2 -1.3,-5.4 L 83,634.2 v 0 c -3.7,-11.8 -1.6,-20.6 2.9,-25.7 2.7,-3.5 6.4,-5.4 10.2,-5.9 3.7,-0.3 7.8,0.5 11,2.9 5.1,3.7 8.3,11 6.7,22 l 4.6,8 c 5.4,-0.3 11,-0.5 16.1,-0.8 1.1,0 1.9,0 3.2,0 3.2,-0.3 6.7,-0.3 10.4,-0.5 46.9,-2.1 91,-4.3 133.4,1.3 11.2,1.3 22.2,1.9 32.9,2.1 12.1,0.5 23.8,1.1 35.6,2.9 11.8,-1.9 23.6,-2.4 35.6,-2.9 10.7,-0.3 21.7,-0.8 32.9,-2.1 42.3,-5.6 86.5,-3.5 133.4,-1.3 3.7,0.3 7.2,0.3 10.4,0.5 1.3,0 2.1,0 3.2,0 5.2,0.2 10.8,0.5 16.1,0.8 z m -471.3,-7.3 0.3,0.3 3.7,7 c -4,0.3 -8.3,0.3 -12.3,0 v -7.2 h 8.3 z M 330.7,692 c -7,-0.3 -13.9,-0.3 -20.9,-1.1 -26.5,-3.8 -53.3,-5.4 -80.1,-5.9 -26.5,-0.5 -53.3,0.3 -80.1,1.3 -5.9,0.3 -11.8,0.3 -17.7,0.3 -7.5,0 -15,0.3 -22.5,0.5 C 97.6,674 93.1,657.6 88.5,641 c -0.3,-0.8 -0.5,-1.9 -0.8,-2.9 15.3,1.6 31.6,0.8 46.9,0.3 1.3,-0.3 2.7,-0.3 3.2,-0.3 3.8,-0.3 7,-0.3 10.2,-0.5 46.9,-2.1 91,-4.3 132.8,1.1 11.5,1.6 22.5,2.1 33.5,2.7 12.1,0.3 23.8,0.8 35.3,2.7 h 0.3 0.3 c 11.5,-1.9 23.3,-2.4 35.3,-2.7 11,-0.5 22,-1.1 33.5,-2.7 41.8,-5.4 86,-3.2 132.8,-1.1 3.2,0.3 6.4,0.3 10.2,0.5 0.5,0 1.9,0 3.2,0.3 15.3,0.5 31.6,1.3 46.9,-0.3 -0.3,1.1 -0.5,2.1 -0.8,2.9 -4.6,16.6 -9.1,32.9 -20.9,46.1 -7.5,-0.3 -15,-0.5 -22.5,-0.5 -5.9,0 -11.8,0 -17.7,-0.3 -26.8,-1.1 -53.6,-1.9 -80.1,-1.3 -26.8,0.5 -53.6,2.1 -80.1,5.9 -7,0.8 -13.9,0.8 -20.9,1.1 -6.4,0 -12.9,0 -19.3,0.8 -6.2,-0.8 -12.7,-0.8 -19.1,-0.8 z"
     id="path68"
     inkscape:connector-curvature="0"
     style="clip-rule:evenodd;fill:#2d3492;fill-rule:evenodd" /></g></svg>