<?xml version="1.0" encoding="UTF-8" standalone="no"?>
<svg
   xmlns:dc="http://purl.org/dc/elements/1.1/"
   xmlns:cc="http://creativecommons.org/ns#"
   xmlns:rdf="http://www.w3.org/1999/02/22-rdf-syntax-ns#"
   xmlns:svg="http://www.w3.org/2000/svg"
   xmlns="http://www.w3.org/2000/svg"
   xmlns:sodipodi="http://sodipodi.sourceforge.net/DTD/sodipodi-0.dtd"
   xmlns:inkscape="http://www.inkscape.org/namespaces/inkscape"
   height="700"
   width="700"
   viewBox="0 0 560.00038 560"
   version="1.1"
   id="svg88"
   sodipodi:docname="guarani-logo.svg"
   style="fill:#ffffff"
   inkscape:version="0.92.4 (5da689c313, 2019-01-14)">
  <metadata
     id="metadata94">
    <rdf:RDF>
      <cc:Work
         rdf:about="">
        <dc:format>image/svg+xml</dc:format>
        <dc:type
           rdf:resource="http://purl.org/dc/dcmitype/StillImage" />
        <dc:title>Guarani FC</dc:title>
      </cc:Work>
    </rdf:RDF>
  </metadata>
  <defs
     id="defs92" />
  <sodipodi:namedview
     pagecolor="#ffffff"
     bordercolor="#666666"
     borderopacity="1"
     objecttolerance="10"
     gridtolerance="10"
     guidetolerance="10"
     inkscape:pageopacity="0"
     inkscape:pageshadow="2"
     inkscape:window-width="1600"
     inkscape:window-height="837"
     id="namedview90"
     showgrid="false"
     inkscape:zoom="0.39333333"
     inkscape:cx="128.30944"
     inkscape:cy="302.25365"
     inkscape:window-x="-8"
     inkscape:window-y="-8"
     inkscape:window-maximized="1"
     inkscape:current-layer="svg88" />
  <title
     id="title2">Guarani FC</title>
  <path
     d="m 208.02397,88.813625 6.88382,21.216925 22.61258,0.21312 -18.05119,13.09628 6.78792,21.56742 -18.04004,-13.10694 -18.41444,13.10694 6.90518,-21.20576 -18.16909,-13.45857 22.3035,0.0111 7.18223,-21.439975 z"
     id="path4"
     inkscape:connector-curvature="0"
     style="fill:#b48c3e;stroke-width:1.59322059" />
  <path
     d="m 351.96984,88.813625 6.88383,21.216925 22.59824,0.21312 -18.04641,13.09628 6.78266,21.56742 -18.03685,-13.10694 -18.41444,13.10694 6.90518,-21.20576 -18.16909,-13.45857 22.30349,0.0111 7.19292,-21.439975 z"
     id="path6"
     inkscape:connector-curvature="0"
     style="fill:#888d90;stroke-width:1.59322059" />
  <path
     d="m 280.00566,471.18656 c 86.26652,0 156.23918,-69.96787 156.23918,-156.23917 0,-86.28245 -69.96947,-156.25033 -156.23918,-156.25033 -86.28244,0 -156.25032,69.96788 -156.25032,156.25033 0,86.2713 69.96788,156.23917 156.25032,156.23917 z"
     id="path8"
     inkscape:connector-curvature="0"
     style="fill:#006c51;stroke-width:1.59322059" />
  <path
     d="m 279.91007,172.49595 c -78.49319,0 -142.35425,63.86265 -142.35425,142.35425 0,78.48205 63.86265,142.33354 142.35425,142.33354 78.48205,0 142.33354,-63.85149 142.33354,-142.33354 0,-78.49319 -63.85309,-142.35425 -142.33354,-142.35425 z m 0,290.938 c -81.9457,0 -148.59967,-66.65398 -148.59967,-148.58853 0,-81.9457 66.65397,-148.59968 148.59967,-148.59968 81.93455,0 148.58853,66.66513 148.58853,148.59968 0,81.93455 -66.65238,148.58853 -148.58853,148.58853 z"
     id="path10"
     inkscape:connector-curvature="0"
     style="stroke-width:1.59322059" />
  <path
     d="m 163.16047,330.23434 -3.68703,0.51149 -1.33201,-9.52651 8.71666,-1.2148 c 1.02299,0.79921 2.00332,2.03534 2.93041,3.69771 0.92708,1.66237 1.51317,3.38862 1.76896,5.18944 0.31968,2.29105 0.11726,4.34774 -0.6074,6.19125 -0.72461,1.83284 -1.91808,3.30339 -3.58045,4.41163 -1.67304,1.09757 -3.55909,1.80082 -5.65832,2.09923 -2.2697,0.30904 -4.36893,0.11726 -6.27649,-0.58608 -1.89673,-0.71396 -3.45251,-1.91808 -4.65667,-3.63382 -0.92708,-1.30004 -1.52382,-2.9943 -1.82216,-5.08301 -0.37296,-2.7174 -0.10659,-4.92305 0.82052,-6.60677 0.92708,-1.68371 2.36562,-2.88787 4.31572,-3.60179 l 1.42791,4.27301 c -1.02298,0.45823 -1.79015,1.15087 -2.30173,2.08856 -0.50085,0.93774 -0.66068,2.04601 -0.47953,3.32473 0.2664,1.92875 1.08693,3.37795 2.4722,4.34774 1.38529,0.9697 3.28204,1.27873 5.69035,0.9484 2.60013,-0.36232 4.46484,-1.2148 5.60511,-2.54677 1.1402,-1.34267 1.57711,-2.94108 1.31071,-4.81662 -0.12794,-0.91644 -0.43691,-1.82217 -0.92708,-2.70672 -0.50085,-0.87381 -1.04431,-1.61967 -1.66237,-2.21649 l -2.77061,0.39427 0.70331,5.06166 z"
     id="path12"
     inkscape:connector-curvature="0"
     style="stroke-width:1.59322059" />
  <path
     d="m 147.82731,315.16247 0.27706,-4.45432 11.94549,0.73527 c 1.89673,0.11726 3.12224,0.13861 3.69771,0.0639 0.91642,-0.13861 1.66237,-0.54347 2.25903,-1.22546 0.58608,-0.69264 0.91642,-1.65169 1.00167,-2.89839 0.0746,-1.25742 -0.12793,-2.22716 -0.6074,-2.89839 -0.47953,-0.68199 -1.08693,-1.09758 -1.83284,-1.27873 -0.73527,-0.18115 -1.98197,-0.31968 -3.72957,-0.42623 l -12.2012,-0.74593 0.27706,-4.45433 11.58319,0.71395 c 2.64268,0.15985 4.50754,0.39428 5.58376,0.70332 1.07627,0.30902 1.97145,0.80985 2.69605,1.5025 0.70329,0.69265 1.25742,1.58775 1.63034,2.70656 0.38363,1.10825 0.52215,2.53609 0.41559,4.28369 -0.13861,2.09923 -0.47952,3.68703 -1.02299,4.74191 -0.5541,1.05495 -1.24676,1.87553 -2.05669,2.46152 -0.82052,0.58608 -1.66236,0.94838 -2.52557,1.09757 -1.27873,0.21313 -3.15426,0.24509 -5.62646,0.0959 l -11.76434,-0.72463 z"
     id="path14"
     inkscape:connector-curvature="0"
     style="stroke-width:1.59322059" />
  <path
     d="m 166.03782,281.70484 -8.70599,0.86314 7.18224,4.96575 1.52382,-5.82895 z m 10.53884,-5.73304 -1.22546,4.69936 -5.3494,0.59674 -2.23783,8.54619 4.40095,3.02633 -1.20414,4.5821 -19.19193,-13.92746 1.19349,-4.56075 23.61472,-2.96243 z"
     id="path16"
     inkscape:connector-curvature="0"
     style="stroke-width:1.59322059" />
  <path
     d="m 167.74257,265.13535 1.43858,-2.96244 c 0.93774,-1.92875 1.44923,-3.16477 1.51316,-3.72957 0.0746,-0.55412 -0.0214,-1.06561 -0.29837,-1.53448 -0.25575,-0.45822 -0.69264,-0.84184 -1.28938,-1.12956 -0.67134,-0.33033 -1.2894,-0.40491 -1.87554,-0.25574 -0.58608,0.15985 -1.09757,0.54346 -1.51316,1.1402 -0.20247,0.29838 -0.7033,1.2681 -1.49185,2.88788 l -1.52382,3.1329 5.04032,2.45086 z m 9.5265,9.59055 -19.88498,-9.66512 4.10254,-8.4396 c 1.03363,-2.12058 1.96078,-3.58045 2.79196,-4.36893 0.82052,-0.78857 1.83284,-1.25742 3.02632,-1.38531 1.1935,-0.13845 2.37629,0.0852 3.5591,0.65004 1.4812,0.72461 2.50422,1.75827 3.04767,3.11156 0.54346,1.35331 0.52216,2.96243 -0.0746,4.82714 0.92708,-0.62872 1.83284,-1.06561 2.71724,-1.34267 0.8738,-0.26641 2.32307,-0.51149 4.33706,-0.71396 l 5.05099,-0.54348 -2.33375,4.79528 -5.73304,0.7992 c -2.04602,0.28771 -3.3566,0.51149 -3.94275,0.7033 -0.58608,0.18115 -1.06561,0.44755 -1.41725,0.79921 -0.35165,0.35165 -0.75659,0.99101 -1.20414,1.91807 l -0.39427,0.80987 8.30116,4.02798 -1.95011,4.01731 z"
     id="path18"
     inkscape:connector-curvature="0"
     style="stroke-width:1.59322059" />
  <path
     d="m 186.95681,241.12073 -8.37572,-2.51489 4.7419,7.32068 3.63382,-4.80594 z m 11.93482,-1.2894 -2.93042,3.87885 -5.16824,-1.49186 -5.31738,7.0543 2.89839,4.47552 -2.84517,3.78294 -12.4464,-20.19407 2.84517,-3.76159 22.96468,6.25514 z"
     id="path20"
     inkscape:connector-curvature="0"
     style="stroke-width:1.59322059" />
  <path
     d="m 200.02122,238.92687 -14.74797,-16.46434 3.2395,-2.89839 16.58065,4.96575 -9.84627,-10.99704 3.09021,-2.77061 14.73745,16.46434 -3.3354,2.9943 -16.25085,-4.79528 9.61174,10.73066 -3.0797,2.77061 z"
     id="path22"
     inkscape:connector-curvature="0"
     style="stroke-width:1.59322059" />
  <path
     d="m 216.39953,225.18056 -12.4037,-18.28539 3.6977,-2.50422 12.4037,18.28539 z"
     id="path24"
     inkscape:connector-curvature="0"
     style="stroke-width:1.59322059" />
  <path
     d="m 230.24142,216.61222 -8.62075,-20.34224 13.9488,-5.92487 1.44922,3.45251 -9.83558,4.16659 2.04601,4.81663 8.49298,-3.6018 1.45989,3.442 -8.49299,3.60179 3.66569,8.64211 -4.11322,1.7476 z"
     id="path26"
     inkscape:connector-curvature="0"
     style="stroke-width:1.59322059" />
  <path
     d="m 241.93088,188.21307 4.35841,-0.9697 2.61081,11.6791 c 0.4156,1.85419 0.73529,3.04767 0.96972,3.56977 0.38361,0.84183 0.98035,1.44923 1.80082,1.82217 0.82052,0.38361 1.84351,0.43689 3.05834,0.15983 1.2361,-0.27706 2.1099,-0.73527 2.62149,-1.38529 0.52214,-0.63936 0.75659,-1.34267 0.72461,-2.1099 -0.0425,-0.76725 -0.25574,-2.00332 -0.6287,-3.70838 l -2.6747,-11.92414 4.35841,-0.98036 2.52558,11.32748 c 0.58608,2.58946 0.8738,4.44365 0.88446,5.56257 0,1.12955 -0.23444,2.12058 -0.70331,3.00497 -0.45821,0.87379 -1.18283,1.6517 -2.14193,2.32308 -0.95905,0.67132 -2.29105,1.20412 -3.99611,1.5771 -2.06737,0.46887 -3.67636,0.57544 -4.84849,0.34099 -1.17217,-0.23444 -2.1526,-0.67133 -2.94109,-1.28939 -0.78855,-0.61806 -1.36399,-1.32135 -1.7476,-2.12058 -0.56477,-1.17216 -1.11889,-2.96243 -1.65169,-5.37074 l -2.57879,-11.50863 z"
     id="path28"
     inkscape:connector-curvature="0"
     style="stroke-width:1.59322059" />
  <path
     d="m 272.69438,205.38002 -0.74593,-18.34912 -6.55356,0.2664 -0.14928,-3.72973 17.55092,-0.72461 0.14912,3.74024 -6.54288,0.2664 0.75659,18.34913 -4.46484,0.18116 z"
     id="path30"
     inkscape:connector-curvature="0"
     style="stroke-width:1.59322059" />
  <path
     d="m 285.69187,205.07093 2.85585,-21.90837 16.25085,2.12057 -0.47953,3.69771 -11.82823,-1.53448 -0.6287,4.85916 10.99704,1.42791 -0.47952,3.69771 -10.99705,-1.43858 -0.77789,5.9674 12.2439,1.59848 -0.49018,3.68703 -16.66668,-2.17379 z"
     id="path32"
     inkscape:connector-curvature="0"
     style="stroke-width:1.59322059" />
  <path
     d="m 315.13458,191.76276 -1.59847,4.84849 2.78128,0.91642 c 1.65169,0.54346 2.68537,0.85249 3.10089,0.93774 0.75657,0.15985 1.4066,0.0959 1.96077,-0.18115 0.55414,-0.28772 0.93776,-0.75659 1.16152,-1.43857 0.21313,-0.65003 0.21313,-1.23611 -0.0213,-1.75827 -0.22379,-0.52215 -0.67136,-0.9484 -1.35335,-1.26808 -0.40492,-0.18115 -1.59832,-0.59674 -3.59112,-1.25742 l -2.44018,-0.79922 z m -2.73858,8.3437 -1.85419,5.61578 3.92139,1.28938 c 1.53448,0.50084 2.5149,0.77789 2.95176,0.83118 0.67134,0.0852 1.26808,-0.0213 1.82217,-0.33034 0.53279,-0.31969 0.92708,-0.84184 1.17216,-1.58777 0.21313,-0.63936 0.23443,-1.21478 0.0746,-1.75828 -0.15984,-0.54346 -0.50084,-1.00167 -1.01233,-1.39594 -0.51149,-0.39428 -1.72625,-0.90577 -3.65501,-1.53448 l -3.42064,-1.12956 z m -0.35166,-13.23488 8.39707,2.75993 c 1.65169,0.54345 2.8772,1.02298 3.64433,1.42791 0.76725,0.40493 1.40661,0.93774 1.90741,1.58777 0.50084,0.65002 0.84184,1.41725 1.03365,2.28038 0.1918,0.8738 0.12793,1.76895 -0.15985,2.6747 -0.33034,0.98035 -0.8951,1.80081 -1.69423,2.44017 -0.79921,0.65004 -1.71558,1.03367 -2.75994,1.14022 1.16152,0.79921 1.92876,1.75828 2.32308,2.8772 0.39427,1.11889 0.39427,2.29105 -0.0112,3.50588 -0.30903,0.9484 -0.84184,1.81149 -1.57711,2.55744 -0.74591,0.75659 -1.58775,1.27873 -2.53609,1.56644 -0.93773,0.28772 -1.99264,0.30903 -3.16493,0.0639 -0.73525,-0.15984 -2.45085,-0.67134 -5.15757,-1.53448 l -7.15022,-2.35494 6.90518,-20.99228 z"
     id="path34"
     inkscape:connector-curvature="0"
     style="stroke-width:1.59322059" />
  <path
     d="m 333.95052,206.98917 c -1.24676,2.17379 -1.68372,4.11322 -1.32135,5.80761 0.35165,1.69423 1.31071,2.98378 2.84517,3.86818 1.54514,0.88446 3.13291,1.05495 4.76325,0.51149 1.61967,-0.54345 3.06902,-1.92876 4.34774,-4.15592 1.25742,-2.19514 1.71558,-4.10254 1.37463,-5.74356 -0.341,-1.63034 -1.31069,-2.90906 -2.90906,-3.81481 -1.59848,-0.91643 -3.1968,-1.10824 -4.79528,-0.57544 -1.59847,0.53281 -3.03699,1.90741 -4.30504,4.10255 z m -4.06,-2.15244 c 1.1189,-1.9501 2.35493,-3.42064 3.6977,-4.41163 0.99102,-0.72461 2.08855,-1.25742 3.29271,-1.60915 1.1935,-0.341 2.35494,-0.43691 3.46318,-0.29838 1.48119,0.18117 3.00498,0.71397 4.57143,1.60915 2.82382,1.61967 4.57143,3.79362 5.26416,6.52153 0.69265,2.71724 0.13861,5.64765 -1.65169,8.75937 -1.76895,3.10089 -3.99612,5.04031 -6.68133,5.81828 -2.68537,0.78855 -5.43464,0.36232 -8.25846,-1.24676 -2.84517,-1.63034 -4.61413,-3.80429 -5.29602,-6.51085 -0.682,-2.70672 -0.14913,-5.58376 1.59847,-8.63143 z"
     id="path36"
     inkscape:connector-curvature="0"
     style="stroke-width:1.59322059" />
  <path
     d="m 345.00747,226.77856 14.24721,-16.65552 3.38863,2.89838 -11.81756,13.83171 8.42893,7.20358 -2.41898,2.8345 z"
     id="path38"
     inkscape:connector-curvature="0"
     style="stroke-width:1.59322059" />
  <path
     d="m 378.36951,251.06721 1.37463,4.32639 c -2.35287,0.85249 -4.45321,0.98036 -6.29768,0.39427 -1.84671,-0.58608 -3.45363,-1.84351 -4.82189,-3.78294 -1.69216,-2.39764 -2.26556,-4.9444 -1.71669,-7.64045 0.54773,-2.70672 2.24198,-5.05098 5.08301,-7.0543 3.00402,-2.13125 5.88424,-2.9943 8.64211,-2.62132 2.75786,0.38361 5.02963,1.83284 6.81563,4.35841 1.55792,2.20581 2.17284,4.46484 1.84145,6.76657 -0.19288,1.36397 -0.86526,2.75993 -2.02036,4.19845 l -3.40997,-3.00497 c 0.78536,-0.8738 1.20947,-1.84352 1.27341,-2.89839 0.0629,-1.06561 -0.24722,-2.07788 -0.93028,-3.04767 -0.9452,-1.33201 -2.19196,-2.07788 -3.74025,-2.23784 -1.54939,-0.14912 -3.39929,0.53279 -5.54966,2.04602 -2.28261,1.60915 -3.61773,3.16493 -4.00663,4.67801 -0.38896,1.5025 -0.11934,2.90906 0.80773,4.2198 0.68413,0.9697 1.5803,1.58776 2.68856,1.85419 1.10823,0.25575 2.43061,0.0746 3.96728,-0.55412 z"
     id="path40"
     inkscape:connector-curvature="0"
     style="stroke-width:1.59322059" />
  <path
     d="m 375.54951,262.0445 19.87702,-9.23877 1.87968,4.04933 -16.49939,7.6618 4.67594,10.05943 -3.37699,1.5771 -6.55563,-14.1086 z"
     id="path42"
     inkscape:connector-curvature="0"
     style="stroke-width:1.59322059" />
  <path
     d="m 404.29121,272.67128 1.12207,4.31572 -11.58319,3.00497 c -1.83922,0.47953 -3.01677,0.84183 -3.53361,1.09757 -0.82691,0.40495 -1.41618,1.03367 -1.76465,1.86486 -0.3495,0.83117 -0.36762,1.85419 -0.0543,3.05835 0.31863,1.22544 0.8088,2.08855 1.47161,2.57879 0.66175,0.49018 1.37465,0.70331 2.13763,0.63937 0.76191,-0.0639 1.98945,-0.30903 3.68161,-0.75659 l 11.83253,-3.06902 1.12102,4.31572 -11.23363,2.91973 c -2.56812,0.67134 -4.41163,1.02298 -5.53262,1.06561 -1.12102,0.0425 -2.12695,-0.15984 -3.01995,-0.59674 -0.89192,-0.43691 -1.69105,-1.11888 -2.39652,-2.05668 -0.70543,-0.9484 -1.27874,-2.25919 -1.71781,-3.95342 -0.53067,-2.03534 -0.69798,-3.65501 -0.49977,-4.82714 0.19713,-1.18284 0.59354,-2.17379 1.1871,-2.98379 0.5946,-0.80986 1.27978,-1.41726 2.05669,-1.82216 1.15191,-0.6074 2.92515,-1.2148 5.31737,-1.83284 l 11.40841,-2.96244 z"
     id="path44"
     inkscape:connector-curvature="0"
     style="stroke-width:1.59322059" />
  <path
     d="m 406.58544,302.32112 -5.10005,0.29836 0.17264,2.91973 c 0.1034,1.73693 0.1918,2.81315 0.26745,3.22882 0.13638,0.75659 0.43477,1.34267 0.89619,1.74761 0.46248,0.41559 1.05069,0.59674 1.76258,0.5541 0.68199,-0.0425 1.22439,-0.25574 1.62938,-0.66067 0.40387,-0.40494 0.6287,-0.98036 0.67559,-1.72626 0.0223,-0.44755 -0.0277,-1.71558 -0.15135,-3.80429 l -0.15247,-2.55744 z m -8.77211,0.51148 -5.8981,0.35166 0.24508,4.12389 c 0.0948,1.60915 0.20033,2.62149 0.3165,3.04767 0.15983,0.65002 0.48591,1.17218 0.97608,1.56646 0.49126,0.38361 1.1285,0.56476 1.91059,0.51148 0.6628,-0.0427 1.21372,-0.23444 1.65695,-0.58608 0.44223,-0.341 0.7502,-0.83118 0.92496,-1.44922 0.17476,-0.61806 0.20245,-1.93943 0.0809,-3.9641 l -0.21313,-3.60179 z m 12.1789,-5.18944 0.52428,8.81259 c 0.1034,1.7476 0.10866,3.05834 0.0143,3.92139 -0.0948,0.8738 -0.35273,1.65169 -0.77364,2.35494 -0.42091,0.70331 -1.00167,1.31071 -1.74235,1.80097 -0.74166,0.50083 -1.58775,0.77789 -2.54039,0.83117 -1.03363,0.0639 -1.99805,-0.15983 -2.89424,-0.66067 -0.89617,-0.51149 -1.58669,-1.22546 -2.07469,-2.1526 -0.31116,1.36398 -0.91856,2.44017 -1.81691,3.21814 -0.90044,0.77791 -1.9885,1.20414 -3.2618,1.27874 -1.00274,0.0639 -1.99264,-0.11727 -2.96769,-0.52215 -0.9761,-0.41559 -1.77103,-1.00167 -2.38585,-1.77963 -0.61592,-0.76724 -1.02192,-1.7476 -1.22332,-2.91973 -0.12459,-0.74593 -0.28132,-2.52558 -0.46887,-5.36008 l -0.44649,-7.51251 22.05814,-1.31069 z"
     id="path46"
     inkscape:connector-curvature="0"
     style="stroke-width:1.59322059" />
  <path
     d="m 388.78917,320.26078 21.92431,2.78128 -2.05765,16.25085 -3.70838,-0.46887 1.49718,-11.82822 -4.86123,-0.61806 -1.39169,11.00772 -3.69341,-0.46887 1.3917,-10.99705 -5.9663,-0.75657 -1.54939,12.2439 -3.6934,-0.46887 2.10879,-16.67624 z"
     id="path48"
     inkscape:connector-curvature="0"
     style="stroke-width:1.59322059" />
  <path
     d="m 178.18613,385.45536 1.17217,4.39028 c -2.38697,0.73527 -4.49687,0.76725 -6.30836,0.10659 -1.82217,-0.67134 -3.36727,-2.00332 -4.64599,-4.00663 -1.5771,-2.4722 -2.03534,-5.04032 -1.36399,-7.71501 0.67134,-2.6747 2.4722,-4.94441 5.40261,-6.81994 3.10089,-1.98197 6.02078,-2.7174 8.75937,-2.21649 2.72791,0.51148 4.93372,2.06736 6.60677,4.66734 1.44922,2.28037 1.96077,4.56075 1.52381,6.84129 -0.25575,1.36397 -0.99101,2.72791 -2.20581,4.10254 l -3.27152,-3.15426 c 0.82054,-0.83117 1.28941,-1.77963 1.40662,-2.8345 0.11727,-1.05496 -0.14912,-2.08855 -0.78854,-3.09021 -0.88448,-1.37463 -2.09923,-2.18446 -3.63382,-2.40831 -1.54514,-0.22378 -3.42065,0.37296 -5.63713,1.79014 -2.35494,1.5025 -3.7616,3.00498 -4.21981,4.48619 -0.45821,1.4812 -0.25576,2.90906 0.60739,4.2625 0.63937,1.00168 1.51317,1.6517 2.60013,1.97146 1.09759,0.30903 2.42966,0.18116 3.99612,-0.37296 z"
     id="path50"
     inkscape:connector-curvature="0"
     style="stroke-width:1.59322059" />
  <path
     d="m 192.0822,401.03706 3.86818,-7.85362 -8.01342,3.46318 4.14524,4.39028 z m -0.71395,11.97751 -3.33541,-3.5379 2.32307,-4.84849 -6.06332,-6.41494 -4.90186,2.12057 -3.25017,-3.44199 21.97211,-8.91917 3.23949,3.43132 -9.98471,21.61044 z"
     id="path52"
     inkscape:connector-curvature="0"
     style="stroke-width:1.59322059" />
  <path
     d="m 195.2782,416.33198 12.64874,-18.12607 5.47717,3.82548 -5.33872,14.65221 11.8816,-10.0913 5.48784,3.83616 -12.64873,18.11491 -3.39929,-2.36561 9.95284,-14.26856 -13.55448,11.75366 -3.51655,-2.46152 6.3724,-16.76228 -9.96352,14.26857 -3.3993,-2.37629 z"
     id="path54"
     inkscape:connector-curvature="0"
     style="stroke-width:1.59322059" />
  <path
     d="m 230.60308,416.79401 -2.50422,5.75424 2.23784,0.96969 c 1.60915,0.71396 2.72791,1.07627 3.36727,1.09759 0.62871,0.032 1.20414,-0.11726 1.71558,-0.43691 0.50084,-0.30902 0.88446,-0.76723 1.15086,-1.37463 0.31968,-0.73527 0.36231,-1.42792 0.13861,-2.09923 -0.22378,-0.67132 -0.63936,-1.20412 -1.24676,-1.61967 -0.44757,-0.30902 -1.40661,-0.7779 -2.8772,-1.41726 l -1.98196,-0.8738 z m -11.44457,15.04638 8.85527,-20.2578 6.56423,2.86652 c 2.48287,1.08693 4.06,1.89673 4.73123,2.42966 1.02297,0.82052 1.7049,1.89689 2.04601,3.26084 0.33034,1.36398 0.14913,2.84518 -0.55414,4.45433 -0.54345,1.24676 -1.22544,2.19514 -2.04601,2.84517 -0.82051,0.65002 -1.68372,1.06561 -2.58946,1.2361 -0.90577,0.18115 -1.75828,0.19181 -2.54677,0.032 -1.05496,-0.22379 -2.5149,-0.74593 -4.35841,-1.5558 l -2.6747,-1.17218 -3.3354,7.64045 -4.09187,-1.77963 z"
     id="path56"
     inkscape:connector-curvature="0"
     style="stroke-width:1.59322059" />
  <path
     d="m 239.8103,440.07096 6.10602,-21.23763 4.28369,1.22544 -6.09534,21.23763 -4.29437,-1.22545 z"
     id="path58"
     inkscape:connector-curvature="0"
     style="stroke-width:1.59322059" />
  <path
     d="m 249.69942,443.05029 3.5591,-21.81279 4.28369,0.69266 6.55355,16.0262 2.37629,-14.56681 4.08136,0.66067 -3.54842,21.81278 -4.42231,-0.71397 -6.46831,-15.65387 -2.32308,14.2152 -4.09187,-0.66068 z"
     id="path60"
     inkscape:connector-curvature="0"
     style="stroke-width:1.59322059" />
  <path
     d="m 285.78746,437.29876 -3.28203,-8.10933 -2.74926,8.2798 6.03129,-0.17049 z m 8.46096,8.5035 -4.85916,0.13861 -2.06737,-4.96575 -8.83393,0.25576 -1.68371,5.07233 -4.73123,0.12794 7.9814,-22.33536 4.71004,-0.12794 9.48396,21.83509 z"
     id="path62"
     inkscape:connector-curvature="0"
     style="stroke-width:1.59322059" />
  <path
     d="m 296.46204,438.1591 4.15592,-1.32136 c 0.56476,1.36398 1.31069,2.30173 2.23783,2.80248 0.91642,0.50083 2.04602,0.60738 3.36727,0.33034 1.40661,-0.30904 2.40832,-0.83119 2.9943,-1.57711 0.58609,-0.74592 0.78855,-1.52382 0.61806,-2.31241 -0.10659,-0.51148 -0.35165,-0.91642 -0.73527,-1.21478 -0.37297,-0.28773 -0.95905,-0.4902 -1.76895,-0.59675 -0.54347,-0.0639 -1.77963,-0.12794 -3.68703,-0.19181 -2.4722,-0.0852 -4.26251,-0.43691 -5.39194,-1.08693 -1.57711,-0.90576 -2.54676,-2.20581 -2.91974,-3.92139 -0.23444,-1.09757 -0.13861,-2.19514 0.27707,-3.28204 0.41557,-1.09758 1.1615,-2.01399 2.22716,-2.77061 1.06561,-0.75659 2.42966,-1.31071 4.09187,-1.66236 2.71723,-0.58609 4.88051,-0.42625 6.51085,0.46886 1.61967,0.89511 2.68537,2.32308 3.17545,4.29437 l -4.32639,1.12956 c -0.41559,-1.06562 -0.99102,-1.77962 -1.70507,-2.14192 -0.72461,-0.35166 -1.69439,-0.39428 -2.91973,-0.12794 -1.26808,0.2664 -2.20582,0.74593 -2.81315,1.41727 -0.39428,0.43691 -0.53281,0.92708 -0.40493,1.49186 0.10658,0.51148 0.41559,0.90576 0.92708,1.17216 0.65003,0.341 2.08855,0.53281 4.31571,0.58608 2.23784,0.0427 3.91072,0.22379 5.05099,0.54347 1.12954,0.31968 2.07788,0.8738 2.85585,1.68371 0.76723,0.79921 1.31071,1.88606 1.59847,3.26069 0.26641,1.23611 0.17049,2.46152 -0.28772,3.6977 -0.45822,1.22544 -1.25743,2.23784 -2.39763,3.037 -1.15085,0.78855 -2.66403,1.39596 -4.53941,1.7903 -2.72791,0.58608 -4.96575,0.40493 -6.692,-0.54346 -1.73693,-0.9484 -3.00497,-2.60014 -3.81481,-4.95508 z"
     id="path64"
     inkscape:connector-curvature="0"
     style="stroke-width:1.59322059" />
  <path
     d="m 355.42713,422.06757 -3.52723,2.34427 -8.8446,-13.2881 c -0.47953,2.06736 -1.40661,3.96409 -2.77061,5.70102 l -2.13126,-3.1968 c 0.71396,-0.91642 1.34266,-2.15244 1.86487,-3.70838 0.51149,-1.55578 0.60738,-3.03699 0.25574,-4.4223 l 2.86653,-1.9074 12.28643,18.47817 z"
     id="path66"
     inkscape:connector-curvature="0"
     style="stroke-width:1.59322059" />
  <path
     d="m 359.76069,400.03333 c -0.91642,-1.01233 -1.85419,-1.58776 -2.82382,-1.73693 -0.9697,-0.13861 -1.76896,0.0746 -2.37629,0.61806 -0.5861,0.52215 -0.86316,1.19348 -0.83118,1.99264 0.0213,0.80985 0.5115,1.73693 1.44922,2.78129 0.9484,1.06561 1.86487,1.65169 2.72791,1.77962 0.86315,0.11726 1.60916,-0.10658 2.23784,-0.67133 0.6074,-0.54347 0.90576,-1.23612 0.88445,-2.08856 -0.0112,-0.8525 -0.4369,-1.7476 -1.26808,-2.67469 z m -0.94838,13.29877 2.74926,-3.07969 c 0.62872,0.55413 1.23612,0.84184 1.82105,0.86316 0.5829,0.0111 1.13382,-0.21313 1.64851,-0.682 0.65108,-0.57544 0.9356,-1.37464 0.85355,-2.38696 -0.0809,-1.00168 -0.90576,-2.50423 -2.47013,-4.50754 0.033,1.63034 -0.54239,2.98378 -1.73581,4.04933 -1.2894,1.1615 -2.85585,1.67304 -4.68869,1.51316 -1.83284,-0.15985 -3.47386,-1.03365 -4.91254,-2.632 -1.49184,-1.67304 -2.20581,-3.45251 -2.13125,-5.37075 0.0746,-1.9074 0.87379,-3.54842 2.40831,-4.92305 1.67305,-1.50252 3.61247,-2.08855 5.83948,-1.75828 2.22716,0.33034 4.66734,1.97145 7.32387,4.92305 2.70131,3.00498 4.09091,5.67968 4.17185,8.00275 0.0821,2.33375 -0.76937,4.30504 -2.55744,5.90352 -1.28512,1.16152 -2.63311,1.7476 -4.03865,1.77963 -1.40449,0.032 -2.83243,-0.53281 -4.28162,-1.69423 z"
     id="path68"
     inkscape:connector-curvature="0"
     style="stroke-width:1.59322059" />
  <path
     d="m 383.1173,395.79536 -2.70449,3.26069 -12.28118,-10.19789 c 0.12364,2.12058 -0.21951,4.20913 -1.02724,6.26582 l -2.95702,-2.46152 c 0.42838,-1.07627 0.66815,-2.44018 0.71822,-4.0812 0.0523,-1.64102 -0.28665,-3.07969 -1.01445,-4.31571 l 2.19514,-2.64268 17.07136,14.17265 z"
     id="path70"
     inkscape:connector-curvature="0"
     style="stroke-width:1.59322059" />
  <path
     d="m 392.86781,381.55197 -2.25488,3.58045 -13.51625,-8.48231 c 0.40175,2.07788 0.33675,4.18778 -0.19394,6.34038 l -3.25431,-2.04601 c 0.2824,-1.12955 0.33993,-2.5149 0.17583,-4.14524 -0.16729,-1.64102 -0.69052,-3.01565 -1.57497,-4.14524 l 1.82966,-2.90907 18.78885,11.80704 z"
     id="path72"
     inkscape:connector-curvature="0"
     style="stroke-width:1.59322059" />
  <path
     d="m 211.94488,314.98722 c 0,-28.0359 16.91044,-52.1716 41.07959,-62.79679 v -13.51194 c -31.23349,11.29545 -53.62142,41.23892 -53.62142,76.30889 0,35.07953 22.38793,65.02411 53.62142,76.30889 v -82.59574 h -5.45598 v -0.0959 h -19.41498 v 12.54215 h 12.32913 v 49.45516 c -17.27369,-12.45709 -28.53776,-32.73592 -28.53776,-55.61456 z"
     id="path74"
     inkscape:connector-curvature="0"
     style="stroke-width:1.59322059" />
  <path
     d="m 280.52665,246.4166 c 7.74703,0 15.18498,1.30004 22.12187,3.68703 v -13.13897 c -7.03312,-1.99264 -14.44972,-3.09021 -22.12187,-3.09021 -7.78958,0 -15.31276,1.11889 -22.44211,3.17545 v 155.87751 c 4.06001,1.17216 8.24779,2.04601 12.54215,2.56811 v -74.34764 h 32.02214 v -12.54215 h -32.01576 v -61.41387 c 3.23949,-0.47951 6.5322,-0.76723 9.89947,-0.76723 z"
     id="path76"
     inkscape:connector-curvature="0"
     style="stroke-width:1.59322059" />
  <path
     d="m 343.47798,342.1357 c -4.9871,11.50862 -13.03239,21.4081 -23.12401,28.63336 V 259.23087 c 9.72901,6.95839 17.57163,16.39902 22.59028,27.38587 l 11.28478,-5.36007 c -9.08964,-19.74638 -25.80858,-35.26116 -46.41848,-42.64574 v 152.77551 c 21.23763,-7.61909 38.38387,-23.84891 47.24855,-44.45722 l -11.58319,-4.79528 z"
     id="path78"
     inkscape:connector-curvature="0"
     style="stroke-width:1.59322059" />
  <path
     d="m 279.94194,223.28304 c -50.53059,0 -91.6532,41.11146 -91.6532,91.6532 0,50.53058 41.12261,91.65319 91.6532,91.65319 50.53058,0 91.64841,-41.12261 91.64841,-91.65319 0,-50.54174 -41.11624,-91.6532 -91.64841,-91.6532 z m 0,190.02341 c -54.2396,0 -98.37659,-44.13699 -98.37659,-98.37659 0,-54.25075 44.13699,-98.37659 98.37659,-98.37659 54.2396,0 98.3718,44.12743 98.3718,98.37659 0,54.2396 -44.1322,98.37659 -98.3718,98.37659 z"
     id="path80"
     inkscape:connector-curvature="0"
     style="stroke-width:1.59322059" />
  <path
     d="m 327.46611,429.36452 c 2.54676,0 4.6248,-2.0672 4.6248,-4.6248 0,-2.54676 -2.07788,-4.6248 -4.6248,-4.6248 -2.54676,0 -4.6248,2.07788 -4.6248,4.6248 0,2.54676 2.07788,4.6248 4.6248,4.6248 z"
     id="path82"
     inkscape:connector-curvature="0"
     style="stroke-width:1.59322059" />
  <path
     d="m 389.06002,362.70417 c 2.54995,0 4.62161,-2.06736 4.62161,-4.6248 0,-2.55743 -2.0715,-4.6248 -4.62161,-4.6248 -2.54677,0 -4.6205,2.06737 -4.6205,4.6248 0,2.55744 2.07373,4.6248 4.6205,4.6248 z"
     id="path84"
     inkscape:connector-curvature="0"
     style="stroke-width:1.59322059" />
  <path
     d="m 168.0421,360.82417 c 2.54676,0 4.6248,-2.06736 4.6248,-4.61412 0,-2.55744 -2.07788,-4.63532 -4.6248,-4.63532 -2.54677,0 -4.6248,2.07788 -4.6248,4.63532 0,2.54676 2.07787,4.61412 4.6248,4.61412 z"
     id="path86"
     inkscape:connector-curvature="0"
     style="stroke-width:1.59322059" />
</svg>
