<?xml version="1.0" encoding="UTF-8" standalone="no"?>
<!-- Created with Inkscape (http://www.inkscape.org/) -->

<svg
   xmlns:dc="http://purl.org/dc/elements/1.1/"
   xmlns:cc="http://creativecommons.org/ns#"
   xmlns:rdf="http://www.w3.org/1999/02/22-rdf-syntax-ns#"
   xmlns:svg="http://www.w3.org/2000/svg"
   xmlns="http://www.w3.org/2000/svg"
   xmlns:sodipodi="http://sodipodi.sourceforge.net/DTD/sodipodi-0.dtd"
   xmlns:inkscape="http://www.inkscape.org/namespaces/inkscape"
   version="1.1"
   id="svg2"
   xml:space="preserve"
   width="700"
   height="700"
   viewBox="0 0 700 700"
   sodipodi:docname="ponte-preta-logo-escudo.svg"
   inkscape:export-filename="C:\Users\suitedoalex\sites\ponte-preta-logo-escudo-4.png"
   inkscape:export-xdpi="97.989677"
   inkscape:export-ydpi="97.989677"
   inkscape:version="0.92.4 (5da689c313, 2019-01-14)"><metadata
     id="metadata8"><rdf:RDF><cc:Work
         rdf:about=""><dc:format>image/svg+xml</dc:format><dc:type
           rdf:resource="http://purl.org/dc/dcmitype/StillImage" /><dc:title></dc:title></cc:Work></rdf:RDF></metadata><defs
     id="defs6"><clipPath
       clipPathUnits="userSpaceOnUse"
       id="clipPath34"><path
         d="m 354.115,361.0321 40.8436,-34.8956 c -15.4761,-27.671 -14.7371,-67.5522 1.0397,-99.4522 30.0146,-66.4616 -25.5759,-100.8748 -72.0904,-111.3375 -23.55,-6.0412 -30.7588,-10.8731 -40.4433,-18.0073 -9.6846,7.1342 -16.8934,11.9661 -40.4433,18.0073 -46.5146,10.4627 -102.1051,44.8759 -72.0905,111.3375 15.7765,31.9 16.5155,71.7812 1.0398,99.4522 l 40.8433,34.8956 c 48.4443,-23.0941 95.5057,-22.3807 141.3011,0"
         id="path32"
         inkscape:connector-curvature="0"
         style="clip-rule:evenodd" /></clipPath></defs><sodipodi:namedview
     pagecolor="#ffffff"
     bordercolor="#666666"
     borderopacity="1"
     objecttolerance="10"
     gridtolerance="10"
     guidetolerance="10"
     inkscape:pageopacity="0"
     inkscape:pageshadow="2"
     inkscape:window-width="1600"
     inkscape:window-height="837"
     id="namedview4"
     showgrid="false"
     inkscape:zoom="0.62441671"
     inkscape:cx="331.59893"
     inkscape:cy="241.38187"
     inkscape:window-x="-8"
     inkscape:window-y="-8"
     inkscape:window-maximized="1"
     inkscape:current-layer="g10" /><g
     id="g10"
     inkscape:groupmode="layer"
     inkscape:label="ManualdeIdentidadeVisualPontePreta (1)"
     transform="matrix(1.3333333,0,0,-1.3333333,0,700.00001)"><path
       d="m 337.11366,426.35371 69.829,-59.6591 -11.5158,-21.571 -0.8589,-1.77 -0.8087,-1.8391 -0.7583,-1.9114 -0.7047,-1.9783 -0.6482,-2.0401 -0.5911,-2.1025 -0.5315,-2.1605 -0.4705,-2.217 -0.4071,-2.2655 -0.3418,-2.3082 -0.2761,-2.3548 -0.2098,-2.3949 -0.1414,-2.4234 -0.0726,-2.4545 -0.003,-2.4837 0.0664,-2.5024 0.1372,-2.5158 0.2078,-2.5293 0.2789,-2.5373 0.3486,-2.539 0.4193,-2.5348 0.4895,-2.5302 0.5602,-2.5205 0.629,-2.5084 0.6967,-2.4863 0.764,-2.4596 0.8319,-2.4353 0.898,-2.4054 0.9624,-2.3678 1.0267,-2.3295 1.5469,-3.2477 3.1325,-7.4936 2.6366,-7.5365 2.0979,-7.4931 1.5539,-7.4441 1.0015,-7.3811 0.445,-7.2995 -0.1136,-7.1847 -0.6645,-7.0373 -1.2021,-6.8468 -1.7124,-6.6178 -2.1904,-6.3527 -2.6274,-6.0633 -3.0217,-5.7509 -3.3673,-5.4275 -3.6717,-5.1027 -3.9357,-4.786 -4.1632,-4.4739 -4.3554,-4.1757 -4.5236,-3.892 -4.6641,-3.6241 -4.7866,-3.3692 -4.886,-3.1272 -4.97,-2.8982 -5.0383,-2.6815 -5.0908,-2.473 -5.1276,-2.2742 -5.1505,-2.0824 -5.1616,-1.8995 -5.1582,-1.72 -5.1407,-1.548 -5.1114,-1.3796 -4.4926,-1.0778 -1.8286,-0.4765 -1.8678,-0.5023 -1.7643,-0.4906 -1.6679,-0.4808 -1.5729,-0.4694 -1.4749,-0.4567 -1.3856,-0.4464 -1.3048,-0.4369 -1.2172,-0.424 -1.1355,-0.4125 -1.0616,-0.4019 -0.9947,-0.3935 -0.9243,-0.3807 -0.8632,-0.3721 -0.811,-0.3646 -0.7642,-0.3588 -0.7243,-0.3544 -0.6808,-0.3472 -0.6492,-0.3447 -0.6307,-0.3487 -0.6191,-0.3552 -0.6069,-0.3614 -0.6049,-0.3724 -0.6162,-0.3915 -0.6319,-0.413 -0.6409,-0.43 -0.6639,-0.4556 -0.6981,-0.4892 -0.7288,-0.5188 -0.7642,-0.5522 -0.7994,-0.5828 -15.8017,-11.625396 -15.8123,11.621996 -0.8042,0.5862 -0.7679,0.5548 -0.731,0.521 -0.6931,0.4859 -0.6607,0.4535 -0.6421,0.4306 -0.6318,0.413 -0.6163,0.3915 -0.6052,0.3724 -0.6066,0.3614 -0.6191,0.3552 -0.6307,0.3487 -0.6491,0.3447 -0.6809,0.3472 -0.7243,0.3544 -0.7642,0.3588 -0.811,0.3646 -0.8631,0.3721 -0.9244,0.3807 -0.9947,0.3935 -1.0616,0.4019 -1.1355,0.4125 -1.2172,0.424 -1.3048,0.4369 -1.3856,0.4464 -1.4748,0.4567 -1.573,0.4694 -1.6682,0.4808 -1.764,0.4906 -1.8677,0.5023 -1.8286,0.4765 -4.4927,1.0778 -5.1114,1.3796 -5.1406,1.548 -5.1582,1.72 -5.1617,1.8995 -5.1505,2.0824 -5.1276,2.2742 -5.0907,2.473 -5.0386,2.6815 -4.9697,2.8982 -4.8861,3.1272 -4.7866,3.3692 -4.6641,3.6241 -4.5235,3.892 -4.3555,4.1757 -4.1632,4.4739 -3.9356,4.786 -3.6717,5.1027 -3.3676,5.4275 -3.0215,5.7509 -2.6274,6.0633 -2.1903,6.3527 -1.7124,6.6178 -1.2022,6.8468 -0.6644,7.0373 -0.1137,7.1847 0.445,7.2995 1.0015,7.3811 1.554,7.4441 2.0979,7.4931 2.6365,7.5365 3.1323,7.4936 1.5471,3.2477 1.0267,2.3295 0.9624,2.3678 0.8977,2.4054 0.8323,2.4353 0.7639,2.4596 0.6968,2.4863 0.629,2.5084 0.5601,2.5205 0.4895,2.5302 0.4193,2.5348 0.3486,2.539 0.279,2.5373 0.2078,2.5293 0.1372,2.5158 0.0663,2.5024 -0.003,2.4837 -0.0725,2.4545 -0.1415,2.4234 -0.2097,2.3949 -0.2764,2.3548 -0.3416,2.3082 -0.4071,2.2655 -0.4705,2.217 -0.5315,2.1605 -0.591,2.1025 -0.6483,2.0401 -0.705,1.9783 -0.758,1.9114 -0.8087,1.8391 -0.8589,1.77 -11.5157,21.571 69.6985,59.5483 18.8615,-8.7106 3.9441,-1.7036 3.9163,-1.5747 3.89,-1.447 3.8673,-1.323 3.8415,-1.199 3.8169,-1.0772 3.7944,-0.9561 3.7741,-0.8388 3.7531,-0.7203 3.7335,-0.6049 3.7173,-0.4898 3.7035,-0.377 3.6859,-0.2639 3.6762,-0.1525 3.6678,-0.0417 3.6575,0.0689 3.6516,0.1794 3.6479,0.2891 3.6479,0.3997 3.6459,0.5091 3.6451,0.62 3.6496,0.7313 3.6562,0.8433 3.66,0.955 3.6678,1.0684 3.6751,1.1818 3.6839,1.2968 3.6944,1.4122 3.7046,1.529 3.7151,1.6464 18.7109,8.8605 z"
       style="fill:#231f20;fill-opacity:1;fill-rule:evenodd;stroke:none"
       id="path24"
       inkscape:connector-curvature="0" /><path
       d="m 335.57276,414.20131 58.5564,-50.0289 -7.5832,-14.2047 -1.0338,-2.1305 -0.9663,-2.198 -0.8986,-2.2655 -0.8297,-2.3283 -0.7586,-2.3865 -0.6871,-2.4446 -0.614,-2.4971 -0.5408,-2.5483 -0.4658,-2.5929 -0.3897,-2.6322 -0.3135,-2.6722 -0.2376,-2.708 -0.1593,-2.7346 -0.0813,-2.7609 -0.003,-2.785 0.0742,-2.8015 0.1539,-2.8131 0.2316,-2.8228 0.311,-2.8289 0.3883,-2.8285 0.4672,-2.8238 0.5454,-2.8171 0.623,-2.8057 0.7002,-2.7919 0.7764,-2.77 0.8521,-2.7448 0.9289,-2.7181 1.0035,-2.6878 1.0777,-2.651 1.1509,-2.6121 1.5035,-3.1567 2.912,-6.9658 2.4208,-6.92 1.9097,-6.8216 1.4028,-6.72 0.8972,-6.6107 0.3957,-6.4911 -0.1003,-6.3513 -0.5848,-6.1923 -1.0548,-6.0071 -1.5006,-5.7995 -1.9208,-5.5703 -2.308,-5.3272 -2.6637,-5.0694 -2.9826,-4.8068 -3.2686,-4.543 -3.5241,-4.2855 -3.7508,-4.0305 -3.9481,-3.7851 -4.1246,-3.5493 -4.2778,-3.3233 -4.4127,-3.1062 -4.5269,-2.8973 -4.625,-2.6975 -4.7067,-2.505 -4.7721,-2.3179 -4.8212,-2.1384 -4.8552,-1.9627 -4.8744,-1.7938 -4.879,-1.6271 -4.8674,-1.4658 -4.843,-1.307 -4.4504,-1.0678 -1.9579,-0.5097 -1.9457,-0.5236 -1.8479,-0.5139 -1.7555,-0.506 -1.6662,-0.4972 -1.5755,-0.4881 -1.4913,-0.4802 -1.4144,-0.4736 -1.3349,-0.4652 -1.2586,-0.4572 -1.1908,-0.4507 -1.1262,-0.4457 -1.0636,-0.4379 -1.0051,-0.4334 -0.9547,-0.4289 -0.91,-0.4275 -0.8696,-0.4252 -0.8283,-0.4226 -0.7957,-0.4227 -0.7722,-0.4269 -0.7557,-0.4337 -0.7387,-0.4399 -0.7293,-0.4484 -0.7302,-0.4643 -0.7345,-0.48 -0.737,-0.4943 -0.7475,-0.5131 -0.7679,-0.538 -0.7875,-0.5607 -0.8098,-0.5848 -0.8351,-0.6089 -10.0069,-7.3621 -10.0134,7.3599 -0.837,0.61 -0.8127,0.5873 -0.7889,0.5618 -0.7648,0.5364 -0.7464,0.5122 -0.737,0.4943 -0.7347,0.48 -0.7299,0.4643 -0.7294,0.4484 -0.7387,0.4399 -0.756,0.4337 -0.7719,0.4269 -0.7957,0.4227 -0.8282,0.4226 -0.8697,0.4252 -0.9099,0.4275 -0.9547,0.4289 -1.0055,0.4334 -1.0633,0.4379 -1.1264,0.4457 -1.1906,0.4507 -1.2586,0.4572 -1.3348,0.4652 -1.4148,0.4736 -1.491,0.4802 -1.5755,0.4881 -1.6662,0.4972 -1.7555,0.506 -1.8479,0.5139 -1.9457,0.5236 -1.9582,0.5097 -4.4501,1.0678 -4.843,1.307 -4.8676,1.4658 -4.879,1.6271 -4.8745,1.7938 -4.8549,1.9627 -4.8212,2.1384 -4.7721,2.3179 -4.7066,2.505 -4.625,2.6975 -4.527,2.8973 -4.4127,3.1062 -4.2777,3.3233 -4.1247,3.5493 -3.9481,3.7851 -3.7508,4.0305 -3.524,4.2855 -3.269,4.543 -2.9823,4.8068 -2.6637,5.0694 -2.3083,5.3272 -1.9207,5.5703 -1.5004,5.7995 -1.0548,6.0071 -0.5847,6.1923 -0.1004,6.3513 0.3957,6.4911 0.8969,6.6107 1.4029,6.72 1.91,6.8216 2.4207,6.92 2.9118,6.9658 1.5035,3.1567 1.1511,2.6121 1.0778,2.651 1.0034,2.6878 0.9287,2.7181 0.8523,2.7448 0.7764,2.77 0.7002,2.7919 0.6231,2.8057 0.5451,2.8171 0.4671,2.8238 0.3886,2.8285 0.311,2.8289 0.2316,2.8228 0.1536,2.8131 0.0743,2.8015 -0.003,2.785 -0.0814,2.7609 -0.1593,2.7346 -0.2375,2.708 -0.3135,2.6722 -0.3898,2.6322 -0.466,2.5929 -0.5409,2.5483 -0.6137,2.4971 -0.6871,2.4446 -0.7585,2.3865 -0.8297,2.3283 -0.8986,2.2655 -0.9666,2.198 -1.0338,2.1305 -7.583,14.2047 58.4771,49.9609 13.291,-6.1382 4.1718,-1.8017 4.1516,-1.6693 4.1324,-1.5372 4.1156,-1.4077 4.0966,-1.279 4.0785,-1.1508 4.0615,-1.0236 4.0461,-0.8989 4.0301,-0.7736 4.0152,-0.6505 4.0026,-0.5273 3.9903,-0.4065 3.9767,-0.2848 3.9677,-0.1645 3.96,-0.0447 3.9503,0.0742 3.9439,0.1939 3.9384,0.3121 3.9359,0.4312 3.9314,0.549 3.928,0.6682 3.9277,0.7869 3.9288,0.9062 3.9282,1.025 3.9297,1.1449 3.9317,1.264 3.9342,1.385 3.9373,1.5052 3.9407,1.6265 3.9441,1.7476 13.106,6.2064 z"
       style="fill:#ffffff;fill-opacity:1;fill-rule:evenodd;stroke:none"
       id="path26"
       inkscape:connector-curvature="0" /><g
       id="g28"
       transform="translate(-20.964143,34.072514)"><g
         id="g30"
         clip-path="url(#clipPath34)"><path
           d="m 263.8488,358.1974 h 39.1975 V 100.5375 h -39.1975 z"
           style="fill:#231f20;fill-opacity:1;fill-rule:evenodd;stroke:none"
           id="path36"
           inkscape:connector-curvature="0" /><path
           d="M 334.3686,358.1974 H 303.0463 V 100.5375 h 31.3223 z"
           style="fill:#ffffff;fill-opacity:1;fill-rule:evenodd;stroke:none"
           id="path38"
           inkscape:connector-curvature="0" /><path
           d="m 193.3367,357.834 h 39.1975 V 100.1738 h -39.1975 z"
           style="fill:#231f20;fill-opacity:1;fill-rule:evenodd;stroke:none"
           id="path40"
           inkscape:connector-curvature="0" /><path
           d="M 263.8568,357.834 H 232.5342 V 100.1738 h 31.3226 z"
           style="fill:#ffffff;fill-opacity:1;fill-rule:evenodd;stroke:none"
           id="path42"
           inkscape:connector-curvature="0" /><path
           d="M 193.3705,357.834 H 162.0482 V 100.1738 h 31.3223 z"
           style="fill:#ffffff;fill-opacity:1;fill-rule:evenodd;stroke:none"
           id="path44"
           inkscape:connector-curvature="0" /><path
           d="m 334.3609,358.1974 h 39.1975 V 100.5375 h -39.1975 z"
           style="fill:#231f20;fill-opacity:1;fill-rule:evenodd;stroke:none"
           id="path46"
           inkscape:connector-curvature="0" /><path
           d="M 404.8809,358.1974 H 373.5584 V 100.5375 h 31.3225 z"
           style="fill:#ffffff;fill-opacity:1;fill-rule:evenodd;stroke:none"
           id="path48"
           inkscape:connector-curvature="0" /></g></g><path
       d="m 335.12656,397.41311 40.8433,-34.8953 1.8967,-1.6206 -1.2184,-2.1758 -0.017,-0.0307 -0.005,0.003 c -2.0721,-3.7103 -3.8463,-7.666 -5.3251,-11.8134 -1.4803,-4.1514 -2.6589,-8.4901 -3.538,-12.9603 -4.5379,-23.0729 -1.0632,-49.4555 9.9964,-71.8183 l 0.0476,-0.0952 c 3.1502,-6.9753 5.3876,-13.6333 6.8148,-19.9789 4.8544,-21.5819 0.2849,-39.3321 -9.6622,-53.5799 -9.8314,-14.0817 -24.8884,-24.6277 -41.2217,-32.004 -9.8478,-4.4473 -20.1872,-7.7516 -30.1277,-9.9876 l -6e-4,0.002 c -11.5115,-2.9566 -19.0046,-5.603 -24.7779,-8.3699 -5.6905,-2.7275 -9.8053,-5.6446 -14.5344,-9.1281 l -1.7968,-1.3238 -1.7969,1.3238 c -4.7291,3.4835 -8.8438,6.4006 -14.5344,9.1281 -5.7733,2.7669 -13.2667,5.4133 -24.7779,8.3699 l -6e-4,-0.002 c -9.9405,2.2357 -20.2799,5.5403 -30.1277,9.9876 -16.3332,7.3763 -31.3903,17.9223 -41.2217,32.004 -9.9474,14.2478 -14.5165,31.998 -9.6622,53.5799 1.4273,6.3456 3.6646,13.0036 6.8145,19.9789 l 0.0476,0.0952 0.0176,0.0354 c 2.1447,4.3404 4.0056,8.8399 5.5789,13.4436 1.5786,4.6188 2.8632,9.3237 3.8508,14.0607 5.0772,24.3522 2.4421,49.8206 -8.3361,69.092 l -1.2127,2.1685 1.8913,1.616 40.8433,34.8953 1.5075,1.2878 1.777,-0.8473 c 23.8161,-11.3533 47.2558,-16.8548 70.3349,-16.7675 23.0548,0.0873 45.8258,5.7603 68.3243,16.7556 l 1.7856,0.8725 1.523,-1.3011 z m 35.0312,-37.9227 -37.4684,32.0119 c -22.7168,-10.8173 -45.7767,-16.397 -69.1957,-16.4854 -23.4306,-0.0887 -47.1489,5.3271 -71.1672,16.4985 l -37.485,-32.0264 c 10.5046,-20.2612 12.9707,-46.2722 7.7975,-71.0856 -1.0428,-5.0023 -2.3913,-9.9467 -4.0413,-14.7744 -1.6478,-4.822 -3.602,-9.5482 -5.8587,-14.1217 l 6e-4,-2e-4 c -2.9894,-6.6198 -5.101,-12.8869 -6.4338,-18.8125 -4.4337,-19.7112 -0.3059,-35.8582 8.71,-48.7717 9.1315,-13.0797 23.3042,-22.9593 38.7465,-29.9333 9.485,-4.2835 19.4221,-7.4614 28.9613,-9.6069 l 0.0833,-0.0238 c 11.9906,-3.0759 19.855,-5.8601 25.9804,-8.7959 5.4604,-2.617 9.4649,-5.2991 13.7129,-8.3838 4.248,3.0847 8.2531,5.7668 13.7134,8.3838 6.1254,2.9358 13.9899,5.72 25.9804,8.7959 l 0.0833,0.0238 c 9.5389,2.1458 19.4763,5.3234 28.9613,9.6069 15.4423,6.9738 29.615,16.8536 38.7465,29.9333 9.0156,12.9135 13.1437,29.0605 8.71,48.7717 -1.3325,5.9256 -3.4443,12.1927 -6.4338,18.8125 l 9e-4,5e-4 c -11.6104,23.531 -15.251,51.2878 -10.4734,75.5788 0.934,4.7486 2.1917,9.3736 3.776,13.8172 1.3048,3.6583 2.8346,7.1977 4.593,10.5868"
       style="fill:#231f20;fill-opacity:1;fill-rule:nonzero;stroke:none"
       id="path50"
       inkscape:connector-curvature="0" /><path
       d="m 365.67926,287.82261 -220.0802,-85.3441 c -7.7998,19.2368 -4.3427,42.3145 8.428,66.9674 l 216.896,84.1881 c -8.5532,-19.5406 -10.4652,-42.4018 -5.2438,-65.8114"
       style="fill:#ffffff;fill-opacity:1;fill-rule:evenodd;stroke:none"
       id="path52"
       inkscape:connector-curvature="0" /><path
       d="m 366.77426,284.99021 -220.0804,-85.3441 -2.7392,-1.0621 -1.1522,2.7164 -0.002,0.005 -0.0238,0.0357 c -1.1469,2.8295 -2.0659,5.7532 -2.7616,8.763 -0.6922,2.9959 -1.1565,6.0537 -1.398,9.1658 -1.2297,15.8415 3.255,33.3196 12.7083,51.5688 l 0.5295,1.0216 1.0772,0.4184 216.8963,84.1881 6.8533,2.6603 -2.9735,-6.7184 -0.004,-0.008 -0.005,0.002 c -1.1491,-2.6272 -2.179,-5.3334 -3.088,-8.1111 -0.9151,-2.7952 -1.6954,-5.6196 -2.3392,-8.4659 -3.3539,-14.8204 -3.2902,-30.9385 0.3699,-47.3474 l 0.567,-2.5427 -2.4353,-0.9445 z m -219.3984,-78.5656 214.7981,83.2958 c -3.3123,16.4143 -3.2012,32.5318 0.172,47.4375 0.6979,3.0852 1.5259,6.0925 2.4821,9.0131 0.2318,0.7092 0.4719,1.4156 0.7208,2.1197 l -209.3423,-81.2562 c -8.5767,-16.8736 -12.6385,-32.904 -11.52,-47.3128 0.2192,-2.8262 0.6361,-5.5823 1.2552,-8.261 0.3929,-1.7003 0.8708,-3.3792 1.4341,-5.0361"
       style="fill:#231f20;fill-opacity:1;fill-rule:nonzero;stroke:none"
       id="path54"
       inkscape:connector-curvature="0" /><path
       d="m 344.15836,291.80131 6.3595,2.4925 v -4.8311 l -6.3595,-2.4925 z m -46.0505,-17.7823 6.3592,2.4925 v -4.8311 l -6.3592,-2.4925 z m -31.7954,31.3396 19.8961,7.6513 c 18.1562,5.5802 19.9604,-26.8668 -0.3674,-33.7493 l -6.8867,-2.7409 v -14.7724 l -12.6443,-4.8762 0.002,48.4875 z m 12.642,-18.171 c 4.0801,1.8678 7.9027,2.6085 9.5782,5.715 0.8252,1.5301 1.2801,3.6255 0.938,5.6528 -0.4258,2.5229 -2.2017,3.8189 -5.1732,2.9654 l -5.343,-2.2142 z m 34.4831,36.3737 19.8961,7.6512 c 18.1562,5.5803 19.9605,-26.8667 -0.3673,-33.7493 l -6.8868,-2.7408 v -14.7725 l -12.6442,-4.8761 0.002,48.4875 z m 12.642,-18.171 c 4.0802,1.8678 7.9027,2.6085 9.5783,5.715 0.8254,1.5301 1.2801,3.6255 0.9379,5.6528 -0.4257,2.5228 -2.2016,3.8188 -5.1732,2.9653 l -5.343,-2.2141 z m -89.6471,-53.2258 -12.6822,-4.6644 -1.4318,-7.6301 -12.1538,-4.6604 12.8313,53.4603 12.839,4.8277 14.2543,-42.9083 -12.2001,-4.6829 z m -2.645,9.0175 -3.9844,16.6686 -3.9589,-19.5899 z m -49.0244,-29.1101 -12.6822,-4.6644 -1.3546,-7.4707 -12.3078,-4.8994 13.2591,53.7829 12.1371,4.585 14.6052,-42.8289 -12.2,-4.6032 z m -2.645,9.0176 -3.9843,16.6686 -3.9589,-19.59 z m 71.1513,15.539 6.3593,2.4925 v -4.8311 l -6.3593,-2.4928 z m -52.0389,-20.1413 6.3592,2.4925 v -4.8311 l -6.3592,-2.4925 z"
       style="fill:#231f20;fill-opacity:1;fill-rule:evenodd;stroke:none"
       id="path56"
       inkscape:connector-curvature="0" /></g></svg>